<?xml version="1.0" encoding="UTF-8"?>
<svg width="501px" height="176px" viewBox="0 0 501 176" version="1.1" xmlns="http://www.w3.org/2000/svg" xmlns:xlink="http://www.w3.org/1999/xlink">
    <!-- Generator: Sketch 49.3 (51167) - http://www.bohemiancoding.com/sketch -->
    <title>Artboard</title>
    <desc>Created with Sketch.</desc>
    <defs>
        <polygon id="path-1" points="0.92125 0.175650436 173.027 0.175650436 173.027 171.9996 0.92125 171.9996"></polygon>
    </defs>
    <g id="Artboard" stroke="none" stroke-width="1" fill="none" fill-rule="evenodd">
        <g id="Page-1">
            <path d="M480.1824,72.9726 C480.1824,83.9106 471.3154,92.7776 460.3774,92.7776 C449.4394,92.7776 440.5734,83.9106 440.5734,72.9726 C440.5734,62.0346 449.4394,53.1676 460.3774,53.1676 C471.3154,53.1676 480.1824,62.0346 480.1824,72.9726" id="Fill-1" fill="#F9B055"></path>
            <path d="M413.0731,39.7905 C413.0731,54.2595 401.3441,65.9895 386.8751,65.9895 C372.4051,65.9895 360.6761,54.2595 360.6761,39.7905 C360.6761,25.3215 372.4051,13.5925 386.8751,13.5925 C401.3441,13.5925 413.0731,25.3215 413.0731,39.7905" id="Fill-3" fill="#2CBBB3"></path>
            <path d="M427.2303,125.8745 C427.2303,152.9615 405.2723,174.9195 378.1853,174.9195 C351.0983,174.9195 329.1403,152.9615 329.1403,125.8745 C329.1403,98.7875 351.0983,76.8295 378.1853,76.8295 C405.2723,76.8295 427.2303,98.7875 427.2303,125.8745" id="Fill-5" fill="#FBE58C"></path>
            <g id="Group-9" transform="translate(328.000000, 3.376000)">
                <mask id="mask-2" fill="white">
                    <use xlink:href="#path-1"></use>
                </mask>
                <g id="Clip-8"></g>
                <path d="M24.077,0.1816 C22.638,0.4516 21.634,1.7646 21.75,3.2246 L21.75,5.9096 L18.349,5.9096 C17.317,5.8946 16.356,6.4366 15.836,7.3286 C15.315,8.2216 15.315,9.3246 15.836,10.2166 C16.356,11.1086 17.317,11.6506 18.349,11.6366 L21.75,11.6366 L21.75,14.4996 C21.735,15.5326 22.278,16.4936 23.17,17.0136 C24.062,17.5346 25.165,17.5346 26.057,17.0136 C26.949,16.4936 27.492,15.5326 27.477,14.4996 L27.477,11.6366 L30.162,11.6366 C31.195,11.6506 32.155,11.1086 32.676,10.2166 C33.196,9.3246 33.196,8.2216 32.676,7.3286 C32.155,6.4366 31.195,5.8946 30.162,5.9096 L27.477,5.9096 L27.477,3.2246 C27.53,2.4026 27.227,1.5976 26.644,1.0146 C26.062,0.4316 25.257,0.1286 24.434,0.1816 C24.315,0.1746 24.196,0.1746 24.077,0.1816 M56.472,9.1306 C40.482,9.1306 27.299,22.1406 27.299,38.1246 C27.299,54.1076 40.482,67.2986 56.472,67.2986 C72.461,67.2986 85.645,54.1076 85.645,38.1246 C85.645,22.1406 72.461,9.1306 56.472,9.1306 M56.472,14.8576 C62.147,14.8576 67.253,17.0386 71.327,20.4066 L65.242,20.4066 C65.063,20.3896 64.884,20.3896 64.705,20.4066 C63.679,20.4976 62.779,21.1316 62.348,22.0676 C61.917,23.0036 62.019,24.0986 62.617,24.9386 C63.215,25.7786 64.216,26.2346 65.242,26.1336 L76.517,26.1336 C78.706,29.6656 79.918,33.6766 79.918,38.1246 C79.918,40.1386 79.51,42.1606 79.023,44.0316 L71.327,44.0316 C71.148,44.0146 70.969,44.0146 70.79,44.0316 C69.764,44.1226 68.864,44.7566 68.433,45.6926 C68.002,46.6286 68.104,47.7236 68.702,48.5636 C69.3,49.4036 70.301,49.8596 71.327,49.7586 L76.696,49.7586 C72.621,56.7556 65.088,61.5706 56.472,61.5706 C54.796,61.5706 53.212,61.3676 51.639,61.0346 C53.215,60.6816 54.209,59.1236 53.864,57.5466 C53.518,55.9706 51.965,54.9686 50.387,55.3066 L41.617,55.3066 C41.497,55.2996 41.378,55.2996 41.259,55.3066 C41.136,55.3576 41.015,55.4176 40.9,55.4856 C36.157,51.1826 33.025,44.9676 33.025,38.1246 C33.149,38.0736 33.268,38.0136 33.384,37.9456 L44.659,37.9456 C45.692,37.9606 46.652,37.4176 47.173,36.5256 C47.694,35.6336 47.694,34.5306 47.173,33.6386 C46.652,32.7466 45.692,32.2036 44.659,32.2186 L33.921,32.2186 C36.603,22.2726 45.681,14.8576 56.472,14.8576 M157.415,23.4486 C156.188,23.8506 155.382,25.0236 155.446,26.3126 L155.446,29.1766 L152.583,29.1766 C152.345,29.1456 152.104,29.1456 151.867,29.1766 C150.84,29.2996 149.958,29.9636 149.555,30.9156 C149.151,31.8676 149.288,32.9626 149.913,33.7866 C150.539,34.6106 151.556,35.0356 152.583,34.9036 L155.446,34.9036 L155.446,38.1246 C155.431,39.1576 155.974,40.1186 156.866,40.6396 C157.759,41.1596 158.861,41.1596 159.754,40.6396 C160.645,40.1186 161.188,39.1576 161.174,38.1246 L161.174,34.9036 L164.395,34.9036 C165.428,34.9176 166.389,34.3756 166.909,33.4836 C167.43,32.5916 167.43,31.4886 166.909,30.5966 C166.389,29.7036 165.428,29.1616 164.395,29.1766 L161.174,29.1766 L161.174,26.3126 C161.188,25.4506 160.814,24.6266 160.155,24.0716 C159.495,23.5156 158.62,23.2866 157.773,23.4486 C157.654,23.4416 157.534,23.4416 157.415,23.4486 M52.713,31.8606 C51.132,31.8606 49.849,33.1426 49.849,34.7246 C49.849,36.3056 51.132,37.5876 52.713,37.5876 C54.295,37.5876 55.577,36.3056 55.577,34.7246 L55.398,34.0086 C55.062,32.7566 54.01,31.8606 52.713,31.8606 M52.534,44.0316 C50.959,44.2846 49.885,45.7636 50.131,47.3406 C50.377,48.9166 51.851,49.9976 53.43,49.7586 L62.199,49.7586 C63.231,49.7726 64.192,49.2306 64.713,48.3386 C65.233,47.4466 65.233,46.3436 64.713,45.4516 C64.192,44.5586 63.231,44.0166 62.199,44.0316 L53.43,44.0316 C53.251,44.0146 53.071,44.0146 52.892,44.0316 C52.773,44.0236 52.653,44.0236 52.534,44.0316 M93.878,46.5366 C92.511,46.8836 91.598,48.1746 91.73,49.5796 L91.73,52.8016 L88.33,52.8016 C88.092,52.7706 87.851,52.7706 87.614,52.8016 C86.587,52.9246 85.705,53.5886 85.302,54.5406 C84.898,55.4926 85.035,56.5876 85.66,57.4116 C86.286,58.2356 87.305,58.6606 88.33,58.5286 L91.73,58.5286 L91.73,61.2126 C91.716,62.2456 92.259,63.2066 93.15,63.7266 C94.042,64.2476 95.145,64.2476 96.038,63.7266 C96.93,63.2066 97.473,62.2456 97.458,61.2126 L97.458,58.5286 L100.142,58.5286 C101.175,58.5426 102.136,58.0006 102.656,57.1086 C103.177,56.2166 103.177,55.1136 102.656,54.2216 C102.136,53.3286 101.175,52.7866 100.142,52.8016 L97.458,52.8016 L97.458,49.5796 C97.518,48.7226 97.191,47.8846 96.567,47.2956 C95.943,46.7056 95.088,46.4276 94.236,46.5366 C94.117,46.5296 93.997,46.5296 93.878,46.5366 M132.18,49.7586 C121,49.7586 111.775,58.8056 111.775,69.9826 C111.775,81.1606 120.999,90.3866 132.18,90.3866 C143.359,90.3866 152.403,81.1606 152.403,69.9826 C152.403,58.8056 143.358,49.7586 132.18,49.7586 M132.18,55.4856 C135.383,55.4856 138.202,56.6166 140.591,58.3496 L132.18,58.3496 C132.059,58.3416 131.94,58.3416 131.821,58.3496 C130.795,58.4096 129.879,59.0136 129.42,59.9326 C128.961,60.8526 129.029,61.9486 129.599,62.8046 C130.169,63.6606 131.153,64.1456 132.18,64.0766 L145.424,64.0766 C146.252,65.9066 146.677,67.8306 146.677,69.9826 C146.677,73.3246 145.507,76.4536 143.634,78.9316 L135.222,78.9316 C135.043,78.9146 134.863,78.9146 134.684,78.9316 C133.265,78.8286 131.985,79.7796 131.672,81.1666 C131.358,82.5546 132.106,83.9636 133.431,84.4796 C133.012,84.5386 132.623,84.6596 132.18,84.6596 C125.07,84.6596 119.173,79.5906 117.861,72.8466 L126.452,72.8466 C127.484,72.8616 128.445,72.3186 128.966,71.4266 C129.486,70.5346 129.486,69.4306 128.966,68.5386 C128.445,67.6476 127.484,67.1046 126.452,67.1186 L117.861,67.1186 C119.238,60.4916 125.128,55.4856 132.18,55.4856 M20.855,58.3496 C19.557,58.6836 18.665,59.8736 18.708,61.2126 L18.708,64.0766 L15.306,64.0766 C15.129,64.0596 14.948,64.0596 14.77,64.0766 C13.743,64.1686 12.845,64.8026 12.413,65.7386 C11.982,66.6746 12.085,67.7696 12.682,68.6096 C13.28,69.4496 14.281,69.9046 15.306,69.8036 L18.708,69.8036 L18.708,73.0256 C18.693,74.0576 19.235,75.0186 20.128,75.5396 C21.019,76.0596 22.123,76.0596 23.015,75.5396 C23.907,75.0186 24.449,74.0576 24.434,73.0256 L24.434,69.8036 L27.119,69.8036 C28.152,69.8186 29.113,69.2756 29.634,68.3836 C30.154,67.4916 30.154,66.3886 29.634,65.4966 C29.113,64.6046 28.152,64.0616 27.119,64.0766 L24.434,64.0766 L24.434,61.2126 C24.441,60.3876 24.091,59.5986 23.473,59.0506 C22.856,58.5016 22.032,58.2456 21.213,58.3496 C21.094,58.3416 20.974,58.3416 20.855,58.3496 M138.622,66.2246 C137.041,66.2246 135.759,67.5066 135.759,69.0876 C135.759,70.6696 137.041,71.9516 138.622,71.9516 C140.204,71.9516 141.486,70.6696 141.486,69.0876 L141.306,68.3716 C140.972,67.1196 139.919,66.2246 138.622,66.2246 M50.744,72.8466 C23.762,72.8466 1.752,94.5176 1.168,121.3496 C0.839,122.0906 0.839,122.9356 1.168,123.6766 C1.824,150.4436 23.808,171.9996 50.744,171.9996 C77.682,171.9996 99.963,149.7576 99.963,122.4236 C99.963,95.0886 77.682,72.8466 50.744,72.8466 M50.744,78.5736 C58.689,78.5736 66.127,80.8386 72.58,84.6596 L56.114,84.6596 C55.876,84.6286 55.636,84.6286 55.398,84.6596 C54.371,84.7826 53.489,85.4466 53.086,86.3986 C52.682,87.3506 52.819,88.4456 53.444,89.2696 C54.07,90.0936 55.088,90.5186 56.114,90.3866 L80.097,90.3866 C80.129,90.4156 80.244,90.3566 80.275,90.3866 C85.313,95.1086 89.347,101.0956 91.73,107.7466 L44.659,107.7466 C44.54,107.7396 44.421,107.7396 44.302,107.7466 C43.275,107.8066 42.358,108.4106 41.9,109.3306 C41.441,110.2506 41.51,111.3466 42.079,112.2016 C42.649,113.0576 43.634,113.5426 44.659,113.4746 L93.341,113.4746 C93.95,116.3836 94.236,119.3336 94.236,122.4236 C94.236,125.4516 93.927,128.5166 93.341,131.3716 L74.012,131.3716 C73.833,131.3556 73.653,131.3556 73.474,131.3716 C72.448,131.4636 71.549,132.0976 71.118,133.0336 C70.686,133.9696 70.789,135.0646 71.387,135.9046 C71.984,136.7446 72.986,137.2006 74.012,137.0996 L91.73,137.0996 C89.332,143.8726 85.237,149.8596 80.097,154.6396 L56.472,154.6396 C56.176,154.5926 55.873,154.5926 55.577,154.6396 C54.55,154.7946 53.685,155.4886 53.309,156.4566 C52.933,157.4246 53.104,158.5196 53.758,159.3276 C54.411,160.1356 55.446,160.5316 56.472,160.3666 L72.58,160.3666 C66.127,164.1866 58.689,166.2726 50.744,166.2726 C27.472,166.2726 8.557,148.1666 7.074,125.2866 L38.931,125.2866 C39.965,125.3016 40.926,124.7586 41.446,123.8666 C41.967,122.9746 41.967,121.8716 41.446,120.9796 C40.926,120.0876 39.965,119.5446 38.931,119.5596 L7.074,119.5596 C7.48,113.2906 9.142,107.4736 11.906,102.1986 L32.847,102.1986 C33.88,102.2136 34.84,101.6706 35.36,100.7786 C35.882,99.8866 35.882,98.7836 35.36,97.8916 C34.84,96.9996 33.88,96.4566 32.847,96.4716 L15.486,96.4716 C23.467,85.6606 36.257,78.5736 50.744,78.5736 M43.406,96.4716 C41.831,96.8236 40.837,98.3826 41.181,99.9586 C41.527,101.5356 43.081,102.5366 44.659,102.1986 L45.017,102.1986 C46.05,102.2136 47.011,101.6706 47.531,100.7786 C48.052,99.8866 48.052,98.7836 47.531,97.8916 C47.011,96.9996 46.05,96.4566 45.017,96.4716 L44.659,96.4716 C44.363,96.4246 44.06,96.4246 43.764,96.4716 C43.645,96.4646 43.525,96.4646 43.406,96.4716 M116.966,105.0626 C115.598,105.4096 114.687,106.7006 114.818,108.1046 L114.818,110.7896 L111.955,110.7896 C111.895,110.7876 111.836,110.7876 111.775,110.7896 C110.199,110.8466 108.965,112.1656 109.015,113.7426 C109.063,115.3186 110.378,116.5586 111.955,116.5166 L114.818,116.5166 L114.818,119.3806 C114.804,120.4136 115.347,121.3736 116.238,121.8946 C117.131,122.4146 118.233,122.4146 119.126,121.8946 C120.017,121.3736 120.56,120.4136 120.546,119.3806 L120.546,116.5166 L123.409,116.5166 C124.442,116.5316 125.402,115.9896 125.923,115.0976 C126.444,114.2046 126.444,113.1016 125.923,112.2096 C125.402,111.3176 124.442,110.7756 123.409,110.7896 L120.546,110.7896 L120.546,108.1046 C120.595,107.3146 120.315,106.5396 119.772,105.9636 C119.23,105.3876 118.473,105.0606 117.681,105.0626 C117.562,105.0556 117.443,105.0556 117.324,105.0626 C117.205,105.0556 117.085,105.0556 116.966,105.0626 M26.403,107.7466 C24.828,107.9516 23.714,109.3906 23.911,110.9676 C24.107,112.5436 25.542,113.6646 27.119,113.4746 L33.384,113.4746 C34.416,113.4896 35.377,112.9466 35.897,112.0546 C36.418,111.1626 36.418,110.0586 35.897,109.1666 C35.377,108.2746 34.416,107.7326 33.384,107.7466 L27.119,107.7466 C27.059,107.7446 27,107.7446 26.94,107.7466 C26.762,107.7306 26.582,107.7306 26.403,107.7466 M163.5,107.7466 C162.273,108.1486 161.468,109.3216 161.531,110.6106 L161.531,113.8326 L158.309,113.8326 C157.277,113.8176 156.316,114.3606 155.796,115.2526 C155.275,116.1446 155.275,117.2476 155.796,118.1396 C156.316,119.0316 157.277,119.5746 158.309,119.5596 L161.531,119.5596 L161.531,122.4236 C161.516,123.4556 162.059,124.4166 162.951,124.9366 C163.844,125.4576 164.947,125.4576 165.839,124.9366 C166.73,124.4166 167.273,123.4556 167.259,122.4236 L167.259,119.5596 L170.122,119.5596 C171.155,119.5746 172.116,119.0316 172.637,118.1396 C173.157,117.2476 173.157,116.1446 172.637,115.2526 C172.116,114.3606 171.155,113.8176 170.122,113.8326 L167.259,113.8326 L167.259,110.6106 C167.274,109.7486 166.899,108.9256 166.24,108.3696 C165.58,107.8136 164.705,107.5856 163.858,107.7466 C163.739,107.7396 163.619,107.7396 163.5,107.7466 M50.028,119.5596 C48.453,119.7636 47.339,121.2026 47.536,122.7796 C47.732,124.3566 49.167,125.4766 50.744,125.2866 L60.409,125.2866 C61.442,125.3016 62.402,124.7586 62.923,123.8666 C63.444,122.9746 63.444,121.8716 62.923,120.9796 C62.402,120.0876 61.442,119.5446 60.409,119.5596 L50.744,119.5596 C50.684,119.5576 50.625,119.5576 50.565,119.5596 C50.387,119.5426 50.207,119.5426 50.028,119.5596 M62.199,131.1936 C60.888,131.1936 59.515,132.6606 59.515,134.4146 C59.515,135.7356 60.888,136.9206 62.199,136.9206 C63.948,136.9206 65.242,135.7356 65.242,134.4146 C65.242,132.6556 63.948,131.1936 62.199,131.1936 M26.046,142.8266 C24.471,143.1296 23.436,144.6486 23.731,146.2246 C24.027,147.8016 25.542,148.8426 27.119,148.5546 L45.017,148.5546 C46.05,148.5686 47.011,148.0256 47.531,147.1336 C48.052,146.2426 48.052,145.1386 47.531,144.2466 C47.011,143.3546 46.05,142.8116 45.017,142.8266 L27.119,142.8266 C26.882,142.7966 26.641,142.7966 26.403,142.8266 C26.284,142.8196 26.165,142.8196 26.046,142.8266 M105.153,151.4176 C103.855,151.7516 102.964,152.9416 103.006,154.2816 L103.006,157.6816 L100.142,157.6816 C99.904,157.6516 99.664,157.6516 99.427,157.6816 C98.399,157.8056 97.517,158.4696 97.114,159.4216 C96.711,160.3736 96.848,161.4686 97.473,162.2926 C98.098,163.1156 99.117,163.5416 100.142,163.4096 L103.006,163.4096 L103.006,166.0936 C102.991,167.1266 103.534,168.0866 104.426,168.6076 C105.318,169.1286 106.421,169.1286 107.313,168.6076 C108.205,168.0866 108.748,167.1266 108.733,166.0936 L108.733,163.4096 L111.955,163.4096 C112.987,163.4236 113.948,162.8816 114.469,161.9896 C114.989,161.0976 114.989,159.9936 114.469,159.1016 C113.948,158.2096 112.987,157.6666 111.955,157.6816 L108.733,157.6816 L108.733,154.2816 C108.739,153.4556 108.39,152.6666 107.772,152.1186 C107.155,151.5696 106.331,151.3146 105.512,151.4176 C105.392,151.4106 105.272,151.4106 105.153,151.4176 M44.659,154.4606 C43.348,154.4606 41.974,155.7476 41.974,157.5026 C41.974,159.2616 43.348,160.5456 44.659,160.5456 C46.408,160.5456 47.702,159.2576 47.702,157.5026 C47.702,155.7456 46.409,154.4606 44.659,154.4606" id="Fill-7" fill="#231F20" mask="url(#mask-2)"></path>
            </g>
            <path d="M72.0037,87.5791 C73.8067,88.7441 74.7927,90.2231 74.9607,92.0221 C75.0507,92.9841 74.8587,93.8481 74.3867,94.6181 C73.9137,95.3891 73.4107,96.1621 72.8787,96.9381 C68.7607,103.3771 65.0647,109.1691 61.7947,114.3141 C58.5237,119.4631 55.4067,124.3251 52.4467,128.8961 C49.4847,133.4711 46.6347,137.9421 43.8987,142.3141 C41.1577,146.6831 38.2577,151.2521 35.1937,156.0181 C34.6597,156.7951 34.1647,157.6271 33.7027,158.5181 C33.2417,159.4071 32.6787,160.1851 32.0157,160.8541 C30.9037,161.9261 29.4617,162.3641 27.6907,162.1671 C25.9157,161.9701 24.4447,161.4411 23.2747,160.5821 C22.6167,160.0371 22.0767,159.4241 21.6497,158.7381 C21.2237,158.0511 20.9757,157.3481 20.9077,156.6281 C20.9367,155.6551 21.1337,154.8511 21.4987,154.2131 C21.8617,153.5721 22.2557,152.9311 22.6807,152.2871 L29.3307,141.8611 C27.7047,142.6171 26.0127,143.2601 24.2457,143.7881 C22.4807,144.3171 20.6857,144.5441 18.8637,144.4741 C15.4807,144.5461 12.3507,143.7491 9.4717,142.0841 C6.5927,140.4161 4.3457,138.0871 2.7347,135.0891 C1.1327,132.2151 0.2417,129.1491 0.0607,125.8981 C-0.1253,122.6471 0.1177,119.4191 0.7877,116.2071 C2.0657,109.1891 4.4997,102.5161 8.0837,96.1891 C11.6687,89.8631 15.6177,83.8961 19.9367,78.2871 C24.2627,72.7991 28.9377,67.4591 33.9607,62.2691 C38.9817,57.0791 44.3787,52.3391 50.1497,48.0461 C55.9227,43.7561 61.9807,39.9501 68.3277,36.6331 C74.6737,33.3161 81.3357,30.7871 88.3157,29.0451 C91.8707,28.2301 95.3747,27.5391 98.8337,26.9721 C100.3917,26.8261 101.8437,26.8121 103.1877,26.9281 C104.5277,27.0461 105.7967,27.6541 106.9887,28.7501 C108.0487,29.7411 108.6697,30.8941 108.8557,32.2071 C109.0377,33.5231 108.5727,34.7161 107.4657,35.7871 C106.9077,36.3241 106.2777,36.6861 105.5687,36.8721 C104.8607,37.0601 104.1467,37.1861 103.4267,37.2541 C102.4647,37.3441 101.5367,37.4311 100.6367,37.5151 C99.7367,37.5991 98.8127,37.7481 97.8637,37.9561 C90.6007,39.2421 83.6817,41.6141 77.1067,45.0711 C70.5297,48.5321 64.3617,52.4671 58.6027,56.8781 C52.8417,61.2921 47.4187,66.0941 42.3387,71.2901 C37.2557,76.4851 32.5667,82.0081 28.2747,87.8561 C26.1317,90.8421 24.1137,93.8451 22.2177,96.8651 C20.3217,99.8871 18.6197,103.0421 17.1117,106.3291 C15.7227,109.6081 14.5007,113.0501 13.4477,116.6571 C12.3937,120.2681 12.0887,123.8061 12.5347,127.2731 C12.6807,128.8341 13.1277,130.3951 13.8807,131.9581 C14.6307,133.5221 15.9067,134.2201 17.7077,134.0521 C19.5077,133.8831 21.2397,133.3291 22.9067,132.3851 C24.5717,131.4441 26.2067,130.4741 27.8097,129.4751 C30.8807,127.3731 33.7187,125.0511 36.3267,122.5061 C38.9317,119.9651 41.5027,117.3641 44.0387,114.7041 C50.7287,107.3011 56.2747,99.9431 60.6747,92.6321 C61.2067,91.8561 61.7107,91.0831 62.1827,90.3131 C62.6547,89.5421 63.1617,88.8311 63.7077,88.1731 C64.8047,86.9811 66.1767,86.4301 67.8187,86.5171 C69.4617,86.6081 70.8567,86.9601 72.0037,87.5791" id="Fill-10" fill="#231F20"></path>
            <path d="M100.8817,97.8169 C97.6217,100.9879 94.4077,104.6459 91.2397,108.7949 C88.0717,112.9429 85.7307,116.9659 84.2187,120.8599 C84.0487,121.1729 83.8277,121.7119 83.5547,122.4789 C83.2787,123.2449 83.0797,124.0039 82.9527,124.7569 C82.8247,125.5099 82.8387,126.1759 82.9917,126.7539 C83.1437,127.3329 83.6107,127.5849 84.3967,127.5119 C86.6297,127.1059 88.6747,126.0009 90.5317,124.1969 C92.3867,122.3929 93.9917,120.7869 95.3417,119.3759 C99.1937,115.1629 102.6907,110.8119 105.8257,106.3189 C108.9617,101.8279 112.1007,97.3599 115.2407,92.9179 C115.2527,90.9419 114.5997,90.0139 113.2777,90.1379 C111.9547,90.2609 110.4487,90.7979 108.7597,91.7459 C107.0697,92.6949 105.4477,93.8339 103.8937,95.1649 C102.3367,96.4949 101.3337,97.3809 100.8817,97.8169 M112.9687,133.5819 C110.6377,133.9969 108.5537,133.8949 106.7177,133.2769 C104.8817,132.6569 103.3947,131.5629 102.2607,129.9899 C101.5817,129.0669 101.0697,127.8299 100.7287,126.2809 C99.4667,127.5839 98.1957,128.7909 96.9177,129.8969 C95.6367,131.0029 94.3057,132.0669 92.9187,133.0859 C90.6887,134.5779 88.3377,135.5889 85.8677,136.1159 C83.3987,136.6439 80.9847,136.4249 78.6197,135.4609 C76.4627,134.5739 74.9767,133.1829 74.1547,131.2849 C73.3357,129.3869 72.9207,127.3259 72.9097,125.1039 C72.9017,122.8819 73.2367,120.6789 73.9207,118.4899 C74.6057,116.3019 75.3237,114.4829 76.0767,113.0279 C78.7637,107.9379 81.9397,103.0959 85.6107,98.5039 C89.2787,93.9149 93.4807,89.9659 98.2077,86.6569 C100.3497,85.2719 102.5807,84.0509 104.9037,82.9939 C107.2247,81.9389 109.6667,81.3879 112.2327,81.3449 C116.1757,81.2729 119.2027,82.4709 121.3117,84.9409 C121.8257,84.1039 122.5117,83.2729 123.3747,82.4519 C124.2357,81.6299 125.0527,81.1349 125.8287,80.9629 C127.2977,80.8249 128.6747,81.2889 129.9597,82.3549 C131.1377,83.3319 131.8417,84.5259 132.0717,85.9349 C132.3017,87.3469 131.9787,88.6359 131.1007,89.8039 C129.8657,91.4019 128.5827,92.9809 127.2467,94.5359 C125.9097,96.0939 124.6337,97.7689 123.4197,99.5619 C120.5447,103.6829 118.1807,107.1899 116.3267,110.0789 C114.4727,112.9699 112.9447,115.9019 111.7417,118.8789 C111.3237,119.7099 111.0347,120.5749 110.8737,121.4799 C110.7107,122.3829 110.6807,123.1279 110.7867,123.7099 C110.8897,124.2929 111.1967,124.6859 111.7107,124.8829 C112.2227,125.0829 112.9887,124.8379 114.0137,124.1489 C115.2207,123.3459 116.3197,122.4289 117.3117,121.3959 C118.3017,120.3649 119.2837,119.2619 120.2617,118.0819 L131.3137,104.7499 C131.8457,104.1079 132.3947,103.3899 132.9637,102.5949 C133.5307,101.8019 134.1877,101.1729 134.9367,100.7069 C136.4457,99.9729 137.9107,100.0349 139.3237,100.8889 C140.7367,101.7459 141.4237,103.0149 141.3847,104.6969 C141.2787,105.6959 140.9617,106.5149 140.4297,107.1569 C139.8967,107.7999 139.3687,108.4929 138.8447,109.2319 C135.7457,113.0779 133.3997,115.9639 131.8017,117.8919 C130.2037,119.8199 128.7827,121.5339 127.5407,123.0319 C125.6677,125.1849 123.5707,127.3299 121.2527,129.4729 C118.9347,131.6159 116.1737,132.9859 112.9687,133.5819" id="Fill-12" fill="#231F20"></path>
            <path d="M160.4617,80.5386 C164.1827,77.0306 167.7457,73.4116 171.1517,69.6856 C174.5567,65.9586 177.7407,61.9816 180.7047,57.7526 C181.9197,55.9606 183.0637,54.1986 184.1377,52.4676 C185.2097,50.7376 186.0457,48.8586 186.6477,46.8256 C186.8677,46.0146 186.7557,45.6056 186.3107,45.5976 C185.8647,45.5896 185.2887,45.7666 184.5817,46.1286 C183.8747,46.4916 183.1037,46.9596 182.2687,47.5306 C181.4327,48.1046 180.7877,48.6096 180.3347,49.0446 C176.7817,52.2436 173.5177,55.6356 170.5447,59.2216 C167.5687,62.8106 164.8367,66.5976 162.3457,70.5826 C160.6237,73.3136 158.9517,76.0386 157.3317,78.7566 C155.7087,81.4786 154.1927,84.2876 152.7847,87.1836 C154.0647,86.0776 155.3457,84.9956 156.6307,83.9346 C157.9137,82.8766 159.1907,81.7456 160.4617,80.5386 M169.0357,100.9256 C169.5597,100.1866 170.1077,99.4686 170.6877,98.7706 C171.2627,98.0766 171.9797,97.5386 172.8327,97.1626 C174.3527,96.5276 175.7507,96.6676 177.0217,97.5856 C178.2927,98.5046 178.8557,99.7616 178.7077,101.3546 C178.5927,102.2546 178.2757,103.0766 177.7527,103.8146 C177.2297,104.5566 176.7007,105.2466 176.1687,105.8896 C171.6597,111.5476 167.5827,116.0276 163.9407,119.3306 C160.2987,122.6356 157.0227,125.1136 154.1167,126.7696 C151.2087,128.4246 148.6337,129.4056 146.3907,129.7156 C144.1467,130.0226 142.2227,130.0546 140.6207,129.8096 C138.4107,129.4246 136.5837,128.6316 135.1387,127.4336 C133.6927,126.2356 132.5867,124.7086 131.8207,122.8536 C131.0547,120.9996 130.6397,118.9406 130.5757,116.6726 C130.5127,114.4086 130.7587,112.0136 131.3127,109.4926 C132.2997,105.2506 133.7347,100.8196 135.6247,96.1976 C137.5127,91.5756 139.6327,87.0316 141.9817,82.5636 C144.3277,78.0976 146.7957,73.8406 149.3807,69.7946 C151.9667,65.7516 154.4427,62.1356 156.8127,58.9506 C159.3587,55.5516 162.0587,52.2126 164.9137,48.9316 C167.7687,45.6526 170.9587,42.8096 174.4887,40.4056 C175.6957,39.6016 177.1747,38.7716 178.9237,37.9156 C180.6707,37.0626 182.4407,36.4526 184.2347,36.0856 C186.0277,35.7216 187.7587,35.7326 189.4247,36.1186 C191.0907,36.5076 192.5427,37.5316 193.7867,39.1926 C195.1267,40.8456 195.7667,42.6886 195.7107,44.7176 C195.6527,46.7486 195.2487,48.7616 194.4977,50.7586 C193.7447,52.7546 192.8127,54.6716 191.7007,56.5016 C190.5877,58.3356 189.6007,59.9346 188.7417,61.2986 C186.2207,64.9936 183.5607,68.4756 180.7547,71.7506 C177.9487,75.0276 175.0137,78.2406 171.9507,81.3906 C169.9607,83.3546 167.8487,85.3306 165.6147,87.3176 C163.3787,89.3046 161.1417,91.2436 158.8987,93.1316 C156.6527,95.0226 154.3997,96.7886 152.1337,98.4316 C149.8647,100.0776 147.7007,101.4906 145.6397,102.6696 C144.9457,103.7236 144.3517,104.7416 143.8517,105.7256 C143.3507,106.7126 142.8957,107.6676 142.4887,108.5946 C141.0377,112.0896 140.5647,114.9496 141.0687,117.1736 C141.5737,119.3996 142.4837,120.6966 143.8037,121.0666 C144.8177,121.3676 146.1997,121.0906 147.9487,120.2346 C149.6957,119.3806 151.6747,118.0846 153.8827,116.3456 C156.0917,114.6086 158.4817,112.4336 161.0517,109.8226 C163.6227,107.2106 166.2837,104.2466 169.0357,100.9256" id="Fill-14" fill="#231F20"></path>
            <path d="M192.2459,89.272 C188.9859,92.443 185.7719,96.101 182.6039,100.25 C179.4359,104.398 177.0949,108.421 175.5829,112.315 C175.4129,112.628 175.1929,113.167 174.9199,113.934 C174.6439,114.7 174.4439,115.46 174.3179,116.212 C174.1889,116.965 174.2029,117.631 174.3559,118.209 C174.5079,118.788 174.9759,119.04 175.7609,118.967 C177.9939,118.561 180.0389,117.456 181.8959,115.652 C183.7509,113.848 185.3559,112.242 186.7059,110.831 C190.5589,106.618 194.0549,102.267 197.1899,97.774 C200.3269,93.283 203.4649,88.815 206.6049,84.373 C206.6179,82.397 205.9639,81.469 204.6419,81.593 C203.3199,81.716 201.8139,82.253 200.1249,83.201 C198.4349,84.15 196.8119,85.289 195.2589,86.62 C193.7019,87.95 192.6989,88.836 192.2459,89.272 M204.3339,125.037 C202.0019,125.452 199.9179,125.35 198.0819,124.732 C196.2459,124.112 194.7589,123.018 193.6259,121.445 C192.9459,120.522 192.4339,119.285 192.0939,117.736 C190.8309,119.039 189.5609,120.246 188.2819,121.352 C187.0019,122.458 185.6709,123.522 184.2839,124.541 C182.0529,126.033 179.7019,127.044 177.2319,127.572 C174.7629,128.099 172.3489,127.88 169.9839,126.916 C167.8269,126.029 166.3409,124.638 165.5189,122.74 C164.7009,120.842 164.2849,118.781 164.2739,116.559 C164.2659,114.337 164.6009,112.134 165.2859,109.945 C165.9709,107.758 166.6889,105.938 167.4419,104.483 C170.1289,99.393 173.3039,94.551 176.9749,89.959 C180.6429,85.37 184.8449,81.421 189.5729,78.112 C191.7149,76.727 193.9449,75.506 196.2679,74.449 C198.5899,73.394 201.0309,72.843 203.5979,72.8 C207.5399,72.728 210.5669,73.926 212.6759,76.397 C213.1899,75.559 213.8769,74.728 214.7389,73.907 C215.5999,73.085 216.4179,72.59 217.1929,72.418 C218.6619,72.28 220.0389,72.744 221.3239,73.809 C222.5019,74.788 223.2059,75.981 223.4369,77.39 C223.6669,78.802 223.3429,80.091 222.4659,81.259 C221.2299,82.857 219.9469,84.436 218.6109,85.991 C217.2749,87.549 215.9989,89.225 214.7839,91.017 C211.9099,95.138 209.5449,98.645 207.6919,101.534 C205.8369,104.425 204.3099,107.357 203.1059,110.334 C202.6889,111.165 202.3989,112.03 202.2389,112.935 C202.0749,113.838 202.0459,114.583 202.1509,115.165 C202.2539,115.748 202.5609,116.141 203.0759,116.338 C203.5879,116.538 204.3539,116.293 205.3779,115.604 C206.5859,114.801 207.6839,113.884 208.6769,112.851 C209.6659,111.82 210.6479,110.717 211.6259,109.537 L222.6789,96.205 C223.2109,95.563 223.7599,94.845 224.3289,94.05 C224.8949,93.257 225.5529,92.628 226.3009,92.162 C227.8099,91.428 229.2749,91.49 230.6879,92.345 C232.1019,93.201 232.7879,94.47 232.7489,96.152 C232.6429,97.151 232.3259,97.97 231.7939,98.612 C231.2609,99.255 230.7329,99.948 230.2099,100.687 C227.1099,104.533 224.7639,107.419 223.1659,109.347 C221.5679,111.275 220.1469,112.989 218.9049,114.487 C217.0319,116.64 214.9359,118.785 212.6179,120.928 C210.2999,123.071 207.5379,124.441 204.3339,125.037" id="Fill-16" fill="#231F20"></path>
            <path d="M224.7811,93.3413 C226.5551,91.2003 228.2311,89.0433 229.8061,86.8703 C231.3811,84.6993 232.8981,82.4573 234.3631,80.1473 C235.1161,78.6943 235.7461,77.4983 236.2511,76.5623 C236.7561,75.6263 237.1531,74.8733 237.4471,74.3013 C237.7391,73.7333 237.9701,73.3153 238.1451,73.0513 C238.3171,72.7893 238.4921,72.5513 238.6711,72.3353 C239.2131,71.7913 239.9491,71.5003 240.8851,71.4613 C241.8191,71.4243 242.6871,71.4663 243.4901,71.5883 C245.1201,72.1283 246.3951,73.0943 247.3181,74.4893 C247.8811,75.2293 248.0931,75.9243 247.9581,76.5783 C247.8201,77.2353 247.6431,77.9673 247.4231,78.7773 C246.8211,80.8103 246.3221,82.8573 245.9231,84.9183 C245.5231,86.9813 245.1741,89.0633 244.8771,91.1653 C248.0101,87.7123 250.7241,84.7653 253.0151,82.3293 C255.3061,79.8923 257.3051,77.7783 259.0161,75.9883 C260.7241,74.1993 262.2321,72.6273 263.5391,71.2693 C264.8431,69.9133 266.1301,68.6323 267.4021,67.4253 C267.9431,66.8823 268.4831,66.3123 269.0201,65.7183 C269.5571,65.1263 270.1491,64.6003 270.8001,64.1443 C271.7221,63.4653 272.9021,63.4053 274.3391,63.9613 C275.4691,64.4483 276.4311,65.2243 277.2221,66.2843 C278.0121,67.3473 278.4681,68.5153 278.5881,69.7873 C278.5531,70.4833 278.3351,71.0473 277.9311,71.4783 C277.5271,71.9123 277.0971,72.3483 276.6451,72.7843 C276.4671,73.0003 276.2661,73.2403 276.0461,73.5073 C275.8231,73.7763 275.3501,74.2643 274.6281,74.9733 C273.9021,75.6853 272.8871,76.7173 271.5841,78.0733 C270.2771,79.4323 268.4991,81.2773 266.2491,83.6103 C263.9971,85.9463 261.1591,88.8793 257.7361,92.4073 C254.3111,95.9393 250.1681,100.2043 245.3011,105.2023 C245.9741,108.2023 246.8601,110.2683 247.9551,111.4003 C249.0471,112.5343 250.8351,112.0933 253.3141,110.0833 C255.9881,108.0553 258.5981,105.5893 261.1421,102.6833 C263.6861,99.7783 266.8751,96.1233 270.7111,91.7133 C271.1541,91.1783 271.6201,90.6163 272.1081,90.0263 C272.5951,89.4393 273.1121,88.8723 273.6531,88.3263 C274.4711,87.5593 275.3751,87.2023 276.3691,87.2573 C277.3601,87.3123 278.2281,87.6013 278.9681,88.1253 C279.7081,88.6493 280.2451,89.3653 280.5781,90.2713 C280.9081,91.1803 280.8761,92.1473 280.4781,93.1703 C280.3271,93.6793 280.0721,94.1233 279.7141,94.5013 C279.3531,94.8823 279.0001,95.3343 278.6551,95.8603 C276.2501,98.6543 274.2181,100.9673 272.5621,102.8013 C270.9051,104.6373 269.5441,106.1723 268.4731,107.4063 C267.4041,108.6433 266.4831,109.6443 265.7171,110.4053 C264.9481,111.1703 264.2481,111.8763 263.6191,112.5283 C261.8051,114.2783 259.7971,116.0203 257.5881,117.7593 C255.3801,119.4963 252.9541,120.4893 250.3091,120.7373 C247.0961,121.2343 244.4571,120.7403 242.3911,119.2553 C240.3271,117.7673 238.6401,115.8523 237.3351,113.5043 C235.7191,115.2373 234.0561,117.0223 232.3531,118.8603 C230.6471,120.6983 228.3611,123.1833 225.4941,126.3183 C225.0421,126.7533 224.6581,127.1363 224.3421,127.4633 C224.0271,127.7883 223.5751,127.9793 222.9871,128.0333 C221.8121,128.1443 220.7211,127.8243 219.7121,127.0803 C218.7051,126.3343 218.0531,125.4323 217.7551,124.3743 C217.3511,123.2263 217.5521,122.1943 218.3541,121.2803 C219.1581,120.3653 219.9161,119.4793 220.6261,118.6233 C222.7651,116.1523 224.5491,114.0843 225.9721,112.4193 C227.3951,110.7553 228.6211,109.3323 229.6471,108.1483 C230.6721,106.9663 231.5411,105.9703 232.2581,105.1633 C232.9711,104.3553 233.6391,103.5773 234.2611,102.8273 C234.0421,100.4763 233.9691,98.1123 234.0431,95.7353 L232.4451,97.6623 C231.6461,98.6263 230.7591,99.4273 229.7801,100.0603 C228.8021,100.6953 227.6381,100.6823 226.2941,100.0163 C225.0541,99.4423 224.2501,98.4803 223.8761,97.1303 C223.5041,95.7833 223.8051,94.5213 224.7811,93.3413" id="Fill-18" fill="#231F20"></path>
            <path d="M325.6277,68.9438 C325.6637,69.3368 325.6007,69.7128 325.4377,70.0728 C325.2717,70.4358 324.9427,70.8858 324.4517,71.4248 C323.9587,71.9658 323.3587,72.6898 322.6537,73.5928 C321.9477,74.4998 321.0677,75.6448 320.0127,77.0268 C315.7777,82.4598 312.0207,87.7008 308.7397,92.7498 C305.4557,97.7978 302.3177,102.7848 299.3217,107.7068 C294.6217,115.5558 290.2777,122.9748 286.2897,129.9668 C282.2987,136.9568 278.7657,144.0548 275.6867,151.2588 C275.2707,152.0868 274.8807,152.9388 274.5177,153.8128 C274.1537,154.6848 273.8147,155.5308 273.4947,156.3528 C273.1697,157.0728 272.8847,157.7438 272.6467,158.3588 C272.4067,158.9738 271.9597,159.4598 271.3007,159.8188 C269.9767,160.4358 268.6077,160.5888 267.1937,160.2768 C265.7827,159.9638 264.6307,159.2568 263.7357,158.1548 C262.7357,156.9638 262.5597,155.5978 263.2047,154.0558 C263.5237,153.2338 263.8197,152.4428 264.0937,151.6758 C264.3687,150.9088 264.7137,150.1108 265.1297,149.2818 C265.8547,147.5338 266.6037,145.7598 267.3727,143.9608 C268.1447,142.1588 268.9407,140.3808 269.7627,138.6248 C273.2347,131.3848 277.0487,124.1118 281.2067,116.8098 C280.4487,117.1768 279.7147,117.4918 278.9987,117.7568 C278.2817,118.0208 277.5317,118.1908 276.7487,118.2638 C274.8907,118.4378 273.0957,118.2588 271.3647,117.7308 C269.6367,117.1998 268.2577,116.1928 267.2307,114.7098 C265.9707,112.8518 265.3647,110.8598 265.4107,108.7298 C265.4597,106.6028 265.7887,104.5708 266.3977,102.6368 C267.1397,99.9998 268.3547,97.1448 270.0417,94.0718 C271.7317,91.0018 273.6177,87.9588 275.7077,84.9478 C277.7967,81.9378 279.9207,79.0488 282.0827,76.2768 C284.2437,73.5068 286.1677,71.1038 287.8547,69.0688 C288.4837,68.4168 289.1337,67.6898 289.7987,66.8868 C290.4647,66.0838 291.2817,65.5878 292.2527,65.3978 C293.9167,65.2418 295.3207,65.7288 296.4647,66.8558 C297.6067,67.9858 298.2427,69.2338 298.3707,70.6038 C298.5957,71.9678 298.3107,73.1288 297.5117,74.0928 C294.7767,77.6088 292.5087,80.5618 290.7087,82.9528 C288.9067,85.3438 287.3917,87.3628 286.1627,89.0078 C284.9337,90.6558 283.9067,92.0858 283.0827,93.2978 C282.2567,94.5108 281.4977,95.6448 280.8077,96.6958 C280.3707,97.3288 279.7487,98.3268 278.9387,99.6858 C278.1257,101.0468 277.4157,102.4218 276.8057,103.8118 C276.1937,105.2028 275.7447,106.4808 275.4597,107.6418 C275.1727,108.8058 275.3327,109.4578 275.9387,109.5978 C276.2507,109.7678 276.7117,109.6988 277.3267,109.3938 C277.9397,109.0908 278.5687,108.6848 279.2137,108.1798 C279.8567,107.6758 280.5247,107.1448 281.2137,106.5858 C281.9017,106.0278 282.4717,105.5298 282.9257,105.0918 C286.3007,102.1088 289.4367,98.9258 292.3307,95.5438 C295.2237,92.1618 297.9927,88.7418 300.6327,85.2838 C303.2727,81.8288 305.8597,78.3498 308.3987,74.8528 C310.9367,71.3558 313.6337,67.9908 316.4937,64.7598 C316.9377,64.2258 317.4397,63.7828 317.9997,63.4338 C318.5607,63.0858 319.2387,62.9728 320.0427,63.0948 C321.5477,63.3498 322.8167,63.9978 323.8547,65.0348 C324.8897,66.0748 325.4817,67.3788 325.6277,68.9438" id="Fill-20" fill="#231F20"></path>
            <path d="M28.6229,26.3486 C27.1579,26.8276 26.1959,28.2276 26.2719,29.7666 L26.2719,33.6136 L22.4269,33.6136 C21.1929,33.5956 20.0469,34.2436 19.4249,35.3086 C18.8039,36.3726 18.8039,37.6906 19.4249,38.7556 C20.0469,39.8206 21.1929,40.4676 22.4269,40.4506 L26.2719,40.4506 L26.2719,43.8696 C26.2549,45.1016 26.9019,46.2486 27.9679,46.8696 C29.0319,47.4916 30.3499,47.4916 31.4139,46.8696 C32.4789,46.2486 33.1269,45.1016 33.1089,43.8696 L33.1089,40.4506 L36.5279,40.4506 C37.7609,40.4676 38.9079,39.8206 39.5289,38.7556 C40.1509,37.6906 40.1509,36.3726 39.5289,35.3086 C38.9079,34.2436 37.7609,33.5956 36.5279,33.6136 L33.1089,33.6136 L33.1089,29.7666 C33.1279,28.7376 32.6809,27.7546 31.8939,27.0916 C31.1049,26.4286 30.0609,26.1556 29.0499,26.3486 C28.9069,26.3396 28.7649,26.3396 28.6229,26.3486" id="Fill-22" fill="#231F20"></path>
            <path d="M72.6903,0.0391 C71.7533,0.3461 71.1373,1.2411 71.1863,2.2261 L71.1863,4.6851 L68.7263,4.6851 C67.9383,4.6741 67.2053,5.0891 66.8063,5.7701 C66.4093,6.4511 66.4093,7.2931 66.8063,7.9751 C67.2053,8.6561 67.9383,9.0701 68.7263,9.0591 L71.1863,9.0591 L71.1863,11.2461 C71.1753,12.0341 71.5893,12.7681 72.2713,13.1651 C72.9523,13.5631 73.7943,13.5631 74.4753,13.1651 C75.1573,12.7681 75.5713,12.0341 75.5603,11.2461 L75.5603,9.0591 L77.7473,9.0591 C78.5353,9.0701 79.2683,8.6561 79.6673,7.9751 C80.0643,7.2931 80.0643,6.4511 79.6673,5.7701 C79.2683,5.0891 78.5353,4.6741 77.7473,4.6851 L75.5603,4.6851 L75.5603,2.2261 C75.5723,1.5671 75.2863,0.9381 74.7823,0.5141 C74.2783,0.0901 73.6103,-0.0849 72.9633,0.0391 C72.8723,0.0331 72.7813,0.0331 72.6903,0.0391" id="Fill-24" fill="#231F20"></path>
            <path d="M68.5457,146.1167 C67.5817,146.4327 66.9477,147.3547 66.9977,148.3677 L66.9977,150.9007 L64.4657,150.9007 C63.6527,150.8897 62.8987,151.3157 62.4887,152.0167 C62.0797,152.7187 62.0797,153.5857 62.4887,154.2867 C62.8987,154.9887 63.6527,155.4147 64.4657,155.4037 L66.9977,155.4037 L66.9977,157.6547 C66.9867,158.4667 67.4127,159.2217 68.1147,159.6317 C68.8167,160.0407 69.6837,160.0407 70.3847,159.6317 C71.0857,159.2217 71.5127,158.4667 71.5007,157.6547 L71.5007,155.4037 L73.7517,155.4037 C74.5647,155.4147 75.3187,154.9887 75.7287,154.2867 C76.1387,153.5857 76.1387,152.7187 75.7287,152.0167 C75.3187,151.3157 74.5647,150.8897 73.7517,150.9007 L71.5007,150.9007 L71.5007,148.3677 C71.5127,147.6897 71.2187,147.0427 70.6997,146.6057 C70.1817,146.1697 69.4927,145.9897 68.8267,146.1167 C68.7327,146.1107 68.6397,146.1107 68.5457,146.1167" id="Fill-26" fill="#231F20"></path>
        </g>
    </g>
</svg>