<?xml version="1.0" encoding="UTF-8"?>
<svg width="309px" height="67px" viewBox="0 0 309 67" version="1.1" xmlns="http://www.w3.org/2000/svg" xmlns:xlink="http://www.w3.org/1999/xlink">
    <!-- Generator: Sketch 49.3 (51167) - http://www.bohemiancoding.com/sketch -->
    <title>Artboard</title>
    <desc>Created with Sketch.</desc>
    <defs>
        <polygon id="path-1" points="0.9213 0.254017778 31.014 0.254017778 31.014 43.8218996 0.9213 43.8218996"></polygon>
    </defs>
    <g id="Artboard" stroke="none" stroke-width="1" fill="none" fill-rule="evenodd">
        <g id="Page-1">
            <path d="M251.50995,13.9134044 C251.34795,14.7037156 251.16795,15.56656 250.99245,16.4294044 C250.61595,18.27296 250.49745,17.8286933 251.75295,19.07536 C252.33345,19.6495822 252.92745,20.2117156 253.49595,20.7995378 C253.62045,20.9279822 253.66395,21.1380267 253.74345,21.3118044 C253.59345,21.3692267 253.44795,21.4598933 253.29045,21.4780267 C252.18945,21.6110044 251.08845,21.7394489 249.98445,21.8467378 C249.53445,21.8890489 249.23595,22.0824711 249.04095,22.4995378 C248.55645,23.5240711 248.05545,24.5395378 247.54395,25.54896 C247.47195,25.6955378 247.30095,25.7922489 247.17495,25.9131378 C247.06695,25.7922489 246.92145,25.6879822 246.85545,25.5474489 C246.38445,24.5198933 245.90895,23.4908267 245.47095,22.4451378 C245.28195,21.9918044 244.96995,21.8074489 244.50945,21.7485156 C243.37995,21.6034489 242.25045,21.4372267 241.12395,21.2664711 C241.00245,21.2483378 240.81195,21.1410489 240.80295,21.0594489 C240.79095,20.9340267 240.87645,20.76176 240.97695,20.6695822 C241.82595,19.8762489 242.67945,19.0859378 243.55095,18.3167822 C243.86745,18.0372267 243.98895,17.7229156 243.91695,17.3134044 C243.71445,16.1679822 243.51195,15.02256 243.32145,13.8741156 C243.29745,13.7350933 243.31245,13.4872711 243.38295,13.4555378 C243.50745,13.3981156 243.71895,13.4192711 243.84645,13.4902933 C244.84545,14.0478933 245.84145,14.6130489 246.82095,15.2023822 C247.21695,15.4396267 247.55295,15.4396267 247.95645,15.2159822 C248.95395,14.6598933 249.96945,14.1340267 250.97895,13.6006044 C251.35995,13.4011378 251.50245,13.47216 251.50995,13.9134044" id="Fill-1" fill="#231F20"></path>
            <path d="M155.43225,52.2777956 C157.98225,54.0563733 167.32875,54.4447289 169.70175,52.8716622 C167.34675,46.15024 164.99025,39.4212622 162.63225,32.6907733 C162.58875,32.6968178 162.54675,32.7013511 162.50475,32.7073956 C160.14675,39.2338844 157.78575,45.7618844 155.43225,52.2777956 M239.75475,16.1093511 C239.60175,16.0443733 239.44425,15.9899733 239.29875,15.9129067 C231.66075,11.85104 223.64475,8.79859556 215.25225,6.74650667 C211.65225,5.86704 208.01625,5.19308444 204.34425,4.69592889 C198.85875,3.95397333 193.34925,3.61397333 187.82175,3.80135111 C184.68375,3.90712889 181.54875,4.19272889 178.42725,4.52517333 C173.81775,5.01477333 169.30275,6.00152889 164.89425,7.45521778 C160.29975,8.96935111 155.96175,10.9927289 152.14125,14.0255289 C147.38325,17.8033067 144.24975,22.5995733 143.28675,28.68784 C142.29675,34.9498844 143.41275,40.7585956 147.19875,45.93264 C148.52925,47.7520178 150.15075,49.2737067 152.01675,50.5324622 C152.15325,50.6261511 152.30025,50.7077511 152.49675,50.82864 C152.57925,50.6231289 152.64525,50.4705067 152.70375,50.3148622 C155.57475,42.5749511 158.44875,34.83504 161.30625,27.0905956 C161.45925,26.67504 161.63625,26.5027733 162.09675,26.5209067 C163.17525,26.5601956 164.25825,26.5571733 165.33825,26.5209067 C165.76125,26.5057956 165.93375,26.6553956 166.07175,27.0377067 C168.63375,34.1369067 171.20925,41.2315733 173.78025,48.3277511 C174.05925,49.0938844 174.34125,49.8554844 174.64575,50.6850844 C178.31025,48.3171733 180.78825,45.0471289 182.43375,41.0759289 C182.49225,41.0970844 182.55075,41.1197511 182.60775,41.1424178 C182.59575,41.3569956 182.61225,41.5791289 182.57025,41.7891733 C181.77525,45.8449956 179.65875,49.0802844 176.51025,51.67184 C176.21925,51.9105956 175.91925,52.1387733 175.61175,52.3578844 C175.40475,52.5044622 175.34625,52.6434844 175.44375,52.90944 C176.53725,55.8908622 177.60825,58.8813511 178.70625,61.8627733 C178.87275,62.3161067 179.10975,62.7513067 179.36775,63.1623289 C179.90025,64.0145956 180.72975,64.3802844 181.68975,64.4905956 C182.01675,64.5268622 182.34975,64.5721956 182.67225,64.5389511 C183.19275,64.4860622 183.31125,64.7157511 183.27675,65.1872178 C183.24075,65.7040178 183.27075,66.22384 183.27075,66.7859733 L167.90775,66.7859733 C167.90775,66.1089956 167.89275,65.4501511 167.92575,64.7928178 C167.93025,64.7051733 168.18375,64.5752178 168.33075,64.5601067 C168.96525,64.4981511 169.61925,64.53744 170.24325,64.4210844 C172.04025,64.0810844 172.90125,63.00064 172.47225,61.2205511 C171.97275,59.1397511 171.18825,57.12544 170.51775,55.0567289 C165.11175,56.83984 159.78225,56.93504 154.46175,55.2395733 C154.40925,55.2697956 154.36725,55.2803733 154.35975,55.3015289 C153.68175,57.2916622 152.73525,59.1956622 152.40075,61.2991289 C152.16075,62.82384 152.87175,63.9813511 154.35675,64.3047289 C155.17275,64.4815289 156.02775,64.4996622 156.86775,64.5389511 C157.25325,64.5555733 157.40025,64.67344 157.37775,65.0633067 C157.35375,65.4561956 157.34625,65.8536178 157.38075,66.2449956 C157.41675,66.6922844 157.27575,66.8433956 156.80925,66.8373511 C154.30425,66.8161956 151.79775,66.8282844 149.29125,66.8282844 L144.35925,66.8282844 L143.75625,66.8282844 C143.75625,66.1105067 143.74275,65.4531733 143.77275,64.79584 C143.77575,64.7097067 143.99625,64.5767289 144.12825,64.5616178 C144.68625,64.4996622 145.25175,64.4996622 145.80825,64.4301511 C146.53275,64.3394844 147.13125,63.9571733 147.48975,63.3391289 C148.00875,62.4445511 148.50375,61.5257956 148.88475,60.56624 C149.71875,58.4627733 150.47625,56.3275733 151.26525,54.2044622 C151.29825,54.1183289 151.31625,54.0261511 151.34475,53.9233956 C150.62625,53.4685511 149.89125,53.0499733 149.20425,52.5618844 C144.36825,49.1361956 141.32475,44.4532622 139.97025,38.7095289 C138.23325,31.3383289 139.17075,24.3116622 143.18775,17.8229511 C145.57875,13.9620622 148.88775,11.0244622 152.69475,8.63086222 C156.90675,5.98037333 161.48025,4.18366222 166.25175,2.86597333 C169.75125,1.90037333 173.30925,1.23397333 176.90775,0.762506667 C181.85475,0.115751111 186.82275,-0.106382222 191.80125,0.04624 C195.69375,0.164106667 199.56375,0.587217778 203.40825,1.23699556 C212.08725,2.70126222 220.42425,5.26712889 228.39525,9.02224 C232.28475,10.8567289 236.01375,12.9783289 239.48325,15.5411733 C239.63775,15.6545067 239.75625,15.8131733 239.89275,15.9506844 C239.84625,16.0050844 239.79975,16.0564622 239.75475,16.1093511" id="Fill-3" fill="#231F20"></path>
            <path d="M6.3537,30.5179467 L6.3537,31.0045244 C6.3537,40.9279911 6.3522,50.8529689 6.3552,60.7764356 C6.3552,61.1693244 6.3762,61.5652356 6.4137,61.9566133 C6.5322,63.2093244 7.2582,63.8530578 8.6232,63.9255911 C8.8377,63.9361689 9.0537,63.9271022 9.2997,63.9271022 L9.2997,66.2270133 C9.1347,66.2391022 8.9847,66.2587467 8.8332,66.2587467 C6.0777,66.2602578 3.3207,66.24968 0.5652,66.2693244 C0.1212,66.2738578 -0.0108,66.12728 0.0147,65.7041689 C0.0447,65.2327022 0.0297,64.7582133 0.0207,64.2852356 C0.0162,64.0238133 0.1152,63.91048 0.3822,63.9301244 C0.5682,63.9437244 0.7602,63.9346578 0.9447,63.9074578 C2.3532,63.7079911 2.9547,63.0491467 2.9712,61.6045244 C2.9937,59.49048 2.9817,57.3764356 2.9817,55.2623911 C2.9817,47.2489689 2.9832,39.2325244 2.9787,31.2175911 C2.9787,30.8262133 2.9547,30.4287911 2.8887,30.0449689 C2.7177,29.0415911 2.2227,28.5610578 1.2327,28.3857689 C1.0782,28.3585689 0.9237,28.3359022 0.7692,28.3132356 C0.0222,28.2074578 0.0117,28.2074578 0.0252,27.4247022 C0.0327,26.9562578 -0.0903,26.3427467 0.1512,26.0677244 C0.3567,25.8335022 1.0002,25.9740356 1.4487,25.9740356 C4.2522,25.9679911 7.0557,25.9815911 9.8592,25.9589244 C10.2867,25.9559022 10.4787,26.0767911 10.6272,26.4878133 C14.3457,36.8797244 18.0807,47.2671022 21.8142,57.65448 C21.8757,57.8267467 21.9507,57.9929689 22.0677,58.2831022 C22.1877,57.96728 22.2657,57.7708356 22.3362,57.5713689 C26.0307,47.2036356 29.7252,36.8374133 33.4077,26.4651467 C33.5367,26.1009689 33.6882,25.9574133 34.0932,25.9604356 C37.0842,25.98008 40.0752,25.9710133 43.0677,25.9710133 L43.6017,25.9710133 L43.6017,28.2422133 C43.2312,28.2875467 42.8772,28.3268356 42.5262,28.3767022 C41.4147,28.5338578 40.8162,29.1534133 40.7142,30.2655911 C40.6782,30.65848 40.6572,31.05288 40.6572,31.4457689 C40.6542,41.2287022 40.6542,51.0101244 40.6572,60.7915467 C40.6572,61.2010578 40.6752,61.61208 40.7202,62.0185689 C40.8522,63.2199022 41.5647,63.8394578 42.8907,63.92408 C43.1082,63.93768 43.3272,63.9255911 43.5882,63.9255911 L43.5882,66.2345689 C43.4097,66.2436356 43.2432,66.2587467 43.0752,66.2587467 C39.6927,66.2602578 36.3102,66.2511911 32.9277,66.2693244 C32.4807,66.2723467 32.3037,66.1575022 32.3412,65.69208 C32.3787,65.2372356 32.3577,64.7763467 32.3487,64.3199911 C32.3427,64.0479911 32.4222,63.9044356 32.7237,63.9301244 C32.9082,63.9452356 33.1002,63.9331467 33.2847,63.9059467 C34.6932,63.6974133 35.2647,63.0446133 35.3007,61.5909244 C35.3187,60.8973244 35.3097,60.2037244 35.3097,59.5086133 C35.3097,49.9946578 35.3097,40.4807022 35.3097,30.9682578 L35.3097,30.41368 C35.2767,30.4061244 35.2452,30.40008 35.2122,30.3925244 C35.1567,30.5285244 35.0967,30.6615022 35.0472,30.7990133 C30.8967,42.4542133 26.7447,54.1094133 22.6047,65.7706578 C22.4742,66.1423911 22.3107,66.2889689 21.9132,66.2693244 C21.2577,66.2345689 20.5977,66.2375911 19.9407,66.2678133 C19.5507,66.2859467 19.3677,66.1575022 19.2327,65.7782133 C18.0912,62.5655911 16.9242,59.3590133 15.7662,56.1524356 C12.7257,47.7385689 9.6852,39.3247022 6.6447,30.9108356 C6.5937,30.7703022 6.5337,30.6358133 6.4782,30.4983022 C6.4362,30.5043467 6.3942,30.5119022 6.3537,30.5179467" id="Fill-5" fill="#231F20"></path>
            <path d="M243.0372,26.6073422 C243.0372,27.2465422 243.0507,27.8766756 243.0252,28.5068089 C243.0192,28.6231644 242.8647,28.82112 242.7582,28.8362311 C241.4487,29.0130311 240.6132,29.8154311 240.1812,30.9865422 C239.5977,32.5762311 239.0922,34.2006756 238.6242,35.8296533 C235.7547,45.8165867 232.9002,55.8095644 230.0502,65.8040533 C229.9512,66.1485867 229.8057,66.27552 229.4367,66.2694756 C228.1062,66.2437867 226.7727,66.2468089 225.4437,66.2679644 C225.0807,66.2740089 224.9397,66.1591644 224.8362,65.8040533 C221.9382,55.7430756 219.0267,45.6866311 216.1167,35.6301867 C216.0747,35.4866311 216.0207,35.3460978 215.9337,35.0861867 C215.8287,35.38992 215.7567,35.5742756 215.7027,35.7646756 C213.0042,45.7334756 210.3027,55.7022756 207.6207,65.6756089 C207.4932,66.1470756 207.3027,66.2860978 206.8242,66.2724978 C205.5417,66.2362311 204.2562,66.2407644 202.9737,66.2709867 C202.5252,66.2800533 202.3317,66.1516089 202.1997,65.6982756 C199.4892,56.4004089 196.7577,47.1100978 194.0307,37.8167644 C193.4682,35.9006756 192.9057,33.9860978 192.3432,32.07152 C192.2892,31.8901867 192.2292,31.7103644 192.1707,31.5320533 C191.4897,29.51472 190.5852,28.84832 188.4657,28.7999644 C188.2947,28.7969422 188.1087,28.83472 187.9527,28.7833422 C187.8267,28.7425422 187.6482,28.5989867 187.6437,28.4932089 C187.6152,27.8660978 187.6302,27.2359644 187.6302,26.5710756 L202.8042,26.5710756 C202.8042,27.2404978 202.8162,27.9280533 202.7847,28.6110756 C202.7817,28.6805867 202.5252,28.7788089 202.3812,28.7908978 C201.6957,28.8468089 200.9952,28.8014756 200.3247,28.9329422 C198.6447,29.2608533 197.8467,30.5060089 198.2832,32.1772978 C199.0542,35.1269867 199.8852,38.0615644 200.7027,40.9991644 C202.4142,47.1478756 204.1302,53.2965867 205.8462,59.4437867 C205.9017,59.6477867 205.9812,59.8472533 206.1402,60.0482311 C206.3562,59.2654756 206.5752,58.48272 206.7852,57.6984533 C209.4882,47.5830756 212.1897,37.4676978 214.8807,27.3508089 C214.9692,27.0138311 215.0967,26.8944533 215.4447,26.90352 C216.4782,26.9261867 217.5132,26.9276978 218.5452,26.9020089 C218.8827,26.8944533 218.9997,27.0244089 219.0837,27.3281422 C221.0487,34.2052089 223.0212,41.0807644 224.9922,47.95632 C226.0272,51.5678756 227.0607,55.1794311 228.0972,58.7909867 C228.1347,58.9239644 228.1887,59.05392 228.2652,59.2775644 C228.3537,59.05392 228.4197,58.91792 228.4602,58.7758756 C230.8167,50.6687644 233.1747,42.5631644 235.5177,34.4530311 C235.7367,33.6989867 235.9107,32.92832 236.0367,32.15312 C236.3547,30.1720533 235.3692,28.9722311 233.3607,28.8543644 C232.7997,28.82112 232.2357,28.7999644 231.6732,28.8044978 C231.3372,28.80752 231.1857,28.7032533 231.1992,28.34512 C231.2202,27.8570311 231.2067,27.36592 231.2037,26.8778311 C231.2022,26.6541867 231.2682,26.5302756 231.5247,26.5302756 C235.3167,26.5393422 239.1057,26.5423644 242.8962,26.5468978 C242.9247,26.5468978 242.9502,26.5695644 243.0372,26.6073422" id="Fill-7" fill="#231F20"></path>
            <g id="Group-11" transform="translate(277.500000, 23.179840)">
                <mask id="mask-2" fill="white">
                    <use xlink:href="#path-1"></use>
                </mask>
                <g id="Clip-10"></g>
                <path d="M9.1398,0.254017778 L9.1398,17.0696622 C9.2808,16.8671733 9.3573,16.7795289 9.4098,16.6797956 C10.7478,14.2363289 12.8583,12.8929511 15.5358,12.4683289 C17.6748,12.1283289 19.8078,12.22504 21.8703,12.9941956 C24.5478,13.99304 26.0538,16.0254844 26.8053,18.7152622 C27.2148,20.1825511 27.3543,21.69064 27.3603,23.2032622 C27.3813,27.9995289 27.3633,32.7973067 27.3768,37.5935733 C27.3768,38.0907289 27.4338,38.6045067 27.5583,39.08504 C27.9798,40.6989067 29.0598,41.5360622 30.7173,41.5889511 C30.7953,41.5919733 30.8703,41.5995289 31.0143,41.6085956 C30.8418,42.2145511 30.4983,42.6588178 30.0453,43.0214844 C29.2158,43.6848622 28.2393,43.8616622 27.2163,43.8148178 C25.7133,43.74984 24.3453,43.3327733 23.3283,42.1299289 C22.5363,41.19304 22.1628,40.0869067 22.1613,38.8644178 C22.1553,33.7054844 22.1793,28.5465511 22.1433,23.3861067 C22.1358,22.3237956 22.0098,21.24184 21.7728,20.20824 C21.1383,17.4504622 19.5123,16.1297511 16.6968,15.88344 C13.9848,15.6461956 11.9643,16.7417511 10.6698,19.1051289 C10.1643,20.0299289 9.7878,21.0635289 9.5493,22.0925956 C9.2943,23.2168622 9.1683,24.3955289 9.1563,25.55304 C9.1113,29.7493956 9.1383,33.9457511 9.1473,38.1421067 C9.1473,38.48664 9.1893,38.8372178 9.2553,39.1741956 C9.4443,40.1307289 10.1328,40.6414844 11.3313,40.7412178 C11.4708,40.7533067 11.6118,40.7638844 11.7528,40.7517956 C11.9913,40.7321511 12.0993,40.8288622 12.0978,41.0721511 C12.0903,41.6252178 12.0888,42.1767733 12.0993,42.7283289 C12.1023,42.9957956 11.9823,43.1000622 11.7273,43.0804178 C11.6178,43.0713511 11.5083,43.0804178 11.3988,43.0804178 L1.5783,43.0804178 L0.9513,43.0804178 L0.9513,40.8031733 C1.3698,40.7533067 1.7883,40.7291289 2.1963,40.6535733 C3.2088,40.4646844 3.7338,39.8889511 3.8328,38.8704622 C3.8793,38.3687733 3.9123,37.8640622 3.9123,37.3608622 C3.9168,26.7422844 3.9168,16.1237067 3.9123,5.50664 C3.9123,5.09712889 3.8793,4.68610667 3.8208,4.28264 C3.6618,3.19917333 2.9373,2.62041778 1.6938,2.54939556 C0.9213,2.50406222 0.9213,2.50406222 0.9213,1.70015111 L0.9213,0.254017778 L9.1398,0.254017778 Z" id="Fill-9" fill="#231F20" mask="url(#mask-2)"></path>
            </g>
            <path d="M82.2897,51.5376533 C82.3527,51.41072 82.3932,51.2596089 82.4862,51.1583644 C85.4877,47.8324089 88.4997,44.5170311 91.4907,41.18352 C91.8417,40.7921422 92.1372,40.3297422 92.3667,39.8537422 C92.6517,39.2613867 92.4372,38.7884089 91.8117,38.5919644 C91.3542,38.4484089 90.8592,38.4317867 90.3912,38.3169422 C90.2607,38.2852089 90.0762,38.1144533 90.0702,37.9965867 C90.0342,37.4465422 90.0567,36.8934756 90.0522,36.3404089 C90.0507,36.1122311 90.1272,36.00192 90.3807,36.0034311 C93.9027,36.0109867 97.4277,36.0094756 100.9497,36.0124978 C100.9932,36.0124978 101.0367,36.0351644 101.1027,36.0548089 L101.1027,38.3154311 C98.7687,38.39552 97.0917,39.75552 95.5047,41.2605867 C94.8207,41.9073422 94.1697,42.5933867 93.5397,43.2930311 C92.2137,44.7663644 90.9192,46.2653867 89.5962,47.73872 C89.3577,48.0061867 89.3307,48.1905422 89.5407,48.5018311 C92.1252,52.3370311 94.6722,56.1964089 97.2792,60.0149867 C97.9032,60.9276978 98.6697,61.76032 99.4542,62.5445867 C100.3752,63.4633422 101.5272,63.9332978 102.8427,63.93632 C102.9192,63.93632 102.9957,63.9544533 103.1307,63.9725867 C102.8832,65.0741867 102.2997,65.8765867 101.3337,66.3918756 C100.3302,66.9268089 99.2487,66.8829867 98.1702,66.7756978 C96.4497,66.6064533 95.3022,65.5214756 94.2222,64.2884089 C92.2857,62.0746311 90.7707,59.5692089 89.1717,57.1196978 C88.1142,55.5012978 87.0687,53.87232 86.0157,52.2508978 C85.9572,52.15872 85.8867,52.0740978 85.6902,51.80512 C85.5957,51.9924978 85.5522,52.1572089 85.4502,52.2720533 C84.4137,53.4522311 83.3592,54.6188089 82.3317,55.8080533 C82.1847,55.9772978 82.0827,56.2477867 82.0797,56.4744533 C82.0587,58.0505422 82.0632,59.6281422 82.0737,61.2057422 C82.0767,61.5668978 82.1157,61.9325867 82.1877,62.2861867 C82.4007,63.3394311 83.0982,63.8577422 84.3462,63.9257422 C84.5622,63.9378311 84.7782,63.9272533 85.0647,63.9272533 L85.0647,65.0877867 L85.0647,66.2256533 C84.8742,66.2392533 84.7077,66.2588978 84.5442,66.2588978 C81.1767,66.2604089 77.8107,66.2528533 74.4432,66.2679644 C74.0217,66.2709867 73.8477,66.1621867 73.8807,65.71792 C73.9122,65.2630756 73.8957,64.8021867 73.8837,64.3458311 C73.8777,64.0572089 73.9557,63.89552 74.2812,63.9302756 C74.4492,63.9468978 74.6277,63.9317867 74.7972,63.9076089 C76.1697,63.7156978 76.7382,63.1006756 76.8312,61.7028978 C76.8507,61.42032 76.8462,61.13472 76.8462,60.8506311 C76.8477,50.1549867 76.8477,39.4593422 76.8432,28.7636978 C76.8432,28.3390756 76.8267,27.90992 76.7592,27.4928533 C76.5807,26.3791644 76.0002,25.8472533 74.8857,25.7278756 C73.8867,25.6220978 73.8867,25.6220978 73.8867,24.6126756 C73.8867,23.36752 73.8867,23.36752 75.1227,23.36752 L81.3222,23.36752 C82.0692,23.36752 82.0692,23.36752 82.0692,24.0958756 L82.0692,50.7896533 L82.0692,51.3925867 C82.1412,51.4409422 82.2147,51.4892978 82.2897,51.5376533" id="Fill-12" fill="#231F20"></path>
            <path d="M63.30015,53.4723289 C63.25815,53.4693067 63.21615,53.4632622 63.17415,53.46024 L63.17415,52.18184 C63.17415,51.0364178 63.17415,51.0228178 62.05215,51.01224 C59.81415,50.98504 57.57765,50.99864 55.40865,51.6710844 C53.51115,52.2573956 52.04265,53.3423733 51.45615,55.3491289 C50.98515,56.9660178 50.94615,58.6116178 51.33765,60.2496622 C51.71415,61.8197067 52.65465,62.88504 54.26415,63.2189956 C54.85365,63.3413956 55.47465,63.36104 56.08065,63.3549956 C59.42265,63.3141956 62.07315,61.28024 62.81415,58.0086844 C63.14715,56.5353511 63.14865,54.9864622 63.30015,53.4723289 M63.56715,61.3875289 C63.40365,61.6867289 63.30015,61.8589956 63.21165,62.0388178 C61.87665,64.7799733 59.60715,66.1807733 56.68665,66.6174844 C55.00515,66.86984 53.32365,66.88344 51.65715,66.46184 C48.42615,65.6443289 46.59015,63.5000622 45.93465,60.2813956 C45.60465,58.6629956 45.59565,57.02344 45.96465,55.4020178 C46.48815,53.1081511 47.91015,51.5396178 49.95015,50.48184 C51.89715,49.4693956 53.98815,48.9435289 56.15265,48.7984622 C58.28865,48.6549067 60.43515,48.6579289 62.57715,48.5974844 C62.74665,48.5929511 62.91765,48.5974844 63.13065,48.5974844 C63.14565,48.3919733 63.17565,48.22424 63.17115,48.0565067 C63.12615,46.2613067 63.11415,44.4630844 63.00615,42.6709067 C62.96415,41.9939289 62.77365,41.2988178 62.51415,40.6686844 C61.85415,39.0684178 60.51765,38.3702844 58.88715,38.2509067 C58.00515,38.1859289 57.09165,38.2101067 56.22615,38.3733067 C54.32265,38.7344622 53.15865,40.1141067 52.92615,42.1148178 C52.84065,42.8477067 52.77915,43.5836178 52.70415,44.34824 C51.61815,44.3149956 50.55465,44.2364178 49.56615,43.7377511 C48.65265,43.2768622 48.21765,42.4925956 48.09765,41.5164178 C47.86665,39.64264 48.55215,38.18744 50.14215,37.1749956 C51.45015,36.3438844 52.90815,35.9464622 54.41715,35.7197956 C56.57865,35.3933956 58.74465,35.33144 60.91665,35.6215733 C62.79315,35.8709067 64.55715,36.3997956 65.97015,37.7597956 C67.23465,38.97624 67.87965,40.5175733 68.12865,42.2205956 C68.29065,43.3221956 68.36265,44.4449511 68.36565,45.5601511 C68.39115,50.3715289 68.36565,55.1829067 68.38815,59.9942844 C68.39115,60.7286844 68.46465,61.4812178 68.64615,62.1899289 C69.01065,63.61944 70.05315,64.2480622 71.51715,64.0349956 C71.65665,64.0153511 71.79765,64.0077956 71.98965,63.9881511 C72.03315,64.6424622 71.80665,65.1909956 71.41215,65.6700178 C70.71615,66.5132178 69.74265,66.73384 68.72565,66.8078844 C66.62115,66.9589956 65.29815,65.83624 64.45515,64.04104 C64.11765,63.3232622 63.93615,62.5299289 63.68415,61.7713511 C63.65715,61.68824 63.63315,61.6036178 63.56715,61.3875289" id="Fill-14" fill="#231F20"></path>
            <path d="M120.63495,48.4830933 C120.63495,47.8771378 120.66345,47.3286044 120.62895,46.7830933 C120.52095,44.9999822 120.26595,43.2455822 119.49945,41.61056 C118.89195,40.3094933 118.00095,39.27136 116.61645,38.79536 C113.91645,37.8675378 110.85345,38.6608711 109.30545,41.7012267 C108.39195,43.4979378 108.01245,45.4306489 107.80695,47.4117156 C107.77095,47.7607822 107.75445,48.1128711 107.72895,48.4830933 L120.63495,48.4830933 Z M126.30495,51.4902044 L125.65095,51.4902044 L108.26445,51.4902044 C107.61045,51.4902044 107.59545,51.4932267 107.62095,52.1324267 C107.71245,54.2782044 107.94795,56.3998044 108.73095,58.4246933 C110.20545,62.2311822 113.03745,63.4612267 116.55795,63.3040711 C118.95045,63.1952711 121.08045,62.3717156 122.86395,60.7366933 C123.28995,60.3483378 123.65145,59.8874489 124.08495,59.4114489 C124.60095,59.7136711 124.91295,60.1911822 125.00745,60.8062044 C125.19045,62.0014933 124.68795,62.96256 123.91845,63.8042489 C122.79045,65.0388267 121.34295,65.7399822 119.77545,66.1948267 C116.75595,67.06976 113.71395,67.0984711 110.71845,66.1328711 C106.84845,64.8846933 104.52945,62.07856 103.25595,58.2917156 C102.36945,55.6563378 102.19995,52.9302933 102.27645,50.1755378 C102.34395,47.7864711 102.63795,45.43216 103.44795,43.17456 C104.94945,38.9872711 107.80395,36.3564267 112.22745,35.6613156 C114.69645,35.27296 117.16245,35.3878044 119.52645,36.3277156 C122.85645,37.65296 124.70745,40.26416 125.65095,43.62336 C126.36495,46.1710933 126.33495,48.7898489 126.30495,51.4902044 Z" id="Fill-16" fill="#231F20"></path>
            <path d="M259.1271,57.0597067 C259.2246,57.8726844 259.2816,58.6901956 259.4361,59.4880622 C259.9776,62.3077956 261.9051,63.9775733 264.5751,64.1422844 C266.1666,64.2405067 267.6936,64.0667289 269.1111,63.2779289 C271.3821,62.0131289 271.9551,59.2704622 271.1616,57.2531289 C270.9351,56.66984 270.4596,56.1288622 269.9736,55.7117956 C268.6746,54.5950844 267.0711,53.9997067 265.5501,53.2607733 C263.7096,52.3646844 261.8436,51.5048622 260.0601,50.4999733 C258.3831,49.5540178 257.0241,48.21064 256.5006,46.27944 C255.7356,43.45064 255.8706,40.7321511 257.9871,38.4518844 C259.2576,37.0813067 260.9076,36.3605067 262.6941,35.9630844 C265.3731,35.3692178 268.0596,35.2830844 270.7116,36.1051289 C272.1936,36.5645067 273.5106,37.2989067 274.3041,38.73144 C275.2446,40.4269067 274.8546,42.4517956 273.4011,43.4007733 C272.7111,43.8525956 271.9356,44.0052178 271.1226,44.0293956 C270.8661,44.0369511 270.8301,43.9145511 270.8016,43.6893956 C270.7086,42.9247733 270.6606,42.1435289 270.4566,41.41064 C269.8461,39.2255733 268.5336,38.1798844 266.2926,38.0589956 C265.1601,37.9985511 264.0411,38.1254844 262.9881,38.5999733 C261.4461,39.2965956 260.7321,40.5417511 260.6001,42.2054844 C260.4471,44.1261067 261.2661,45.5269067 262.8891,46.4124178 C264.3006,47.1800622 265.7781,47.8373956 267.2481,48.4917067 C269.0961,49.31224 270.9471,50.1116178 272.6136,51.2797067 C275.0886,53.0099289 276.0846,55.4216622 275.9676,58.4030844 C275.8506,61.3149956 274.6611,63.5816622 272.1891,65.1260178 C271.0581,65.8317067 269.8131,66.2472622 268.5141,66.4845067 C265.7706,66.9877067 263.0376,66.9725956 260.3331,66.2397067 C259.0776,65.8997067 257.9451,65.3118844 257.0316,64.3477956 C255.6846,62.9273511 255.2931,60.4551733 256.1646,58.80504 C256.7736,57.6565956 258.0456,56.9085956 259.1271,57.0597067" id="Fill-18" fill="#231F20"></path>
            <path d="M242.25495,66.2230844 L242.25495,63.9836178 C242.66445,63.9352622 243.05145,63.9125956 243.43095,63.8400622 C244.53045,63.6360622 245.03595,63.0799733 245.14395,61.9677956 C245.18445,61.5446844 245.20245,61.1185511 245.20245,60.6924178 C245.20845,54.3517956 245.20995,48.0096622 245.20095,41.66904 C245.19945,41.1356178 245.17545,40.59464 245.08095,40.0702844 C244.89195,39.0351733 244.34745,38.5516178 243.31545,38.4171289 C242.97495,38.3717956 242.63595,38.3355289 242.23095,38.2901956 C242.44095,37.5663733 242.63595,36.8621956 242.85795,36.1670844 C242.88045,36.0900178 243.04995,36.0144622 243.15195,36.0144622 C245.53245,36.0038844 247.91145,36.0053956 250.34745,36.0053956 C250.35795,36.2396178 250.37895,36.4511733 250.37895,36.66424 C250.38045,44.7245067 250.37895,52.7862844 250.38345,60.8465511 C250.38495,61.2862844 250.41495,61.72904 250.47645,62.1657511 C250.63095,63.2613067 251.35695,63.8461067 252.63195,63.9246844 C252.86145,63.9382844 253.09245,63.9261956 253.34895,63.9261956 L253.34895,66.2230844 L242.25495,66.2230844 Z" id="Fill-20" fill="#231F20"></path>
            <path d="M135.3258,51.4728267 C134.4648,51.4728267 133.6038,51.47736 132.7413,51.4713156 C132.1068,51.4682933 131.8353,51.1902489 131.8248,50.5480267 C131.8203,50.3425156 131.8113,50.1370044 131.8278,49.9330044 C131.8638,49.4600267 132.1428,49.1729156 132.6168,49.1698933 C134.4333,49.1608267 136.2498,49.1593156 138.0663,49.1714044 C138.5493,49.1744267 138.8028,49.46456 138.8178,49.9481156 C138.8613,51.38216 138.7758,51.4728267 137.3463,51.4728267 L135.3258,51.4728267 Z" id="Fill-22" fill="#231F20"></path>
            <path d="M187.4757,49.1655111 C188.3517,49.1655111 189.2292,49.1624889 190.1067,49.1670222 C190.7067,49.1700444 190.9647,49.4254222 190.9857,50.0177778 C191.0307,51.3415111 190.9032,51.4729778 189.5757,51.4729778 C188.0397,51.4729778 186.5067,51.4729778 184.9707,51.4714667 C184.2432,51.4714667 183.9852,51.2115556 183.9807,50.4786667 C183.9792,50.32 183.9747,50.1628444 183.9822,50.0041778 C184.0062,49.4526222 184.2867,49.1730667 184.8432,49.1685333 C185.7207,49.1609778 186.5982,49.1655111 187.4757,49.1655111" id="Fill-24" fill="#231F20"></path>
        </g>
    </g>
</svg>