<?xml version="1.0" encoding="UTF-8"?>
<svg width="100px" height="100px" viewBox="0 0 100 100" version="1.1" xmlns="http://www.w3.org/2000/svg" xmlns:xlink="http://www.w3.org/1999/xlink">
    <!-- Generator: Sketch 49.3 (51167) - http://www.bohemiancoding.com/sketch -->
    <title>icon_MEET_100x100</title>
    <desc>Created with Sketch.</desc>
    <defs>
        <polygon id="path-1" points="0.792063753 0 68.9999 0 68.9999 67.1576 0.792063753 67.1576"></polygon>
        <polygon id="path-3" points="0 0.90603758 17.6033804 0.90603758 17.6033804 48.1894 0 48.1894"></polygon>
    </defs>
    <g id="icon_MEET_100x100" stroke="none" stroke-width="1" fill="none" fill-rule="evenodd">
        <g id="Page-1" transform="translate(12.000000, 8.000000)">
            <path d="M39.5,1.038 C19.762,1.826 4,18.069 4,38 C4,57.932 19.762,74.174 39.5,74.962 C59.238,74.174 75,57.932 75,38 C75,18.069 59.238,1.826 39.5,1.038" id="Fill-1" fill="#0B70B7"></path>
            <g id="Group-5" transform="translate(7.000000, 0.000000)">
                <mask id="mask-2" fill="white">
                    <use xlink:href="#path-1"></use>
                </mask>
                <g id="Clip-4"></g>
                <path d="M55.0039,67.1576 C54.7219,67.1576 54.4419,67.0386 54.2429,66.8066 C53.8849,66.3866 53.9349,65.7556 54.3549,65.3966 C62.3909,58.5396 66.9999,48.5536 66.9999,37.9996 C66.9999,18.1496 50.8509,1.9996 30.9999,1.9996 C19.8179,1.9996 9.4599,7.0656 2.5809,15.8986 C2.2399,16.3346 1.6119,16.4116 1.1779,16.0736 C0.7419,15.7336 0.6639,15.1056 1.0029,14.6696 C8.2649,5.3466 19.1969,-0.0004 30.9999,-0.0004 C51.9529,-0.0004 68.9999,17.0466 68.9999,37.9996 C68.9999,49.1396 64.1349,59.6796 55.6529,66.9186 C55.4649,67.0786 55.2339,67.1576 55.0039,67.1576" id="Fill-3" fill="#000000" mask="url(#mask-2)"></path>
            </g>
            <path d="M5.4648,21.3637 C5.3038,21.3637 5.1408,21.3247 4.9878,21.2427 C4.5028,20.9787 4.3228,20.3717 4.5868,19.8857 C5.1008,18.9407 5.6608,18.0067 6.2518,17.1107 C6.5568,16.6497 7.1748,16.5207 7.6378,16.8257 C8.0988,17.1297 8.2258,17.7497 7.9218,18.2107 C7.3608,19.0607 6.8308,19.9457 6.3448,20.8417 C6.1628,21.1747 5.8188,21.3637 5.4648,21.3637" id="Fill-6" fill="#000000"></path>
            <g id="Group-10" transform="translate(0.000000, 21.000000)">
                <mask id="mask-4" fill="white">
                    <use xlink:href="#path-3"></use>
                </mask>
                <g id="Clip-9"></g>
                <path d="M16.6025,48.1894 C16.4025,48.1894 16.2005,48.1294 16.0245,48.0044 C5.9905,40.8804 -0.0005,29.2904 -0.0005,17.0004 C-0.0005,11.6024 1.1085,6.3874 3.2945,1.4984 C3.5205,0.9954 4.1085,0.7674 4.6165,0.9934 C5.1205,1.2194 5.3465,1.8114 5.1215,2.3144 C3.0495,6.9454 1.9995,11.8864 1.9995,17.0004 C1.9995,28.6434 7.6755,39.6244 17.1825,46.3744 C17.6325,46.6934 17.7385,47.3174 17.4185,47.7684 C17.2235,48.0434 16.9155,48.1894 16.6025,48.1894" id="Fill-8" fill="#000000" mask="url(#mask-4)"></path>
            </g>
            <path d="M55,53.9965 L64,80.4985 C64,82.1555 52.359,83.2485 38,83.2485 C23.641,83.2485 12,82.2795 12,80.6225 L21,53.9965 L55,53.9965 Z" id="Fill-11" fill="#FFFFFF"></path>
            <path d="M23.667,53.9965 L15,79.9985 C15,81.6555 26.641,82.9985 41,82.9985 C48.231,82.9985 54.771,82.6585 59.483,82.1085 C62.332,81.6725 64,81.1245 64,80.4975 L55,53.9965 L23.667,53.9965 Z" id="Fill-13" fill="#FDE78D"></path>
            <polygon id="Fill-15" fill="#FAB155" points="64 80.4985 55 53.9965 50 53.9965 59.408 81.7005"></polygon>
            <path d="M15,79.9999 C15,81.6569 26.641,82.9999 41,82.9999 C48.231,82.9999 54.771,82.6589 59.483,82.1089 C62.332,81.6729 64,81.1269 64,80.4999 L63.307,78.4579 C58.762,77.5849 50.474,76.9999 41,76.9999 C26.641,76.9999 15,78.3429 15,79.9999" id="Fill-17" fill="#F27063"></path>
            <path d="M60.7168,71.1498 C60.2978,71.1498 59.9078,70.8848 59.7688,70.4658 L59.1108,68.4938 C58.9358,67.9698 59.2178,67.4028 59.7418,67.2288 C60.2668,67.0548 60.8318,67.3368 61.0068,67.8608 L61.6648,69.8328 C61.8398,70.3568 61.5578,70.9228 61.0328,71.0978 C60.9288,71.1328 60.8208,71.1498 60.7168,71.1498" id="Fill-19" fill="#000000"></path>
            <path d="M38,83.9999 C31.019,83.9999 24.448,83.6859 19.501,83.1149 C11.656,82.2089 11,81.0799 11,79.9999 C11,79.8929 11.018,79.7859 11.052,79.6839 L20.052,52.6819 C20.188,52.2739 20.569,51.9969 21,51.9969 L55,51.9969 C55.431,51.9969 55.812,52.2739 55.948,52.6819 L60.059,65.0129 C60.233,65.5369 59.95,66.1039 59.427,66.2779 C58.899,66.4549 58.337,66.1679 58.162,65.6449 L54.279,53.9969 L21.721,53.9969 L13.119,79.8039 C14.925,80.7729 23.998,81.9989 38,81.9989 C52.002,81.9989 61.075,80.7739 62.881,79.8049 L60.689,73.2299 C60.515,72.7059 60.798,72.1399 61.321,71.9649 C61.85,71.7879 62.411,72.0739 62.586,72.5969 L64.948,79.6839 C64.982,79.7859 65,79.8929 65,79.9999 C65,81.0799 64.344,82.2089 56.499,83.1149 C51.552,83.6859 44.981,83.9999 38,83.9999" id="Fill-21" fill="#000000"></path>
            <path d="M55,52.9999 C42.26,54.2859 34.554,54.3819 21,52.9999 L15,42.9999 L61,42.9999 L55,52.9999 Z" id="Fill-23" fill="#FFFFFF"></path>
            <path d="M39.374,53.9897 C44.224,53.9357 49.065,53.5967 55,52.9987 L61,42.9967 L18,42.9967 L24,52.9987 C29.943,53.6047 34.762,53.9277 39.374,53.9897" id="Fill-25" fill="#F93B2A"></path>
            <polygon id="Fill-27" fill="#D63123" points="55 52.9965 61 42.9965 56 42.9965 50 52.9965"></polygon>
            <path d="M55,52.9999 L55.01,52.9999 L55,52.9999 Z M21.6,52.0559 C34.171,53.3169 41.696,53.3179 54.4,52.0549 L59.233,43.9999 L16.767,43.9999 L21.6,52.0559 Z M37.947,55.0039 C32.713,55.0039 27.497,54.6679 20.898,53.9949 C20.585,53.9629 20.305,53.7849 20.143,53.5149 L14.143,43.5149 C13.957,43.2059 13.952,42.8209 14.13,42.5069 C14.308,42.1939 14.64,41.9999 15,41.9999 L61,41.9999 C61.36,41.9999 61.692,42.1939 61.87,42.5069 C62.048,42.8209 62.043,43.2059 61.857,43.5149 L55.857,53.5149 C55.695,53.7849 55.414,53.9629 55.101,53.9949 C48.434,54.6669 43.182,55.0039 37.947,55.0039 Z" id="Fill-29" fill="#000000"></path>
            <path d="M71,35.9999 C71,44.9999 56.226,48.9999 38,48.9999 C19.774,48.9999 5,44.9999 5,35.9999 C5,31.0299 19.774,26.9999 38,26.9999 C56.226,26.9999 71,31.0299 71,35.9999" id="Fill-31" fill="#D63123"></path>
            <path d="M38,49.9999 C16.71,49.9999 4,44.7659 4,35.9999 C4,29.5049 21.518,25.9999 38,25.9999 C54.482,25.9999 72,29.5049 72,35.9999 C72,42.5699 65.262,47.0679 52.514,49.0089 C51.968,49.0919 51.458,48.7159 51.375,48.1699 C51.292,47.6249 51.667,47.1139 52.213,47.0309 C58.855,46.0209 70,43.2429 70,35.9999 C70,32.2159 56.858,27.9999 38,27.9999 C19.142,27.9999 6,32.2159 6,35.9999 C6,43.4019 18.262,47.9999 38,47.9999 C42.006,47.9999 45.79,47.8049 49.248,47.4199 C49.787,47.3559 50.291,47.7539 50.353,48.3029 C50.413,48.8529 50.018,49.3469 49.469,49.4079 C45.938,49.8009 42.08,49.9999 38,49.9999" id="Fill-33" fill="#000000"></path>
            <path d="M71,35.9999 C71,40.9709 56.226,44.9999 38,44.9999 C19.774,44.9999 5,40.9709 5,35.9999 C5,31.0299 19.774,26.9999 38,26.9999 C56.226,26.9999 71,31.0299 71,35.9999" id="Fill-35" fill="#FFFFFF"></path>
            <path d="M39.5,27.0102 C21.972,27.2242 8,31.1662 8,36.0002 C8,40.8332 21.972,44.7762 39.5,44.9892 C57.028,44.7762 71,40.8332 71,36.0002 C71,31.1662 57.028,27.2242 39.5,27.0102" id="Fill-37" fill="#F93B2A"></path>
            <path d="M38,26.9999 C36.817,26.9999 35.65,27.0179 34.5,27.0509 C51.079,27.5279 64,31.3519 64,35.9999 C64,40.6479 51.079,44.4729 34.5,44.9489 C54.145,45.5139 71,41.3139 71,35.9999 C71,31.0289 56.226,26.9999 38,26.9999" id="Fill-39" fill="#D63123"></path>
            <path d="M38,27.9999 C19.142,27.9999 6,32.2159 6,35.9999 C6,39.7839 19.142,43.9999 38,43.9999 C56.858,43.9999 70,39.7839 70,35.9999 C70,32.2159 56.858,27.9999 38,27.9999 M38,45.9999 C21.518,45.9999 4,42.4949 4,35.9999 C4,29.5049 21.518,25.9999 38,25.9999 C54.482,25.9999 72,29.5049 72,35.9999 C72,42.4949 54.482,45.9999 38,45.9999" id="Fill-41" fill="#000000"></path>
            <path d="M60,32.9999 C59.495,39.8269 15.503,40.1789 16,32.9999 C16,20.8499 25.85,10.9999 38,10.9999 C50.15,10.9999 60,20.8499 60,32.9999" id="Fill-43" fill="#FFFFFF"></path>
            <path d="M39.5,11.0565 C28.05,11.8285 19,21.3545 19,32.9995 C18.766,36.3825 28.408,38.0925 38.725,38.2415 C49.354,38.0865 59.756,36.2995 60,32.9995 C60,21.3545 50.95,11.8285 39.5,11.0565" id="Fill-45" fill="#2ABBB3"></path>
            <path d="M35.5,11.1454 C46.473,12.3874 55,21.6954 55,32.9994 C54.764,36.1954 44.999,37.9724 34.729,38.2224 C46.58,38.5114 59.726,36.7144 60,32.9994 C60,19.9544 48.668,9.6554 35.5,11.1454" id="Fill-47" fill="#7ECDEF"></path>
            <path d="M38,13.9999 C26.421,13.9999 17,23.4199 17,34.9999 C16.915,36.2639 20.435,38.3019 30.471,39.0209 C44.884,40.0519 58.702,37.6099 59,34.9559 C58.976,23.3969 49.564,13.9999 38,13.9999 M37.001,41.2359 C34.576,41.2359 32.29,41.1559 30.328,41.0159 C23.18,40.5039 14.719,39.0329 15.002,34.9309 C15,22.3179 25.317,11.9999 38,11.9999 C50.683,11.9999 61,22.3179 61,34.9999 L60.997,35.0739 C60.653,39.7239 47.531,41.2359 37.001,41.2359" id="Fill-49" fill="#000000"></path>
            <path d="M46.4697,37.8217 C46.6937,35.0147 44.5807,32.9967 41.7497,32.9967 L34.2497,32.9967 C31.3747,32.9967 29.2317,35.0737 29.5327,37.9487 C34.9127,38.3927 41.0887,38.3437 46.4697,37.8217" id="Fill-51" fill="#FFFFFF"></path>
            <path d="M32.5332,37.9496 C36.9882,38.3166 41.1332,38.3386 46.4702,37.8206 C46.6932,35.0136 44.5812,32.9966 41.7502,32.9966 L37.2502,32.9966 C34.3752,32.9966 32.2312,35.0746 32.5332,37.9496" id="Fill-53" fill="#B1B4B5"></path>
            <path d="M46.4697,37.9965 C46.6937,34.9965 44.5807,32.9965 41.7497,32.9965 L38.7497,32.9965 C41.5807,32.9965 43.6937,34.9965 43.4697,37.9965 L46.4697,37.9965 Z" id="Fill-55" fill="#5F646A"></path>
            <path d="M30.5244,37.0248 C35.3044,37.3628 40.6454,37.3238 45.4524,36.9118 C45.3614,36.2408 45.0854,35.6428 44.6344,35.1548 C43.9464,34.4088 42.9214,33.9968 41.7504,33.9968 L34.2504,33.9968 C33.0564,33.9968 32.0184,34.4208 31.3284,35.1888 C30.8684,35.6978 30.5964,36.3238 30.5244,37.0248 Z M46.4694,37.9968 L46.4794,37.9968 L46.4694,37.9968 Z M37.2024,39.2528 C34.5494,39.2528 31.9164,39.1508 29.4514,38.9478 C28.9714,38.9088 28.5884,38.5338 28.5394,38.0558 C28.3714,36.4628 28.8344,34.9688 29.8414,33.8498 C30.9174,32.6558 32.4824,31.9968 34.2504,31.9968 L41.7504,31.9968 C43.4864,31.9968 45.0324,32.6378 46.1044,33.7978 C47.1074,34.8838 47.5904,36.3418 47.4664,37.9018 C47.4274,38.3848 47.0484,38.7718 46.5664,38.8178 C43.5914,39.1068 40.3834,39.2528 37.2024,39.2528 Z" id="Fill-57" fill="#000000"></path>
            <path d="M38,36.2499 C33.292,36.2499 29.5,29.5479 29.5,23.9999 C29.5,19.7059 33.906,17.7499 38,17.7499 C42.094,17.7499 46.5,19.7059 46.5,23.9999 C46.5,29.5479 42.708,36.2499 38,36.2499" id="Fill-59" fill="#FFFFFF"></path>
            <path d="M39.5,36.0082 C43.486,34.7902 46.5,28.9442 46.5,24.0002 C46.5,20.2292 43.101,18.2622 39.5,17.8392 C35.899,18.2622 32.5,20.2292 32.5,24.0002 C32.5,28.9442 35.514,34.7902 39.5,36.0082" id="Fill-61" fill="#B1B4B5"></path>
            <path d="M36.5,17.8388 C40.101,18.2618 43.5,20.2288 43.5,23.9998 C43.5,28.9438 40.486,34.7898 36.5,36.0078 C41.947,37.6728 46.5,30.0288 46.5,23.9998 C46.5,19.2748 41.119,17.2958 36.5,17.8388" id="Fill-63" fill="#5F646A"></path>
            <path d="M38,18.7499 C34.388,18.7499 30.5,20.3929 30.5,23.9999 C30.5,29.0639 33.961,35.2499 38,35.2499 C42.039,35.2499 45.5,29.0639 45.5,23.9999 C45.5,20.3929 41.612,18.7499 38,18.7499 M38,37.2499 C32.649,37.2499 28.5,30.1269 28.5,23.9999 C28.5,19.0189 33.425,16.7499 38,16.7499 C42.575,16.7499 47.5,19.0189 47.5,23.9999 C47.5,30.1269 43.351,37.2499 38,37.2499" id="Fill-65" fill="#000000"></path>
            <path d="M44.207,24.9042 C44.207,24.9042 44.183,27.2102 42.825,28.1612 C41.468,29.1112 39.293,28.3452 39.293,28.3452 C39.293,28.3452 39.317,26.0392 40.675,25.0892 C42.032,24.1382 44.207,24.9042 44.207,24.9042" id="Fill-67" fill="#000000"></path>
            <path d="M31.793,24.9042 C31.793,24.9042 31.817,27.2102 33.175,28.1612 C34.532,29.1112 36.707,28.3452 36.707,28.3452 C36.707,28.3452 36.683,26.0392 35.325,25.0892 C33.968,24.1382 31.793,24.9042 31.793,24.9042" id="Fill-69" fill="#000000"></path>
            <path d="M42,39.9999 C42,42.2089 34,42.2089 34,39.9999 C34,37.7909 35.791,35.9999 38,35.9999 C40.209,35.9999 42,37.7909 42,39.9999" id="Fill-71" fill="#FFFFFF"></path>
            <path d="M42,39.9999 C42,38.1379 40.723,36.5869 39,36.1419 C37.277,36.5869 36,38.1379 36,39.9999 C36,40.9179 37.386,41.4489 39,41.6039 C40.614,41.4489 42,40.9179 42,39.9999" id="Fill-73" fill="#FDE78D"></path>
            <path d="M36.5,36.2968 C37.965,36.8908 39,38.3218 39,39.9998 C39,40.8218 37.891,41.3378 36.5,41.5468 C38.848,41.9018 42,41.3868 42,39.9998 C42,37.1798 39.145,35.2238 36.5,36.2968" id="Fill-75" fill="#FAB155"></path>
            <path d="M38,36.9999 C36.346,36.9999 35,38.3459 35,39.9999 C35.105,40.1579 36.137,40.6569 38,40.6569 C39.813,40.6569 40.839,40.1849 41,39.9679 C40.982,38.3279 39.644,36.9999 38,36.9999 M38,42.6569 C36.837,42.6569 35.738,42.4879 34.904,42.1809 C33.247,41.5709 33,40.5529 33,39.9999 C33,37.2429 35.243,34.9999 38,34.9999 C40.757,34.9999 43,37.2429 43,39.9999 C43,41.6139 41.037,42.6569 38,42.6569" id="Fill-77" fill="#000000"></path>
            <path d="M23,37.9999 C23,40.2089 15,40.2089 15,37.9999 C15,35.7909 16.791,33.9999 19,33.9999 C21.209,33.9999 23,35.7909 23,37.9999" id="Fill-79" fill="#FFFFFF"></path>
            <path d="M23,37.9999 C23,36.1379 21.723,34.5869 20,34.1419 C18.277,34.5869 17,36.1379 17,37.9999 C17,38.9179 18.386,39.4489 20,39.6039 C21.614,39.4489 23,38.9179 23,37.9999" id="Fill-81" fill="#FDE78D"></path>
            <path d="M17.5,34.2968 C18.965,34.8908 20,36.3218 20,37.9998 C20,38.8218 18.891,39.3378 17.5,39.5468 C19.848,39.9018 23,39.3868 23,37.9998 C23,35.1798 20.145,33.2238 17.5,34.2968" id="Fill-83" fill="#FAB155"></path>
            <path d="M19,34.9999 C17.346,34.9999 16,36.3459 16,37.9999 C16.105,38.1579 17.137,38.6569 19,38.6569 C20.813,38.6569 21.839,38.1849 22,37.9679 C21.982,36.3279 20.644,34.9999 19,34.9999 M19,40.6569 C17.837,40.6569 16.738,40.4879 15.904,40.1809 C14.247,39.5709 14,38.5529 14,37.9999 C14,35.2429 16.243,32.9999 19,32.9999 C21.757,32.9999 24,35.2429 24,37.9999 C24,39.6139 22.037,40.6569 19,40.6569" id="Fill-85" fill="#000000"></path>
            <path d="M14,32.9999 C14,35.2089 6,35.2089 6,32.9999 C6,30.7909 7.791,28.9999 10,28.9999 C12.209,28.9999 14,30.7909 14,32.9999" id="Fill-87" fill="#FFFFFF"></path>
            <path d="M14,32.9999 C14,31.1379 12.723,29.5869 11,29.1419 C9.277,29.5869 8,31.1379 8,32.9999 C8,33.9179 9.386,34.4489 11,34.6039 C12.614,34.4489 14,33.9179 14,32.9999" id="Fill-89" fill="#FDE78D"></path>
            <path d="M8.5,29.2968 C9.965,29.8908 11,31.3218 11,32.9998 C11,33.8218 9.891,34.3378 8.5,34.5468 C10.848,34.9018 14,34.3868 14,32.9998 C14,30.1798 11.145,28.2238 8.5,29.2968" id="Fill-91" fill="#FAB155"></path>
            <path d="M10,29.9999 C8.346,29.9999 7,31.3459 7,32.9999 C7.105,33.1579 8.137,33.6569 10,33.6569 C11.813,33.6569 12.839,33.1849 13,32.9679 C12.982,31.3279 11.644,29.9999 10,29.9999 M10,35.6569 C8.837,35.6569 7.738,35.4879 6.904,35.1809 C5.247,34.5709 5,33.5529 5,32.9999 C5,30.2429 7.243,27.9999 10,27.9999 C12.757,27.9999 15,30.2429 15,32.9999 C15,34.6139 13.037,35.6569 10,35.6569" id="Fill-93" fill="#000000"></path>
            <path d="M70,32.9999 C70,35.2089 62,35.2089 62,32.9999 C62,30.7909 63.791,28.9999 66,28.9999 C68.209,28.9999 70,30.7909 70,32.9999" id="Fill-95" fill="#FFFFFF"></path>
            <path d="M70,32.9999 C70,31.1379 68.723,29.5869 67,29.1419 C65.277,29.5869 64,31.1379 64,32.9999 C64,33.9179 65.386,34.4489 67,34.6039 C68.614,34.4489 70,33.9179 70,32.9999" id="Fill-97" fill="#FDE78D"></path>
            <path d="M64.5,29.2968 C65.965,29.8908 67,31.3218 67,32.9998 C67,33.8218 65.891,34.3378 64.5,34.5468 C66.848,34.9018 70,34.3868 70,32.9998 C70,30.1798 67.145,28.2238 64.5,29.2968" id="Fill-99" fill="#FAB155"></path>
            <path d="M66,29.9999 C64.346,29.9999 63,31.3459 63,32.9999 C63.105,33.1579 64.137,33.6569 66,33.6569 C67.813,33.6569 68.839,33.1849 69,32.9679 C68.982,31.3279 67.644,29.9999 66,29.9999 M66,35.6569 C64.837,35.6569 63.738,35.4879 62.904,35.1809 C61.247,34.5709 61,33.5529 61,32.9999 C61,30.2429 63.243,27.9999 66,27.9999 C68.757,27.9999 71,30.2429 71,32.9999 C71,34.6139 69.037,35.6569 66,35.6569" id="Fill-101" fill="#000000"></path>
            <path d="M61,37.9999 C61,40.2089 53,40.2089 53,37.9999 C53,35.7909 54.791,33.9999 57,33.9999 C59.209,33.9999 61,35.7909 61,37.9999" id="Fill-103" fill="#FFFFFF"></path>
            <path d="M61,37.9999 C61,36.1379 59.723,34.5869 58,34.1419 C56.277,34.5869 55,36.1379 55,37.9999 C55,38.9179 56.386,39.4489 58,39.6039 C59.614,39.4489 61,38.9179 61,37.9999" id="Fill-105" fill="#FDE78D"></path>
            <path d="M55.5,34.2968 C56.965,34.8908 58,36.3218 58,37.9998 C58,38.8218 56.891,39.3378 55.5,39.5468 C57.848,39.9018 61,39.3868 61,37.9998 C61,35.1798 58.145,33.2238 55.5,34.2968" id="Fill-107" fill="#FAB155"></path>
            <path d="M57,34.9999 C55.346,34.9999 54,36.3459 54,37.9999 C54.105,38.1579 55.137,38.6569 57,38.6569 C58.813,38.6569 59.839,38.1849 60,37.9679 C59.982,36.3279 58.644,34.9999 57,34.9999 M57,40.6569 C55.837,40.6569 54.738,40.4879 53.904,40.1809 C52.247,39.5709 52,38.5529 52,37.9999 C52,35.2429 54.243,32.9999 57,32.9999 C59.757,32.9999 62,35.2429 62,37.9999 C62,39.6139 60.037,40.6569 57,40.6569" id="Fill-109" fill="#000000"></path>
            <path d="M29.416,18.4955 C29.084,18.4955 28.759,18.3295 28.568,18.0275 C28.274,17.5605 28.415,16.9435 28.883,16.6485 L28.969,16.5945 C29.437,16.2995 30.054,16.4385 30.349,16.9045 C30.645,17.3705 30.506,17.9885 30.039,18.2845 L29.947,18.3425 C29.782,18.4465 29.598,18.4955 29.416,18.4955" id="Fill-111" fill="#FFFFFF"></path>
            <path d="M22.1787,29.6073 C22.1297,29.6073 22.0797,29.6043 22.0297,29.5963 C21.4837,29.5143 21.1077,29.0053 21.1887,28.4593 C21.7627,24.6313 23.6587,21.0773 26.5317,18.4513 C26.9377,18.0793 27.5717,18.1063 27.9447,18.5143 C28.3167,18.9223 28.2877,19.5543 27.8807,19.9273 C25.3467,22.2443 23.6727,25.3793 23.1667,28.7553 C23.0927,29.2513 22.6657,29.6073 22.1787,29.6073" id="Fill-113" fill="#FFFFFF"></path>
            <path d="M14,53.4999 C13.724,53.4999 13.5,53.2759 13.5,52.9999 L13.5,50.9999 C13.5,50.7239 13.724,50.4999 14,50.4999 C14.276,50.4999 14.5,50.7239 14.5,50.9999 L14.5,52.9999 C14.5,53.2759 14.276,53.4999 14,53.4999" id="Fill-115" fill="#FFFFFF"></path>
            <path d="M15,52.4999 L13,52.4999 C12.724,52.4999 12.5,52.2759 12.5,51.9999 C12.5,51.7239 12.724,51.4999 13,51.4999 L15,51.4999 C15.276,51.4999 15.5,51.7239 15.5,51.9999 C15.5,52.2759 15.276,52.4999 15,52.4999" id="Fill-117" fill="#FFFFFF"></path>
            <path d="M66,25.4999 C65.724,25.4999 65.5,25.2759 65.5,24.9999 L65.5,22.9999 C65.5,22.7239 65.724,22.4999 66,22.4999 C66.276,22.4999 66.5,22.7239 66.5,22.9999 L66.5,24.9999 C66.5,25.2759 66.276,25.4999 66,25.4999" id="Fill-119" fill="#FFFFFF"></path>
            <path d="M67,24.4999 L65,24.4999 C64.724,24.4999 64.5,24.2759 64.5,23.9999 C64.5,23.7239 64.724,23.4999 65,23.4999 L67,23.4999 C67.276,23.4999 67.5,23.7239 67.5,23.9999 C67.5,24.2759 67.276,24.4999 67,24.4999" id="Fill-121" fill="#FFFFFF"></path>
            <path d="M24,12.4999 C23.724,12.4999 23.5,12.2759 23.5,11.9999 L23.5,9.9999 C23.5,9.7239 23.724,9.4999 24,9.4999 C24.276,9.4999 24.5,9.7239 24.5,9.9999 L24.5,11.9999 C24.5,12.2759 24.276,12.4999 24,12.4999" id="Fill-123" fill="#FFFFFF"></path>
            <path d="M25,11.4999 L23,11.4999 C22.724,11.4999 22.5,11.2759 22.5,10.9999 C22.5,10.7239 22.724,10.4999 23,10.4999 L25,10.4999 C25.276,10.4999 25.5,10.7239 25.5,10.9999 C25.5,11.2759 25.276,11.4999 25,11.4999" id="Fill-125" fill="#FFFFFF"></path>
        </g>
    </g>
</svg>