<?xml version="1.0" encoding="UTF-8"?>
<svg width="100px" height="100px" viewBox="0 0 100 100" version="1.1" xmlns="http://www.w3.org/2000/svg" xmlns:xlink="http://www.w3.org/1999/xlink">
    <!-- Generator: Sketch 49.3 (51167) - http://www.bohemiancoding.com/sketch -->
    <title>icon_BE_100x100</title>
    <desc>Created with Sketch.</desc>
    <defs>
        <polygon id="path-1" points="0 86.0035 86.004 86.0035 86.004 0.0005 0 0.0005"></polygon>
    </defs>
    <g id="icon_BE_100x100" stroke="none" stroke-width="1" fill="none" fill-rule="evenodd">
        <g id="Page-1" transform="translate(7.000000, 7.000000)">
            <path d="M21,59 L23.35,59 C27.46,62 32.591,64 38,64 C43.407,64 48.539,62 52.65,59 L56.109,59 C57.447,59 58.696,58.333 59.438,57.221 L69.76,41.743 C70.1,41.232 70.19,40.593 70,40.013 C63.813,20.873 65.749,26.886 64.114,21.811 C63.836,21.534 63.558,21.257 63.271,20.989 L55.66,17.184 C54.663,16.685 54.073,15.703 54.018,14.66 C49.594,12.532 44.687,11.249 39.5,11.041 C19.762,11.83 4,28.072 4,48.003 C4,54.253 5.551,60.138 8.287,65.3 C11.207,61.475 15.809,59 21,59" id="Fill-1" fill="#0B70B7"></path>
            <path d="M82.1021,48.4604 C82.1011,48.4614 82.1001,48.4624 82.1001,48.4634 C82.1331,48.4144 82.1621,48.3714 82.1831,48.3384 L82.2191,48.2844 C82.2081,48.3014 82.1961,48.3194 82.1831,48.3384 C82.1601,48.3734 82.1361,48.4094 82.1181,48.4364 C82.1421,48.4014 82.1811,48.3424 82.2411,48.2524 C82.2451,48.2454 82.2501,48.2384 82.2541,48.2314 C82.4671,47.9134 82.9191,47.2344 83.8201,45.8834 C85.0101,44.1034 85.3201,41.8834 84.6601,39.8534 C84.6541,39.8344 75.9741,13.0014 73.6601,5.8534 C72.8661,3.3984 70.8411,1.6884 68.4931,1.1714 C64.4141,2.0794 62.0811,6.2744 63.3391,10.1544 L64.3701,13.3444 L61.4911,11.9004 C61.2771,11.7934 58.5431,11.9254 58.5431,11.9254 C58.0721,12.1754 57.6641,12.5434 57.3871,13.0374 C56.5411,14.5474 57.1411,16.4254 58.6601,17.1854 L66.9591,21.3354 C73.4141,41.3704 73.5151,40.6114 72.7601,41.7454 L62.4371,57.7214 C61.6951,58.8344 60.4461,60.0004 59.1091,60.0004 L55.6491,60.0004 C51.0311,63.0004 45.4581,64.8154 39.4821,64.4404 C33.4221,64.8114 27.8031,62.7014 23.3831,59.2754 C17.4041,59.5034 12.2691,62.8714 9.7231,67.9054 C16.0231,77.8494 26.9391,84.5014 39.4551,85.0174 C52.4201,84.5134 63.6801,77.3284 69.8851,66.8174 C78.9371,53.2384 81.4781,49.4114 82.0881,48.4964 C82.0881,48.4964 82.0931,48.4734 82.1021,48.4604" id="Fill-3" fill="#FAB155"></path>
            <path d="M18.9019,77.6655 L18.3129,71.0035 L17.1859,76.3065 C17.7449,76.7755 18.3169,77.2285 18.9019,77.6655" id="Fill-5" fill="#F27063"></path>
            <mask id="mask-2" fill="white">
                <use xlink:href="#path-1"></use>
            </mask>
            <g id="Clip-8"></g>
            <polygon id="Fill-7" fill="#F27063" mask="url(#mask-2)" points="38 85.0005 40 85.0005 40 64.0005 38 64.0005"></polygon>
            <path d="M84.6602,39.8535 C84.6542,39.8335 75.9732,13.0015 73.6602,5.8535 C72.8662,3.3985 70.8412,1.6885 68.4932,1.1715 C67.3562,1.4245 66.3612,1.9395 65.5352,2.6255 L77.9852,40.3765 C78.5832,42.1895 78.2842,44.1765 77.1782,45.7315 C72.5042,52.3045 60.1252,69.7155 60.1252,69.7575 L57.3712,79.5155 C62.5082,76.3575 66.8162,71.9845 69.8852,66.7865 C82.9502,47.1875 70.7582,65.4765 83.8202,45.8835 C85.0102,44.1035 85.3202,41.8835 84.6602,39.8535" id="Fill-9" fill="#F27063" mask="url(#mask-2)"></path>
            <path d="M71.5425,65.2979 C71.3525,65.2979 71.1595,65.2439 70.9885,65.1299 C70.5295,64.8229 70.4055,64.2029 70.7115,63.7429 L72.4285,61.1689 C72.7345,60.7089 73.3545,60.5839 73.8145,60.8909 C74.2745,61.1979 74.3985,61.8189 74.0925,62.2779 L72.3755,64.8529 C72.1825,65.1419 71.8655,65.2979 71.5425,65.2979" id="Fill-10" fill="#000000" mask="url(#mask-2)"></path>
            <path d="M37.9893,85.9917 C24.8813,85.9917 12.9123,79.4167 5.8783,68.3147 C5.6903,68.0177 5.6723,67.6407 5.8313,67.3267 C8.7403,61.5747 14.5533,57.9997 21.0003,57.9997 L23.3503,57.9997 C23.5723,57.9997 23.7883,58.0757 23.9643,58.2127 C27.9343,61.3017 32.9193,63.0027 38.0003,63.0027 C43.0803,63.0027 48.0653,61.3007 52.0363,58.2117 C52.2113,58.0757 52.4273,57.9997 52.6503,57.9997 L56.1093,57.9997 C57.1143,57.9997 58.0483,57.5027 58.6053,56.6667 L68.9273,41.1877 C69.0973,40.9327 69.1433,40.6107 69.0503,40.3237 C65.5153,29.3917 64.6323,26.6647 64.2183,25.3917 L63.1373,22.0397 L55.2133,18.0777 C54.2403,17.5917 53.4983,16.7167 53.1793,15.6777 C52.8553,14.6247 52.9743,13.5127 53.5153,12.5477 C54.5423,10.7117 56.9753,10.0217 58.9403,11.0057 L59.6853,11.3797 L59.3883,10.4607 C58.7303,8.4317 58.9043,6.2657 59.8783,4.3627 C60.8523,2.4597 62.5093,1.0497 64.5423,0.3917 C66.5713,-0.2653 68.7363,-0.0923 70.6403,0.8817 C72.5443,1.8557 73.9543,3.5117 74.6123,5.5457 L85.6113,39.5457 C86.3693,41.8787 86.0203,44.3917 84.6513,46.4387 L75.7583,59.7797 C75.4503,60.2377 74.8293,60.3627 74.3713,60.0567 C73.9113,59.7507 73.7873,59.1297 74.0933,58.6697 L82.9883,45.3287 C84.0143,43.7927 84.2773,41.9107 83.7093,40.1627 L72.7093,6.1617 C72.2153,4.6357 71.1573,3.3927 69.7293,2.6617 C68.3023,1.9317 66.6793,1.8027 65.1583,2.2947 C63.6323,2.7877 62.3893,3.8457 61.6583,5.2737 C60.9283,6.7007 60.7983,8.3247 61.2913,9.8447 L62.3223,13.0357 C62.4463,13.4197 62.3273,13.8397 62.0213,14.1017 C61.7153,14.3657 61.2823,14.4177 60.9223,14.2377 L58.0433,12.7937 C57.0213,12.2807 55.7733,12.6087 55.2603,13.5237 C54.9893,14.0087 54.9293,14.5637 55.0913,15.0897 C55.2533,15.6157 55.6143,16.0427 56.1073,16.2887 L64.4073,20.4387 C64.6473,20.5587 64.8293,20.7707 64.9113,21.0267 L66.1213,24.7747 C66.5343,26.0487 67.4183,28.7757 70.9513,39.7057 C71.2333,40.5667 71.0993,41.5367 70.5923,42.2987 L60.2693,57.7757 C59.3403,59.1697 57.7843,59.9997 56.1093,59.9997 L52.9893,59.9997 C48.7153,62.9997 43.4063,64.9997 38.0003,64.9997 C32.5933,64.9997 27.2843,62.9997 23.0113,59.9997 L21.0003,59.9997 C15.5013,59.9997 10.5253,62.9477 7.8813,67.7287 C14.6903,78.1147 26.1383,84.1787 38.5753,83.9857 C51.2123,83.7867 62.5943,77.1677 69.0233,66.2777 C69.3043,65.8017 69.9173,65.6437 70.3933,65.9247 C70.8683,66.2057 71.0273,66.8187 70.7463,67.2947 C63.9603,78.7887 51.9453,85.7767 38.6073,85.9867 C38.4013,85.9897 38.1953,85.9917 37.9893,85.9917" id="Fill-11" fill="#000000" mask="url(#mask-2)"></path>
            <path d="M38,86.0034 C37.448,86.0034 37,85.5554 37,85.0034 L37,75.0034 C37,74.4514 37.448,74.0034 38,74.0034 C38.552,74.0034 39,74.4514 39,75.0034 L39,85.0034 C39,85.5554 38.552,86.0034 38,86.0034" id="Fill-12" fill="#000000" mask="url(#mask-2)"></path>
            <path d="M38,73.0034 C37.448,73.0034 37,72.5554 37,72.0034 L37,70.0034 C37,69.4514 37.448,69.0034 38,69.0034 C38.552,69.0034 39,69.4514 39,70.0034 L39,72.0034 C39,72.5554 38.552,73.0034 38,73.0034" id="Fill-13" fill="#000000" mask="url(#mask-2)"></path>
            <path d="M38,68.0034 C37.448,68.0034 37,67.5554 37,67.0034 L37,64.0034 C37,63.4514 37.448,63.0034 38,63.0034 C38.552,63.0034 39,63.4514 39,64.0034 L39,67.0034 C39,67.5554 38.552,68.0034 38,68.0034" id="Fill-14" fill="#000000" mask="url(#mask-2)"></path>
            <path d="M52.3857,59.1919 C51.5427,57.6709 50.8897,56.0199 50.5037,54.2779 C43.3167,60.5829 32.6747,60.5819 25.4887,54.2709 C25.1027,56.0139 24.4567,57.6709 23.6157,59.1929 C32.1057,65.6089 43.9007,65.6059 52.3857,59.1919" id="Fill-15" fill="#FFFFFF" mask="url(#mask-2)"></path>
            <path d="M27.9683,56.1016 C27.4253,57.7136 26.6663,59.2286 25.7433,60.6076 C33.9973,65.5506 44.5863,65.0876 52.3853,59.1916 C51.5433,57.6706 50.8893,56.0196 50.5043,54.2776 C44.1033,59.8936 34.9673,60.4926 27.9683,56.1016" id="Fill-16" fill="#B1B4B5" mask="url(#mask-2)"></path>
            <path d="M38,58.9956 L38,63.9816042 C43,63.9846 48.139,62.3966 52.381,59.1906 C51.657,57.8836 51.089,55.9996 50.694,54.9996 L49.605,54.9996 C46.183,57.9996 42,58.9976 38,58.9956" id="Fill-17" fill="#5F646A" mask="url(#mask-2)"></path>
            <path d="M38,64.9927 C32.712,64.9927 27.426,63.3257 23.013,59.9917 L22.322,59.4687 L22.741,58.7097 C23.562,57.2227 24.158,55.6567 24.512,54.0547 L26.465,54.4877 C26.131,55.9957 25.607,57.4737 24.903,58.8927 C32.731,64.3617 43.271,64.3617 51.098,58.8917 C50.386,57.4657 49.859,55.9897 49.527,54.4937 L51.48,54.0617 C51.831,55.6447 52.43,57.2077 53.26,58.7067 L53.681,59.4667 L52.989,59.9897 C48.577,63.3247 43.288,64.9927 38,64.9927" id="Fill-18" fill="#000000" mask="url(#mask-2)"></path>
            <path d="M57,40.0034 C57,50.4974 48.493,59.0034 38,59.0034 C27.507,59.0034 19,50.4974 19,40.0034 C19,29.5104 27.507,21.0034 38,21.0034 C48.493,21.0034 57,29.5104 57,40.0034" id="Fill-19" fill="#FFFFFF" mask="url(#mask-2)"></path>
            <path d="M39.5,21.0791 C29.71,21.8461 22,30.0171 22,40.0031 C22,49.9911 29.71,58.1611 39.5,58.9281 C49.29,58.1611 57,49.9911 57,40.0031 C57,30.0171 49.29,21.8461 39.5,21.0791" id="Fill-20" fill="#B1B4B5" mask="url(#mask-2)"></path>
            <path d="M38,21.0034 C37.15,21.0034 36.32,21.0784 35.5,21.1864 C44.809,22.4134 52,30.3594 52,40.0034 C52,49.6474 44.809,57.5934 35.5,58.8204 C36.32,58.9284 37.15,59.0034 38,59.0034 C48.493,59.0034 57,50.4974 57,40.0034 C57,29.5104 48.493,21.0034 38,21.0034" id="Fill-21" fill="#5F646A" mask="url(#mask-2)"></path>
            <path d="M38,60.0034 C35.873,60.0034 33.777,59.6704 31.772,59.0124 C31.248,58.8404 30.962,58.2754 31.134,57.7514 C31.306,57.2274 31.87,56.9404 32.396,57.1124 C34.199,57.7034 36.084,58.0034 38,58.0034 C47.925,58.0034 56,49.9284 56,40.0034 C56,30.0784 47.925,22.0034 38,22.0034 C28.075,22.0034 20,30.0784 20,40.0034 C20,46.7954 23.765,52.9414 29.826,56.0414 C30.318,56.2934 30.512,56.8954 30.261,57.3874 C30.009,57.8784 29.408,58.0734 28.915,57.8214 C22.183,54.3784 18,47.5504 18,40.0034 C18,28.9754 26.972,20.0034 38,20.0034 C49.028,20.0034 58,28.9754 58,40.0034 C58,51.0314 49.028,60.0034 38,60.0034" id="Fill-22" fill="#000000" mask="url(#mask-2)"></path>
            <path d="M39.5024,33.0078 C32.3954,33.0448 25.0094,33.7788 25.0094,40.0038 C25.0094,43.3628 26.0004,46.4638 28.0004,48.9638 L28.0004,48.9738 C30.8964,52.5078 34.8074,54.8168 39.5014,54.9738 C44.2124,54.8168 48.0004,52.5078 51.0004,48.9738 L51.0004,48.9638 C53.0004,46.4638 53.9904,43.3628 53.9904,40.0038 C53.9904,33.6638 46.3074,33.0428 39.5024,33.0078" id="Fill-23" fill="#2ABBB3" mask="url(#mask-2)"></path>
            <path d="M37.5273,33.043 C43.7443,33.224 49.9903,34.287 49.9903,40.003 C49.9903,43.363 49.0003,46.463 47.0003,48.963 L47.0003,48.974 C44.4383,51.991 41.2963,54.103 37.5013,54.757 C42.7073,55.65 47.5253,53.066 51.0003,48.974 L51.0003,48.963 C53.0003,46.463 53.9903,43.363 53.9903,40.003 C53.9903,33.082 44.5203,32.839 37.5273,33.043" id="Fill-24" fill="#7ECDEF" mask="url(#mask-2)"></path>
            <path d="M38.0098,56.0034 C33.0768,56.0034 28.6568,53.7924 25.2268,49.6074 L24.9998,49.3074 C23.0428,46.7284 22.0098,43.5204 22.0098,40.0034 C22.0078,39.8844 22.0098,39.7954 22.0168,39.7134 C22.2348,32.9394 29.8268,32.0034 38.0028,32.0034 C46.1768,32.0034 53.7688,32.9384 53.9888,39.7094 C53.9988,39.7974 54.0008,39.8874 54.0008,39.9854 C54.0008,43.4754 52.9018,46.7814 50.8218,49.5624 L49.2198,48.3644 C51.0388,45.9324 52.0008,43.0404 52.0008,40.0034 L51.9918,39.8114 C51.8778,35.6864 47.8248,34.0034 38.0028,34.0034 C28.1808,34.0034 24.1288,35.6864 24.0148,39.8104 L24.0048,39.9274 C24.0098,43.1904 24.9678,46.0724 26.7808,48.3384 L26.9768,48.5844 C29.1228,51.1134 32.7308,54.0034 38.0098,54.0034 C42.4548,54.0034 46.5408,51.9514 49.2198,48.3744 L50.8208,49.5724 C47.7608,53.6594 43.0918,56.0034 38.0098,56.0034" id="Fill-25" fill="#000000" mask="url(#mask-2)"></path>
            <path d="M7.3745,28.2329 C7.1815,28.2329 6.9855,28.1769 6.8135,28.0599 C6.3565,27.7499 6.2375,27.1279 6.5485,26.6709 C13.6415,16.2339 25.3985,10.0039 37.9995,10.0039 C42.6305,10.0039 47.1555,10.8269 51.4485,12.4519 C51.9655,12.6479 52.2255,13.2249 52.0295,13.7409 C51.8345,14.2569 51.2565,14.5189 50.7405,14.3219 C46.6745,12.7839 42.3875,12.0039 37.9995,12.0039 C26.0615,12.0039 14.9225,17.9069 8.2025,27.7949 C8.0095,28.0799 7.6945,28.2329 7.3745,28.2329" id="Fill-26" fill="#000000" mask="url(#mask-2)"></path>
            <path d="M4.4146,33.456 C4.2736,33.456 4.1306,33.426 3.9946,33.363 C3.4936,33.131 3.2756,32.536 3.5076,32.035 C3.9306,31.125 4.3946,30.22 4.8896,29.344 C5.1616,28.863 5.7726,28.694 6.2516,28.965 C6.7326,29.236 6.9026,29.846 6.6306,30.327 C6.1626,31.157 5.7226,32.015 5.3226,32.877 C5.1526,33.242 4.7916,33.456 4.4146,33.456" id="Fill-27" fill="#000000" mask="url(#mask-2)"></path>
            <path d="M2.6621,34.0039 C2.4691,34.5219 2.7311,35.0979 3.2491,35.2909 C3.7661,35.4839 4.3431,35.2219 4.5361,34.7039 C4.7291,34.1869 4.4671,33.6099 3.9491,33.4169 C3.4321,33.2239 2.8551,33.4859 2.6621,34.0039" id="Fill-28" fill="#000000" mask="url(#mask-2)"></path>
            <path d="M6.7241,68.7798 C6.3931,68.7798 6.0691,68.6158 5.8781,68.3148 C2.0331,62.2458 0.0001,55.2218 0.0001,48.0038 C0.0001,44.5758 0.4561,41.1788 1.3561,37.9058 C1.5031,37.3738 2.0531,37.0618 2.5861,37.2068 C3.1191,37.3538 3.4321,37.9038 3.2851,38.4368 C2.4321,41.5368 2.0001,44.7558 2.0001,48.0038 C2.0001,54.8418 3.9251,61.4958 7.5681,67.2448 C7.8631,67.7108 7.7251,68.3288 7.2581,68.6248 C7.0921,68.7298 6.9071,68.7798 6.7241,68.7798" id="Fill-29" fill="#000000" mask="url(#mask-2)"></path>
            <path d="M65.0405,24.6743 L64.4195,22.7733 C67.1535,21.8813 67.9365,21.6223 69.8135,21.0043 L77.7175,18.4033 L78.3415,20.3033 L70.4395,22.9033 C68.5605,23.5223 67.7765,23.7813 65.0405,24.6743" id="Fill-30" fill="#000000" mask="url(#mask-2)"></path>
            <path d="M35.3057,51.6694 C35.2237,51.6694 35.1417,51.6594 35.0597,51.6394 C31.9547,50.8544 29.2447,48.8094 27.6247,46.0284 C27.3467,45.5514 27.5087,44.9394 27.9857,44.6614 C28.4617,44.3834 29.0757,44.5444 29.3527,45.0214 C30.7037,47.3404 32.9627,49.0454 35.5497,49.6994 C36.0857,49.8354 36.4097,50.3784 36.2747,50.9144 C36.1597,51.3674 35.7527,51.6694 35.3057,51.6694" id="Fill-31" fill="#FFFFFF" mask="url(#mask-2)"></path>
            <path d="M27.2026,43.1157 C26.7336,43.1157 26.3156,42.7847 26.2226,42.3077 C26.0746,41.5537 25.9996,40.7787 25.9996,40.0037 C25.9996,39.4507 26.4476,39.0037 26.9996,39.0037 C27.5526,39.0037 27.9996,39.4507 27.9996,40.0037 C27.9996,40.6507 28.0616,41.2967 28.1846,41.9237 C28.2906,42.4657 27.9376,42.9907 27.3956,43.0967 C27.3306,43.1097 27.2656,43.1157 27.2026,43.1157" id="Fill-32" fill="#FFFFFF" mask="url(#mask-2)"></path>
            <path d="M11,52.5034 C10.724,52.5034 10.5,52.2794 10.5,52.0034 L10.5,50.0034 C10.5,49.7274 10.724,49.5034 11,49.5034 C11.276,49.5034 11.5,49.7274 11.5,50.0034 L11.5,52.0034 C11.5,52.2794 11.276,52.5034 11,52.5034" id="Fill-33" fill="#FFFFFF" mask="url(#mask-2)"></path>
            <path d="M12,51.5034 L10,51.5034 C9.724,51.5034 9.5,51.2794 9.5,51.0034 C9.5,50.7274 9.724,50.5034 10,50.5034 L12,50.5034 C12.276,50.5034 12.5,50.7274 12.5,51.0034 C12.5,51.2794 12.276,51.5034 12,51.5034" id="Fill-34" fill="#FFFFFF" mask="url(#mask-2)"></path>
            <path d="M62,42.5034 C61.724,42.5034 61.5,42.2794 61.5,42.0034 L61.5,40.0034 C61.5,39.7274 61.724,39.5034 62,39.5034 C62.276,39.5034 62.5,39.7274 62.5,40.0034 L62.5,42.0034 C62.5,42.2794 62.276,42.5034 62,42.5034" id="Fill-35" fill="#FFFFFF" mask="url(#mask-2)"></path>
            <path d="M63,41.5034 L61,41.5034 C60.724,41.5034 60.5,41.2794 60.5,41.0034 C60.5,40.7274 60.724,40.5034 61,40.5034 L63,40.5034 C63.276,40.5034 63.5,40.7274 63.5,41.0034 C63.5,41.2794 63.276,41.5034 63,41.5034" id="Fill-36" fill="#FFFFFF" mask="url(#mask-2)"></path>
            <path d="M25,22.5034 C24.724,22.5034 24.5,22.2794 24.5,22.0034 L24.5,20.0034 C24.5,19.7274 24.724,19.5034 25,19.5034 C25.276,19.5034 25.5,19.7274 25.5,20.0034 L25.5,22.0034 C25.5,22.2794 25.276,22.5034 25,22.5034" id="Fill-37" fill="#FFFFFF" mask="url(#mask-2)"></path>
            <path d="M26,21.5034 L24,21.5034 C23.724,21.5034 23.5,21.2794 23.5,21.0034 C23.5,20.7274 23.724,20.5034 24,20.5034 L26,20.5034 C26.276,20.5034 26.5,20.7274 26.5,21.0034 C26.5,21.2794 26.276,21.5034 26,21.5034" id="Fill-38" fill="#FFFFFF" mask="url(#mask-2)"></path>
        </g>
    </g>
</svg>