<?xml version="1.0" encoding="UTF-8"?>
<svg width="100px" height="100px" viewBox="0 0 100 100" version="1.1" xmlns="http://www.w3.org/2000/svg" xmlns:xlink="http://www.w3.org/1999/xlink">
    <!-- Generator: Sketch 49.3 (51167) - http://www.bohemiancoding.com/sketch -->
    <title>icon_GO_100x100</title>
    <desc>Created with Sketch.</desc>
    <defs>
        <path d="M0,37.5 C0,57.432 15.762,73.674 35.5,74.462 C55.238,73.674 71,57.432 71,37.5 C71,17.569 55.238,1.326 35.5,0.538 C15.762,1.326 0,17.569 0,37.5 Z" id="path-1"></path>
        <path d="M0,37.5 C0,57.432 15.762,73.674 35.5,74.462 C55.238,73.674 71,57.432 71,37.5 C71,17.569 55.238,1.326 35.5,0.538 C15.762,1.326 0,17.569 0,37.5" id="path-3"></path>
        <path d="M0,37.5 C0,57.432 15.762,73.674 35.5,74.462 C55.238,73.674 71,57.432 71,37.5 C71,17.569 55.238,1.326 35.5,0.538 C15.762,1.326 0,17.569 0,37.5" id="path-5"></path>
        <path d="M0,37.5 C0,57.432 15.762,73.674 35.5,74.462 C55.238,73.674 71,57.432 71,37.5 C71,17.569 55.238,1.326 35.5,0.538 C15.762,1.326 0,17.569 0,37.5" id="path-7"></path>
        <path d="M0,37.5 C0,57.432 15.762,73.674 35.5,74.462 C55.238,73.674 71,57.432 71,37.5 C71,17.569 55.238,1.326 35.5,0.538 C15.762,1.326 0,17.569 0,37.5" id="path-9"></path>
        <path d="M0,37.5 C0,57.432 15.762,73.674 35.5,74.462 C55.238,73.674 71,57.432 71,37.5 C71,17.569 55.238,1.326 35.5,0.538 C15.762,1.326 0,17.569 0,37.5" id="path-11"></path>
        <path d="M0,37.5 C0,57.432 15.762,73.674 35.5,74.462 C55.238,73.674 71,57.432 71,37.5 C71,17.569 55.238,1.326 35.5,0.538 C15.762,1.326 0,17.569 0,37.5" id="path-13"></path>
        <path d="M0,37.5 C0,57.432 15.762,73.674 35.5,74.462 C55.238,73.674 71,57.432 71,37.5 C71,17.569 55.238,1.326 35.5,0.538 C15.762,1.326 0,17.569 0,37.5" id="path-15"></path>
        <path d="M0,37.5 C0,57.432 15.762,73.674 35.5,74.462 C55.238,73.674 71,57.432 71,37.5 C71,17.569 55.238,1.326 35.5,0.538 C15.762,1.326 0,17.569 0,37.5" id="path-17"></path>
        <path d="M0,37.5 C0,57.432 15.762,73.674 35.5,74.462 C55.238,73.674 71,57.432 71,37.5 C71,17.569 55.238,1.326 35.5,0.538 C15.762,1.326 0,17.569 0,37.5" id="path-19"></path>
        <path d="M0,37.5 C0,57.432 15.762,73.674 35.5,74.462 C55.238,73.674 71,57.432 71,37.5 C71,17.569 55.238,1.326 35.5,0.538 C15.762,1.326 0,17.569 0,37.5" id="path-21"></path>
        <path d="M0,37.5 C0,57.432 15.762,73.674 35.5,74.462 C55.238,73.674 71,57.432 71,37.5 C71,17.569 55.238,1.326 35.5,0.538 C15.762,1.326 0,17.569 0,37.5" id="path-23"></path>
        <path d="M0,37.5 C0,57.432 15.762,73.674 35.5,74.462 C55.238,73.674 71,57.432 71,37.5 C71,17.569 55.238,1.326 35.5,0.538 C15.762,1.326 0,17.569 0,37.5" id="path-25"></path>
        <path d="M0,37.5 C0,57.432 15.762,73.674 35.5,74.462 C55.238,73.674 71,57.432 71,37.5 C71,17.569 55.238,1.326 35.5,0.538 C15.762,1.326 0,17.569 0,37.5" id="path-27"></path>
        <path d="M0,37.5 C0,57.432 15.762,73.674 35.5,74.462 C55.238,73.674 71,57.432 71,37.5 C71,17.569 55.238,1.326 35.5,0.538 C15.762,1.326 0,17.569 0,37.5" id="path-29"></path>
        <path d="M0,37.5 C0,57.432 15.762,73.674 35.5,74.462 C55.238,73.674 71,57.432 71,37.5 C71,17.569 55.238,1.326 35.5,0.538 C15.762,1.326 0,17.569 0,37.5" id="path-31"></path>
        <path d="M0,37.5 C0,57.432 15.762,73.674 35.5,74.462 C55.238,73.674 71,57.432 71,37.5 C71,17.569 55.238,1.326 35.5,0.538 C15.762,1.326 0,17.569 0,37.5" id="path-33"></path>
        <path d="M0,37.5 C0,57.432 15.762,73.674 35.5,74.462 C55.238,73.674 71,57.432 71,37.5 C71,17.569 55.238,1.326 35.5,0.538 C15.762,1.326 0,17.569 0,37.5" id="path-35"></path>
        <path d="M0,37.5 C0,57.432 15.762,73.674 35.5,74.462 C55.238,73.674 71,57.432 71,37.5 C71,17.569 55.238,1.326 35.5,0.538 C15.762,1.326 0,17.569 0,37.5" id="path-37"></path>
        <path d="M0,37.5 C0,57.432 15.762,73.674 35.5,74.462 C55.238,73.674 71,57.432 71,37.5 C71,17.569 55.238,1.326 35.5,0.538 C15.762,1.326 0,17.569 0,37.5" id="path-39"></path>
        <path d="M0,37.5 C0,57.432 15.762,73.674 35.5,74.462 C55.238,73.674 71,57.432 71,37.5 C71,17.569 55.238,1.326 35.5,0.538 C15.762,1.326 0,17.569 0,37.5" id="path-41"></path>
        <path d="M0,37.5 C0,57.432 15.762,73.674 35.5,74.462 C55.238,73.674 71,57.432 71,37.5 C71,17.569 55.238,1.326 35.5,0.538 C15.762,1.326 0,17.569 0,37.5" id="path-43"></path>
        <path d="M0,37.5 C0,57.432 15.762,73.674 35.5,74.462 C55.238,73.674 71,57.432 71,37.5 C71,17.569 55.238,1.326 35.5,0.538 C15.762,1.326 0,17.569 0,37.5" id="path-45"></path>
        <path d="M0,37.5 C0,57.432 15.762,73.674 35.5,74.462 C55.238,73.674 71,57.432 71,37.5 C71,17.569 55.238,1.326 35.5,0.538 C15.762,1.326 0,17.569 0,37.5" id="path-47"></path>
        <path d="M0,37.5 C0,57.432 15.762,73.674 35.5,74.462 C55.238,73.674 71,57.432 71,37.5 C71,17.569 55.238,1.326 35.5,0.538 C15.762,1.326 0,17.569 0,37.5" id="path-49"></path>
        <path d="M0,37.5 C0,57.432 15.762,73.674 35.5,74.462 C55.238,73.674 71,57.432 71,37.5 C71,17.569 55.238,1.326 35.5,0.538 C15.762,1.326 0,17.569 0,37.5" id="path-51"></path>
        <path d="M0,37.5 C0,57.432 15.762,73.674 35.5,74.462 C55.238,73.674 71,57.432 71,37.5 C71,17.569 55.238,1.326 35.5,0.538 C15.762,1.326 0,17.569 0,37.5" id="path-53"></path>
        <path d="M0,37.5 C0,57.432 15.762,73.674 35.5,74.462 C55.238,73.674 71,57.432 71,37.5 C71,17.569 55.238,1.326 35.5,0.538 C15.762,1.326 0,17.569 0,37.5" id="path-55"></path>
        <path d="M0,37.5 C0,57.432 15.762,73.674 35.5,74.462 C55.238,73.674 71,57.432 71,37.5 C71,17.569 55.238,1.326 35.5,0.538 C15.762,1.326 0,17.569 0,37.5" id="path-57"></path>
        <polygon id="path-59" points="0.479593562 0.746662508 7 0.746662508 7 31.5185 0.479593562 31.5185"></polygon>
    </defs>
    <g id="icon_GO_100x100" stroke="none" stroke-width="1" fill="none" fill-rule="evenodd">
        <g id="Page-1" transform="translate(12.000000, 6.000000)">
            <path d="M73.3359,60.018 C74.4179,56.538 74.9999,52.838 74.9999,49 C74.9999,29.047 59.2569,12.824 39.4999,12.038 C19.7429,12.824 3.9999,29.047 3.9999,49 C3.9999,51.869 4.3359,54.656 4.9519,57.336 C6.9589,58.029 8.4839,59.748 8.8899,61.87 C9.9499,60.15 11.8399,59 13.9999,59 C17.3689,59 19.9999,61.746 19.9999,65 L19.9999,65.09 C20.3199,65.04 20.6599,65 20.9999,65 C24.3099,65 26.9999,67.69 26.9999,71 C28.5009,71 29.9799,72.097 29.9799,74.19 C30.0199,74.18 30.0599,74.168 30.0899,74.158 C31.9099,71.559 32.9999,67.997 32.9999,64.997 L42.9999,64.997 C42.9999,67.997 44.0599,71.548 45.8599,74.138 C46.0999,74.208 46.3299,74.309 46.5399,74.439 C46.3379,71.417 48.5939,69.499 50.9999,69.499 C52.4579,69.499 53.7619,70.219 54.5199,71.23 C54.5199,70.776 54.4609,71.417 54.5199,70.54 C54.5199,68.188 57.6809,65.33 60.9999,66.99 C61.0099,63.68 63.6899,61 66.9999,61 C68.1799,61 69.2799,61.35 70.1999,61.93 C70.8079,60.383 71.9469,60.013 73.3359,60.018" id="Fill-1" fill="#0B70B7"></path>
            <g id="Group-90" transform="translate(4.000000, 11.500000)">
                <g id="Group-5">
                    <mask id="mask-2" fill="white">
                        <use xlink:href="#path-1"></use>
                    </mask>
                    <g id="Clip-4"></g>
                    <path d="M46.2959,66.9433 C41.9199,64.0953 38.9999,59.4963 38.9999,53.4963 L28.9999,53.4963 C28.9999,57.4963 27.4469,61.2663 24.9539,64.1033 L46.2959,66.9433 Z" id="Fill-3" fill="#F27063" mask="url(#mask-2)"></path>
                </g>
                <g id="Group-8">
                    <mask id="mask-4" fill="white">
                        <use xlink:href="#path-3"></use>
                    </mask>
                    <g id="Clip-7"></g>
                    <path d="M26,62.4999 C26,64.1569 24.657,65.4999 23,65.4999 C21.343,65.4999 20,64.1569 20,62.4999 C20,60.8429 21.343,59.4999 23,59.4999 C24.657,59.4999 26,60.8429 26,62.4999" id="Fill-6" fill="#FAB155" mask="url(#mask-4)"></path>
                </g>
                <g id="Group-11">
                    <mask id="mask-6" fill="white">
                        <use xlink:href="#path-5"></use>
                    </mask>
                    <g id="Clip-10"></g>
                    <path d="M30,65.4999 C30,67.1569 28.657,68.4999 27,68.4999 C25.343,68.4999 24,67.1569 24,65.4999 C24,63.8429 25.343,62.4999 27,62.4999 C28.657,62.4999 30,63.8429 30,65.4999" id="Fill-9" fill="#FAB155" mask="url(#mask-6)"></path>
                </g>
                <g id="Group-14">
                    <mask id="mask-8" fill="white">
                        <use xlink:href="#path-7"></use>
                    </mask>
                    <g id="Clip-13"></g>
                    <path d="M26,67.4999 C26,69.1569 24.657,70.4999 23,70.4999 C21.343,70.4999 20,69.1569 20,67.4999 C20,65.8429 21.343,64.4999 23,64.4999 C24.657,64.4999 26,65.8429 26,67.4999" id="Fill-12" fill="#FAB155" mask="url(#mask-8)"></path>
                </g>
                <g id="Group-17">
                    <mask id="mask-10" fill="white">
                        <use xlink:href="#path-9"></use>
                    </mask>
                    <g id="Clip-16"></g>
                    <path d="M44,65.4999 C44,67.1569 42.657,68.4999 41,68.4999 C39.343,68.4999 38,67.1569 38,65.4999 C38,63.8429 39.343,62.4999 41,62.4999 C42.657,62.4999 44,63.8429 44,65.4999" id="Fill-15" fill="#F27063" mask="url(#mask-10)"></path>
                </g>
                <g id="Group-20">
                    <mask id="mask-12" fill="white">
                        <use xlink:href="#path-11"></use>
                    </mask>
                    <g id="Clip-19"></g>
                    <path d="M51.5,62.4999 C51.5,64.9849 49.485,66.9999 47,66.9999 C44.515,66.9999 42.5,64.9849 42.5,62.4999 C42.5,60.0149 44.515,57.9999 47,57.9999 C49.485,57.9999 51.5,60.0149 51.5,62.4999" id="Fill-18" fill="#F27063" mask="url(#mask-12)"></path>
                </g>
                <g id="Group-23">
                    <mask id="mask-14" fill="white">
                        <use xlink:href="#path-13"></use>
                    </mask>
                    <g id="Clip-22"></g>
                    <path d="M59.5,59.4999 C59.5,61.9849 57.485,63.9999 55,63.9999 C52.515,63.9999 50.5,61.9849 50.5,59.4999 C50.5,57.0149 52.515,54.9999 55,54.9999 C57.485,54.9999 59.5,57.0149 59.5,59.4999" id="Fill-21" fill="#F27063" mask="url(#mask-14)"></path>
                </g>
                <g id="Group-26">
                    <mask id="mask-16" fill="white">
                        <use xlink:href="#path-15"></use>
                    </mask>
                    <g id="Clip-25"></g>
                    <path d="M69,55.4999 C69,58.8139 66.313,61.4999 63,61.4999 C59.687,61.4999 57,58.8139 57,55.4999 C57,52.1869 59.687,49.4999 63,49.4999 C66.313,49.4999 69,52.1869 69,55.4999" id="Fill-24" fill="#F27063" mask="url(#mask-16)"></path>
                </g>
                <g id="Group-29">
                    <mask id="mask-18" fill="white">
                        <use xlink:href="#path-17"></use>
                    </mask>
                    <g id="Clip-28"></g>
                    <path d="M72,51.4999 C72,53.1569 70.657,54.4999 69,54.4999 C67.343,54.4999 66,53.1569 66,51.4999 C66,49.8429 67.343,48.4999 69,48.4999 C70.657,48.4999 72,49.8429 72,51.4999" id="Fill-27" fill="#F27063" mask="url(#mask-18)"></path>
                </g>
                <g id="Group-32">
                    <mask id="mask-20" fill="white">
                        <use xlink:href="#path-19"></use>
                    </mask>
                    <g id="Clip-31"></g>
                    <path d="M5,51.4999 C5,54.8139 2.313,57.4999 -1,57.4999 C-4.313,57.4999 -7,54.8139 -7,51.4999 C-7,48.1869 -4.313,45.4999 -1,45.4999 C2.313,45.4999 5,48.1869 5,51.4999" id="Fill-30" fill="#FAB155" mask="url(#mask-20)"></path>
                </g>
                <g id="Group-35">
                    <mask id="mask-22" fill="white">
                        <use xlink:href="#path-21"></use>
                    </mask>
                    <g id="Clip-34"></g>
                    <path d="M16,53.4999 C16,56.8139 13.313,59.4999 10,59.4999 C6.687,59.4999 4,56.8139 4,53.4999 C4,50.1869 6.687,47.4999 10,47.4999 C13.313,47.4999 16,50.1869 16,53.4999" id="Fill-33" fill="#FAB155" mask="url(#mask-22)"></path>
                </g>
                <g id="Group-38">
                    <mask id="mask-24" fill="white">
                        <use xlink:href="#path-23"></use>
                    </mask>
                    <g id="Clip-37"></g>
                    <path d="M23,59.4999 C23,62.8139 20.313,65.4999 17,65.4999 C13.687,65.4999 11,62.8139 11,59.4999 C11,56.1869 13.687,53.4999 17,53.4999 C20.313,53.4999 23,56.1869 23,59.4999" id="Fill-36" fill="#FAB155" mask="url(#mask-24)"></path>
                </g>
                <g id="Group-41">
                    <mask id="mask-26" fill="white">
                        <use xlink:href="#path-25"></use>
                    </mask>
                    <g id="Clip-40"></g>
                    <path d="M52.5913,69.4838 C43.4853,69.8108 36.0003,62.4968 36.0003,53.4968 L32.0003,53.4968 C32.0003,62.4968 24.5133,69.8098 15.4073,69.4818 C26.6763,76.0468 40.8993,76.2948 52.5913,69.4838" id="Fill-39" fill="#FAB155" mask="url(#mask-26)"></path>
                </g>
                <g id="Group-44">
                    <mask id="mask-28" fill="white">
                        <use xlink:href="#path-27"></use>
                    </mask>
                    <g id="Clip-43"></g>
                    <path d="M49,68.4999 C49,70.1569 47.657,71.4999 46,71.4999 C44.343,71.4999 43,70.1569 43,68.4999 C43,66.8429 44.343,65.4999 46,65.4999 C47.657,65.4999 49,66.8429 49,68.4999" id="Fill-42" fill="#FAB155" mask="url(#mask-28)"></path>
                </g>
                <g id="Group-47">
                    <mask id="mask-30" fill="white">
                        <use xlink:href="#path-29"></use>
                    </mask>
                    <g id="Clip-46"></g>
                    <path d="M56.5,66.4999 C56.5,68.9849 54.485,70.9999 52,70.9999 C49.515,70.9999 47.5,68.9849 47.5,66.4999 C47.5,64.0149 49.515,61.9999 52,61.9999 C54.485,61.9999 56.5,64.0149 56.5,66.4999" id="Fill-45" fill="#FAB155" mask="url(#mask-30)"></path>
                </g>
                <g id="Group-50">
                    <mask id="mask-32" fill="white">
                        <use xlink:href="#path-31"></use>
                    </mask>
                    <g id="Clip-49"></g>
                    <path d="M66,64.4999 C66,67.8139 63.313,70.4999 60,70.4999 C56.687,70.4999 54,67.8139 54,64.4999 C54,61.1869 56.687,58.4999 60,58.4999 C63.313,58.4999 66,61.1869 66,64.4999" id="Fill-48" fill="#FAB155" mask="url(#mask-32)"></path>
                </g>
                <g id="Group-53">
                    <mask id="mask-34" fill="white">
                        <use xlink:href="#path-33"></use>
                    </mask>
                    <g id="Clip-52"></g>
                    <path d="M13,59.4999 C13,62.8139 10.313,65.4999 7,65.4999 C3.687,65.4999 1,62.8139 1,59.4999 C1,56.1869 3.687,53.4999 7,53.4999 C10.313,53.4999 13,56.1869 13,59.4999" id="Fill-51" fill="#FDE78D" mask="url(#mask-34)"></path>
                </g>
                <g id="Group-56">
                    <mask id="mask-36" fill="white">
                        <use xlink:href="#path-35"></use>
                    </mask>
                    <g id="Clip-55"></g>
                    <path d="M6,56.4999 C6,58.1569 4.657,59.4999 3,59.4999 C1.343,59.4999 0,58.1569 0,56.4999 C0,54.8429 1.343,53.4999 3,53.4999 C4.657,53.4999 6,54.8429 6,56.4999" id="Fill-54" fill="#FDE78D" mask="url(#mask-36)"></path>
                </g>
                <g id="Group-59">
                    <mask id="mask-38" fill="white">
                        <use xlink:href="#path-37"></use>
                    </mask>
                    <g id="Clip-58"></g>
                    <path d="M17,65.4999 C17,68.8139 14.313,71.4999 11,71.4999 C7.687,71.4999 5,68.8139 5,65.4999 C5,62.1869 7.687,59.4999 11,59.4999 C14.313,59.4999 17,62.1869 17,65.4999" id="Fill-57" fill="#FDE78D" mask="url(#mask-38)"></path>
                </g>
                <g id="Group-62">
                    <mask id="mask-40" fill="white">
                        <use xlink:href="#path-39"></use>
                    </mask>
                    <g id="Clip-61"></g>
                    <path d="M21.5,65.4999 C21.5,67.9849 19.485,69.9999 17,69.9999 C14.515,69.9999 12.5,67.9849 12.5,65.4999 C12.5,63.0149 14.515,60.9999 17,60.9999 C19.485,60.9999 21.5,63.0149 21.5,65.4999" id="Fill-60" fill="#FDE78D" mask="url(#mask-40)"></path>
                </g>
                <g id="Group-65">
                    <mask id="mask-42" fill="white">
                        <use xlink:href="#path-41"></use>
                    </mask>
                    <g id="Clip-64"></g>
                    <path d="M26.5,70.4999 C26.5,72.9849 24.485,74.9999 22,74.9999 C19.515,74.9999 17.5,72.9849 17.5,70.4999 C17.5,68.0149 19.515,65.9999 22,65.9999 C24.485,65.9999 26.5,68.0149 26.5,70.4999" id="Fill-63" fill="#FDE78D" mask="url(#mask-42)"></path>
                </g>
                <g id="Group-68">
                    <mask id="mask-44" fill="white">
                        <use xlink:href="#path-43"></use>
                    </mask>
                    <g id="Clip-67"></g>
                    <path d="M25,73.4999 C25,76.8139 22.313,79.4999 19,79.4999 C15.687,79.4999 13,76.8139 13,73.4999 C13,70.1869 15.687,67.4999 19,67.4999 C22.313,67.4999 25,70.1869 25,73.4999" id="Fill-66" fill="#FDE78D" mask="url(#mask-44)"></path>
                </g>
                <g id="Group-71">
                    <mask id="mask-46" fill="white">
                        <use xlink:href="#path-45"></use>
                    </mask>
                    <g id="Clip-70"></g>
                    <path d="M18,71.4999 C18,74.8139 15.313,77.4999 12,77.4999 C8.687,77.4999 6,74.8139 6,71.4999 C6,68.1869 8.687,65.4999 12,65.4999 C15.313,65.4999 18,68.1869 18,71.4999" id="Fill-69" fill="#FDE78D" mask="url(#mask-46)"></path>
                </g>
                <g id="Group-74">
                    <mask id="mask-48" fill="white">
                        <use xlink:href="#path-47"></use>
                    </mask>
                    <g id="Clip-73"></g>
                    <path d="M32.5,73.4999 C32.5,75.9849 30.485,77.9999 28,77.9999 C25.515,77.9999 23.5,75.9849 23.5,73.4999 C23.5,71.0149 25.515,68.9999 28,68.9999 C30.485,68.9999 32.5,71.0149 32.5,73.4999" id="Fill-72" fill="#FDE78D" mask="url(#mask-48)"></path>
                </g>
                <g id="Group-77">
                    <mask id="mask-50" fill="white">
                        <use xlink:href="#path-49"></use>
                    </mask>
                    <g id="Clip-76"></g>
                    <path d="M41,73.4999 C41,76.8139 38.313,79.4999 35,79.4999 C31.687,79.4999 29,76.8139 29,73.4999 C29,70.1869 31.687,67.4999 35,67.4999 C38.313,67.4999 41,70.1869 41,73.4999" id="Fill-75" fill="#FDE78D" mask="url(#mask-50)"></path>
                </g>
                <g id="Group-80">
                    <mask id="mask-52" fill="white">
                        <use xlink:href="#path-51"></use>
                    </mask>
                    <g id="Clip-79"></g>
                    <path d="M47.5,75.4999 C47.5,77.9849 45.485,79.9999 43,79.9999 C40.515,79.9999 38.5,77.9849 38.5,75.4999 C38.5,73.0149 40.515,70.9999 43,70.9999 C45.485,70.9999 47.5,73.0149 47.5,75.4999" id="Fill-78" fill="#FDE78D" mask="url(#mask-52)"></path>
                </g>
                <g id="Group-83">
                    <mask id="mask-54" fill="white">
                        <use xlink:href="#path-53"></use>
                    </mask>
                    <g id="Clip-82"></g>
                    <path d="M46,71.4999 C46,73.1569 44.657,74.4999 43,74.4999 C41.343,74.4999 40,73.1569 40,71.4999 C40,69.8429 41.343,68.4999 43,68.4999 C44.657,68.4999 46,69.8429 46,71.4999" id="Fill-81" fill="#FDE78D" mask="url(#mask-54)"></path>
                </g>
                <g id="Group-86">
                    <mask id="mask-56" fill="white">
                        <use xlink:href="#path-55"></use>
                    </mask>
                    <g id="Clip-85"></g>
                    <path d="M54.5,71.4999 C54.5,73.9849 52.485,75.9999 50,75.9999 C47.515,75.9999 45.5,73.9849 45.5,71.4999 C45.5,69.0149 47.515,66.9999 50,66.9999 C52.485,66.9999 54.5,69.0149 54.5,71.4999" id="Fill-84" fill="#FDE78D" mask="url(#mask-56)"></path>
                </g>
                <g id="Group-89">
                    <mask id="mask-58" fill="white">
                        <use xlink:href="#path-57"></use>
                    </mask>
                    <g id="Clip-88"></g>
                    <path d="M59.5,68.4999 C59.5,70.9849 57.485,72.9999 55,72.9999 C52.515,72.9999 50.5,70.9849 50.5,68.4999 C50.5,66.0149 52.515,63.9999 55,63.9999 C57.485,63.9999 59.5,66.0149 59.5,68.4999" id="Fill-87" fill="#FDE78D" mask="url(#mask-58)"></path>
                </g>
            </g>
            <g id="Group-160" transform="translate(0.000000, 0.500000)">
                <g id="Group-93" transform="translate(69.000000, 29.000000)">
                    <mask id="mask-60" fill="white">
                        <use xlink:href="#path-59"></use>
                    </mask>
                    <g id="Clip-92"></g>
                    <path d="M4.3364,31.5185 C4.2374,31.5185 4.1384,31.5035 4.0394,31.4735 C3.5114,31.3095 3.2174,30.7485 3.3804,30.2215 C4.4554,26.7655 5.0004,23.1575 5.0004,19.4995 C5.0004,13.4575 3.4794,7.4845 0.6024,2.2265 C0.3374,1.7425 0.5154,1.1345 1.0004,0.8695 C1.4854,0.6045 2.0914,0.7825 2.3574,1.2665 C5.3944,6.8175 7.0004,13.1225 7.0004,19.4995 C7.0004,23.3595 6.4244,27.1665 5.2914,30.8145 C5.1574,31.2435 4.7624,31.5185 4.3364,31.5185" id="Fill-91" fill="#000000" mask="url(#mask-60)"></path>
                </g>
                <path d="M68.8696,29.0756 C68.5456,29.0756 68.2276,28.9186 68.0356,28.6276 C67.6896,28.1066 67.3316,27.5956 66.9606,27.0946 C66.6326,26.6496 66.7256,26.0236 67.1696,25.6956 C67.6136,25.3666 68.2406,25.4596 68.5686,25.9046 C68.9606,26.4346 69.3386,26.9736 69.7026,27.5236 C70.0076,27.9836 69.8816,28.6046 69.4206,28.9086 C69.2506,29.0216 69.0586,29.0756 68.8696,29.0756" id="Fill-94" fill="#000000"></path>
                <path d="M1.3599,54.6977 C0.8689,54.6977 0.4409,54.3367 0.3709,53.8367 C0.1249,52.0817 -0.0001,50.2867 -0.0001,48.4997 C-0.0001,27.5467 17.0469,10.4997 37.9999,10.4997 C48.5699,10.4997 58.7429,14.9457 65.9119,22.6967 C66.2869,23.1017 66.2619,23.7347 65.8569,24.1097 C65.4499,24.4857 64.8179,24.4597 64.4429,24.0547 C57.6519,16.7117 48.0139,12.4997 37.9999,12.4997 C18.1499,12.4997 1.9999,28.6497 1.9999,48.4997 C1.9999,50.1937 2.1179,51.8957 2.3519,53.5587 C2.4279,54.1057 2.0469,54.6117 1.5009,54.6877 C1.4529,54.6947 1.4059,54.6977 1.3599,54.6977" id="Fill-96" fill="#000000"></path>
                <path d="M38,86.4999 C20.069,86.4999 4.824,74.2989 0.924,56.8289 C0.866,56.5649 0.916,56.2899 1.064,56.0629 C1.211,55.8379 1.445,55.6809 1.709,55.6299 C2.159,55.5419 2.581,55.4999 3,55.4999 C5.695,55.4999 8.091,57.0449 9.255,59.3619 C10.303,58.3889 11.627,57.7539 13.071,57.5619 C13.615,57.4899 14.122,57.8729 14.195,58.4199 C14.268,58.9679 13.883,59.4709 13.336,59.5439 C11.85,59.7429 10.54,60.5989 9.742,61.8949 C9.526,62.2449 9.117,62.4299 8.709,62.3539 C8.304,62.2789 7.985,61.9629 7.908,61.5579 C7.467,59.2529 5.475,57.5679 3.142,57.5019 C7.22,73.4569 21.395,84.4999 38,84.4999 C53.291,84.4999 66.68,75.0609 71.836,60.8389 C71.524,61.0419 71.305,61.3519 71.131,61.7959 C71.022,62.0729 70.795,62.2879 70.512,62.3799 C70.229,62.4729 69.919,62.4359 69.667,62.2759 C68.862,61.7689 67.939,61.4999 67,61.4999 C64.251,61.4999 62.008,63.7399 62,66.4929 C61.999,66.8389 61.819,67.1599 61.524,67.3419 C61.229,67.5229 60.861,67.5379 60.553,67.3849 C59.038,66.6259 57.786,67.1479 57.175,67.5249 C56.201,68.1279 55.52,69.1619 55.52,70.0399 C55.51,70.2149 55.503,70.3269 55.499,70.3999 C55.52,70.5269 55.52,70.6429 55.52,70.7299 C55.52,71.1609 55.245,71.5419 54.836,71.6789 C54.43,71.8149 53.978,71.6739 53.72,71.3299 C53.105,70.5099 52.063,69.9999 51,69.9999 C50.031,69.9999 49.103,70.3979 48.454,71.0919 C47.781,71.8109 47.464,72.7729 47.538,73.8739 C47.563,74.2469 47.376,74.6039 47.056,74.7969 C46.734,74.9889 46.332,74.9869 46.014,74.7909 C45.884,74.7099 45.739,74.6459 45.581,74.6009 C45.361,74.5369 45.169,74.3969 45.039,74.2089 C43.241,71.6229 42.21,68.4969 42.029,65.4969 L33.971,65.4969 C33.786,68.4969 32.737,71.6219 30.909,74.2319 C30.785,74.4089 30.607,74.5419 30.401,74.6089 C30.351,74.6259 30.284,74.6449 30.217,74.6609 C29.92,74.7329 29.604,74.6669 29.362,74.4769 C29.121,74.2869 28.98,73.9969 28.98,73.6899 C28.98,72.1769 27.985,71.4999 27,71.4999 C26.448,71.4999 26,71.0519 26,70.4999 C26,68.2169 24.457,66.2259 22.248,65.6569 C21.713,65.5199 21.392,64.9749 21.529,64.4389 C21.667,63.9049 22.21,63.5829 22.747,63.7209 C25.549,64.4419 27.585,66.7979 27.944,69.6099 C28.898,69.8359 29.78,70.4079 30.344,71.3099 C31.432,69.1989 32,66.8769 32,64.4989 C32,63.9459 32.448,63.4969 33,63.4969 L43,63.4969 C43.552,63.4969 44,63.9459 44,64.4989 C44,67.0349 44.628,69.4909 45.828,71.6879 C46.073,70.9549 46.466,70.2889 46.994,69.7249 C48.019,68.6279 49.479,67.9999 51,67.9999 C51.974,67.9999 52.918,68.2599 53.735,68.7309 C54.113,67.6119 54.969,66.5379 56.124,65.8239 C57.364,65.0579 58.773,64.8229 60.137,65.1269 C60.78,61.9229 63.616,59.4999 67,59.4999 C67.964,59.4999 68.913,59.7009 69.794,60.0859 C70.925,58.5089 72.694,58.5179 73.34,58.5179 C73.657,58.5199 73.955,58.6709 74.142,58.9269 C74.33,59.1829 74.385,59.5119 74.291,59.8149 C69.329,75.7759 54.745,86.4999 38,86.4999" id="Fill-98" fill="#000000"></path>
                <path d="M44,60.4965 L38,60.4965 L38,64.4965 L45.07,64.4965 C44.39,63.4965 44,61.4965 44,60.4965" id="Fill-100" fill="#5F646A"></path>
                <path d="M32,60.4965 C32,61.4965 31.61,63.4965 30.93,64.4965 L38,64.4965 L38,60.4965 L32,60.4965 Z" id="Fill-102" fill="#B1B4B5"></path>
                <path d="M32.4854,63.4999 L43.5144,63.4999 C43.2864,62.8539 43.1324,62.1819 43.0554,61.4999 L32.9444,61.4999 C32.8674,62.1819 32.7134,62.8539 32.4854,63.4999 M45.0694,65.4999 L30.9304,65.4999 C30.5734,65.4999 30.2434,65.3099 30.0644,64.9999 C29.8854,64.6909 29.8854,64.3109 30.0634,64.0009 C30.6854,62.9219 31.0004,61.7439 31.0004,60.4999 C31.0004,59.9479 31.4474,59.4999 32.0004,59.4999 L44.0004,59.4999 C44.5524,59.4999 45.0004,59.9479 45.0004,60.4999 C45.0004,61.7439 45.3154,62.9219 45.9364,64.0009 C46.1144,64.3109 46.1144,64.6909 45.9354,64.9999 C45.7564,65.3099 45.4264,65.4999 45.0694,65.4999" id="Fill-104" fill="#000000"></path>
                <path d="M52.9517,39.3549 C52.7017,44.7569 51.3827,50.0529 49.3627,55.0629 C53.1587,57.6819 56.0107,61.5729 57.2697,66.1399 C59.0097,62.9899 59.9997,59.3599 59.9997,55.4999 C59.9997,49.1259 57.2857,43.3749 52.9517,39.3549" id="Fill-106" fill="#D63123"></path>
                <path d="M57.2705,67.1401 C57.2315,67.1401 57.1915,67.1381 57.1525,67.1331 C56.7485,67.0851 56.4145,66.7981 56.3065,66.4061 C55.1345,62.1561 52.4665,58.4201 48.7945,55.8861 C48.3395,55.5721 48.2255,54.9491 48.5395,54.4941 C48.8535,54.0401 49.4765,53.9261 49.9305,54.2391 C53.2925,56.5601 55.8935,59.7941 57.4235,63.5091 C58.4595,60.9851 58.9995,58.2561 58.9995,55.5001 C58.9995,49.6721 56.5475,44.0541 52.2715,40.0871 C51.8675,39.7121 51.8435,39.0791 52.2195,38.6741 C52.5955,38.2691 53.2285,38.2461 53.6325,38.6211 C58.3145,42.9651 60.9995,49.1171 60.9995,55.5001 C60.9995,59.3961 60.0125,63.2421 58.1455,66.6231 C57.9675,66.9451 57.6305,67.1401 57.2705,67.1401" id="Fill-108" fill="#000000"></path>
                <path d="M23.0483,39.3588 C18.7153,43.3788 16.0003,49.1278 16.0003,55.4998 C16.0003,59.1008 16.8743,62.7808 18.7303,66.1398 C19.9683,61.6968 22.7543,57.7598 26.6463,55.0818 C24.6263,50.0828 23.2993,44.7808 23.0483,39.3588" id="Fill-110" fill="#FFFFFF"></path>
                <path d="M18,55.4999 C18,58.2589 18.518,61.0629 19.592,63.7339 C21.057,60.2889 23.476,57.2629 26.646,55.0819 C24.871,50.6869 23.632,46.0579 23.187,41.3199 C19.955,45.1519 18,50.0999 18,55.4999" id="Fill-112" fill="#F93B2A"></path>
                <path d="M22.2139,41.6518 C18.8789,45.4648 16.9999,50.4018 16.9999,55.4998 C16.9999,58.2598 17.5419,60.9908 18.5789,63.5168 C20.0169,60.0428 22.3849,56.9938 25.4279,54.7238 C23.7179,50.3168 22.6399,45.9318 22.2139,41.6518 M18.7299,67.1398 C18.3689,67.1398 18.0319,66.9448 17.8549,66.6238 C15.9869,63.2438 14.9999,59.3978 14.9999,55.4998 C14.9999,49.1208 17.6859,42.9698 22.3679,38.6258 C22.6539,38.3608 23.0699,38.2878 23.4269,38.4328 C23.7869,38.5808 24.0289,38.9238 24.0469,39.3128 C24.2789,44.3088 25.4649,49.4878 27.5729,54.7078 C27.7479,55.1418 27.5989,55.6398 27.2129,55.9058 C23.5489,58.4258 20.8789,62.1558 19.6929,66.4088 C19.5839,66.7998 19.2499,67.0868 18.8459,67.1328 C18.8069,67.1378 18.7679,67.1398 18.7299,67.1398" id="Fill-114" fill="#000000"></path>
                <path d="M29.1499,60.4999 C25.4779,53.4479 22.9999,45.5839 22.9999,37.4999 C22.9999,22.8349 31.9079,8.0349 37.9999,1.4999 C44.6469,8.6299 52.9999,23.4149 52.9999,37.4999 C52.9999,45.5529 50.5389,53.4159 46.8499,60.4999 L29.1499,60.4999 Z" id="Fill-116" fill="#FFFFFF"></path>
                <path d="M38,2.9921 C32.954,9.7171 26,23.7591 26,37.4981 C26,44.5931 27.661,51.4961 30.937,59.4961 L43.886,59.4961 C46.616,51.4961 48,44.5921 48,37.4981 C48,23.7591 42.206,9.7181 38,2.9921" id="Fill-118" fill="#B1B4B5"></path>
                <path d="M38.269,1.4965 L38,1.4965 C38,1.4965 47.916,23.7565 47.916,37.4965 C47.916,44.9055 46.498,52.4965 43.514,60.4965 L46.85,60.4965 C50.539,53.4965 53,45.5495 53,37.4965 C53,23.4115 44.915,8.4965 38.269,1.4965" id="Fill-120" fill="#5F646A"></path>
                <path d="M51.4849,49.7152 C51.4009,49.7152 51.3149,49.7042 51.2289,49.6812 C50.6949,49.5402 50.3769,48.9932 50.5179,48.4592 C50.7019,47.7632 50.8709,47.0632 51.0239,46.3592 C51.1409,45.8192 51.6759,45.4782 52.2129,45.5942 C52.7519,45.7112 53.0949,46.2432 52.9779,46.7832 C52.8189,47.5162 52.6429,48.2452 52.4509,48.9702 C52.3329,49.4192 51.9279,49.7152 51.4849,49.7152" id="Fill-122" fill="#000000"></path>
                <path d="M52.502,44.8773 C52.451,44.8773 52.399,44.8733 52.348,44.8653 C51.802,44.7813 51.428,44.2703 51.512,43.7243 C51.836,41.6293 52,39.5353 52,37.5003 C52,23.7603 43.888,9.7173 38,2.9913 C37.26,3.8353 36.503,4.7733 35.743,5.7903 C35.412,6.2323 34.785,6.3223 34.343,5.9913 C33.9,5.6603 33.811,5.0333 34.141,4.5913 C35.198,3.1793 36.25,1.9103 37.269,0.8173 C37.458,0.6153 37.723,0.5003 38,0.5003 C38.277,0.5003 38.543,0.6153 38.731,0.8183 C44.869,7.4013 54,22.6043 54,37.5003 C54,39.6373 53.828,41.8343 53.489,44.0303 C53.413,44.5243 52.987,44.8773 52.502,44.8773" id="Fill-124" fill="#000000"></path>
                <path d="M46.8501,61.4999 L29.1501,61.4999 C28.7771,61.4999 28.4351,61.2919 28.2631,60.9619 C24.1071,52.9799 22.0001,45.0859 22.0001,37.4999 C22.0001,23.9779 29.2581,11.7219 32.3781,7.0799 C32.6861,6.6219 33.3071,6.4999 33.7661,6.8079 C34.2241,7.1159 34.3461,7.7379 34.0381,8.1959 C31.0201,12.6859 24.0001,24.5279 24.0001,37.4999 C24.0001,44.5919 25.9371,51.9909 29.7601,59.4999 L46.2401,59.4999 C47.6281,56.7709 48.7821,54.0169 49.6741,51.3029 C49.8471,50.7779 50.4091,50.4929 50.9361,50.6649 C51.4611,50.8369 51.7461,51.4019 51.5741,51.9269 C50.5901,54.9219 49.2991,57.9619 47.7371,60.9619 C47.5651,61.2919 47.2231,61.4999 46.8501,61.4999" id="Fill-126" fill="#000000"></path>
                <path d="M44.7979,12.8593 C42.5679,8.8513 40.1379,5.4353 37.9999,2.9923 C39.5659,5.4953 41.3499,9.0143 42.9749,13.1523 C43.5869,13.0673 44.1949,12.9723 44.7979,12.8593" id="Fill-128" fill="#D63123"></path>
                <path d="M42.9751,13.1523 C41.3501,9.0143 39.5651,5.4953 38.0001,2.9923 C36.1441,5.4653 34.0321,8.9333 32.1001,13.0073 C34.0241,13.3203 35.9921,13.5003 38.0001,13.5003 C39.6861,13.5003 41.3471,13.3763 42.9751,13.1523" id="Fill-130" fill="#F93B2A"></path>
                <path d="M39,19.5795 C35.606,20.0645 33,22.9705 33,26.4995 C33,30.0295 35.606,32.9355 39,33.4205 C42.394,32.9355 45,30.0295 45,26.4995 C45,22.9705 42.394,20.0645 39,19.5795" id="Fill-132" fill="#2ABBB3"></path>
                <path d="M38,20.4999 C37.658,20.4999 37.326,20.5349 37,20.5899 C39.839,21.0659 42,23.5239 42,26.4999 C42,29.4759 39.839,31.9339 37,32.4099 C37.326,32.4649 37.658,32.4999 38,32.4999 C41.317,32.4999 44,29.8169 44,26.4999 C44,23.1829 41.317,20.4999 38,20.4999" id="Fill-134" fill="#7ECDEF"></path>
                <path d="M38,20.4999 C34.691,20.4999 32,23.1909 32,26.4999 C32,29.8089 34.691,32.4999 38,32.4999 C41.309,32.4999 44,29.8089 44,26.4999 C44,23.1909 41.309,20.4999 38,20.4999 M38,34.4999 C33.589,34.4999 30,30.9109 30,26.4999 C30,22.0889 33.589,18.4999 38,18.4999 C42.411,18.4999 46,22.0889 46,26.4999 C46,30.9109 42.411,34.4999 38,34.4999" id="Fill-136" fill="#000000"></path>
                <path d="M36.3501,23.3544 C36.1591,23.3544 35.9771,23.2454 35.8931,23.0594 C35.7801,22.8074 35.8921,22.5114 36.1441,22.3984 L36.2771,22.3404 C36.5331,22.2354 36.8241,22.3554 36.9311,22.6114 C37.0371,22.8664 36.9151,23.1584 36.6601,23.2644 L36.5551,23.3104 C36.4881,23.3404 36.4181,23.3544 36.3501,23.3544" id="Fill-138" fill="#FFFFFF"></path>
                <path d="M34.0156,26.6503 C34.0016,26.6503 33.9866,26.6503 33.9726,26.6483 C33.6976,26.6253 33.4936,26.3823 33.5166,26.1073 C33.6126,25.0003 34.1136,23.9713 34.9266,23.2113 C35.1286,23.0233 35.4456,23.0333 35.6336,23.2353 C35.8216,23.4373 35.8106,23.7533 35.6096,23.9423 C34.9766,24.5333 34.5876,25.3333 34.5136,26.1933 C34.4906,26.4533 34.2726,26.6503 34.0156,26.6503" id="Fill-140" fill="#FFFFFF"></path>
                <path d="M41,41.4999 C41,39.8429 39.657,38.4999 38,38.4999 L38,66.4999 C39.657,66.4999 41,43.1569 41,41.4999" id="Fill-142" fill="#D63123"></path>
                <path d="M35,41.4999 C35,43.1569 36.343,66.4999 38,66.4999 L38,38.4999 C36.343,38.4999 35,39.8429 35,41.4999" id="Fill-144" fill="#F93B2A"></path>
                <path d="M38,39.4999 C36.897,39.4999 36,40.3969 36,41.4999 C36,43.4399 36.943,58.3049 38,63.8219 C39.057,58.3049 40,43.4399 40,41.4999 C40,40.3969 39.103,39.4999 38,39.4999 M38,67.4999 C36.944,67.4999 36.032,67.4999 34.883,54.7109 C34.323,48.4779 34,42.3159 34,41.4999 C34,39.2939 35.794,37.4999 38,37.4999 C40.206,37.4999 42,39.2939 42,41.4999 C42,42.3159 41.677,48.4779 41.117,54.7109 C39.968,67.4999 39.056,67.4999 38,67.4999" id="Fill-146" fill="#000000"></path>
                <path d="M66,55.9999 C65.724,55.9999 65.5,55.7759 65.5,55.4999 L65.5,53.4999 C65.5,53.2239 65.724,52.9999 66,52.9999 C66.276,52.9999 66.5,53.2239 66.5,53.4999 L66.5,55.4999 C66.5,55.7759 66.276,55.9999 66,55.9999" id="Fill-148" fill="#FFFFFF"></path>
                <path d="M67,54.9999 L65,54.9999 C64.724,54.9999 64.5,54.7759 64.5,54.4999 C64.5,54.2239 64.724,53.9999 65,53.9999 L67,53.9999 C67.276,53.9999 67.5,54.2239 67.5,54.4999 C67.5,54.7759 67.276,54.9999 67,54.9999" id="Fill-150" fill="#FFFFFF"></path>
                <path d="M12,41.9999 C11.724,41.9999 11.5,41.7759 11.5,41.4999 L11.5,39.4999 C11.5,39.2239 11.724,38.9999 12,38.9999 C12.276,38.9999 12.5,39.2239 12.5,39.4999 L12.5,41.4999 C12.5,41.7759 12.276,41.9999 12,41.9999" id="Fill-152" fill="#FFFFFF"></path>
                <path d="M13,40.9999 L11,40.9999 C10.724,40.9999 10.5,40.7759 10.5,40.4999 C10.5,40.2239 10.724,39.9999 11,39.9999 L13,39.9999 C13.276,39.9999 13.5,40.2239 13.5,40.4999 C13.5,40.7759 13.276,40.9999 13,40.9999" id="Fill-154" fill="#FFFFFF"></path>
                <path d="M55,21.9999 C54.724,21.9999 54.5,21.7759 54.5,21.4999 L54.5,19.4999 C54.5,19.2239 54.724,18.9999 55,18.9999 C55.276,18.9999 55.5,19.2239 55.5,19.4999 L55.5,21.4999 C55.5,21.7759 55.276,21.9999 55,21.9999" id="Fill-156" fill="#FFFFFF"></path>
                <path d="M56,20.9999 L54,20.9999 C53.724,20.9999 53.5,20.7759 53.5,20.4999 C53.5,20.2239 53.724,19.9999 54,19.9999 L56,19.9999 C56.276,19.9999 56.5,20.2239 56.5,20.4999 C56.5,20.7759 56.276,20.9999 56,20.9999" id="Fill-158" fill="#FFFFFF"></path>
            </g>
        </g>
    </g>
</svg>