<?xml version="1.0" encoding="UTF-8"?>
<svg width="100px" height="100px" viewBox="0 0 100 100" version="1.1" xmlns="http://www.w3.org/2000/svg" xmlns:xlink="http://www.w3.org/1999/xlink">
    <!-- Generator: Sketch 49.3 (51167) - http://www.bohemiancoding.com/sketch -->
    <title>icon_HAVE_100x100</title>
    <desc>Created with Sketch.</desc>
    <defs>
        <path d="M0,36.003 C0,55.886 16.117,72.003 35.999,72.003 C55.882,72.003 71.999,55.886 71.999,36.003 C71.999,16.121 55.882,0.003 35.999,0.003 C16.117,0.003 0,16.121 0,36.003 Z" id="path-1"></path>
        <path d="M0,36.003 C0,55.886 16.117,72.003 35.999,72.003 C55.882,72.003 71.999,55.886 71.999,36.003 C71.999,16.121 55.882,0.003 35.999,0.003 C16.117,0.003 0,16.121 0,36.003 Z" id="path-3"></path>
        <path d="M0,36.003 C0,55.886 16.117,72.003 35.999,72.003 C55.882,72.003 71.999,55.886 71.999,36.003 C71.999,16.121 55.882,0.003 35.999,0.003 C16.117,0.003 0,16.121 0,36.003 Z" id="path-5"></path>
        <path d="M0,36.003 C0,55.886 16.117,72.003 35.999,72.003 C55.882,72.003 71.999,55.886 71.999,36.003 C71.999,16.121 55.882,0.003 35.999,0.003 C16.117,0.003 0,16.121 0,36.003 Z" id="path-7"></path>
        <path d="M0,36.003 C0,55.886 16.117,72.003 35.999,72.003 C55.882,72.003 71.999,55.886 71.999,36.003 C71.999,16.121 55.882,0.003 35.999,0.003 C16.117,0.003 0,16.121 0,36.003 Z" id="path-9"></path>
        <polygon id="path-11" points="0.132666701 0.387 22.5218659 0.387 22.5218659 32.8452 0.132666701 32.8452"></polygon>
    </defs>
    <g id="icon_HAVE_100x100" stroke="none" stroke-width="1" fill="none" fill-rule="evenodd">
        <g id="Page-1" transform="translate(2.000000, 7.000000)">
            <g id="Group-11" transform="translate(10.000000, 9.613300)">
                <path d="M39.499,1.0415 C19.762,1.8295 3.999,18.0725 3.999,38.0035 C3.999,57.9355 19.762,74.1775 39.499,74.9655 C59.237,74.1775 74.999,57.9355 74.999,38.0035 C74.999,18.0725 59.237,1.8295 39.499,1.0415" id="Fill-1" fill="#0B70B7"></path>
                <path d="M4.6279,55.0015 C4.2559,55.0015 3.8979,54.7925 3.7259,54.4345 C1.2529,49.2855 -0.0001,43.7575 -0.0001,38.0035 C-0.0001,17.0505 17.0459,0.0035 37.9989,0.0035 C52.4729,0.0035 65.4959,8.0465 71.9879,20.9925 C72.2349,21.4865 72.0359,22.0875 71.5419,22.3345 C71.0459,22.5815 70.4469,22.3815 70.1999,21.8895 C64.0499,9.6235 51.7109,2.0035 37.9989,2.0035 C18.1489,2.0035 1.9999,18.1525 1.9999,38.0035 C1.9999,43.4545 3.1869,48.6915 5.5289,53.5685 C5.7679,54.0665 5.5579,54.6635 5.0609,54.9025 C4.9209,54.9705 4.7739,55.0015 4.6279,55.0015" id="Fill-3" fill="#000000"></path>
                <path d="M5.999,57.5874 C5.655,57.5874 5.321,57.4104 5.135,57.0924 L5.05,56.9444 C4.775,56.4654 4.941,55.8554 5.42,55.5794 C5.899,55.3084 6.511,55.4724 6.785,55.9504 L6.861,56.0824 C7.14,56.5594 6.98,57.1714 6.503,57.4504 C6.344,57.5434 6.17,57.5874 5.999,57.5874" id="Fill-5" fill="#000000"></path>
                <path d="M9.371,62.4438 C9.082,62.4438 8.795,62.3188 8.597,62.0778 C7.755,61.0498 6.958,59.9668 6.229,58.8598 C5.926,58.3978 6.054,57.7778 6.515,57.4748 C6.978,57.1698 7.598,57.2988 7.9,57.7598 C8.591,58.8098 9.346,59.8358 10.143,60.8098 C10.494,61.2368 10.432,61.8668 10.004,62.2168 C9.818,62.3698 9.594,62.4438 9.371,62.4438" id="Fill-7" fill="#000000"></path>
                <path d="M37.999,76.0034 C27.598,76.0034 17.889,71.8814 10.661,64.3974 C10.277,63.9994 10.289,63.3664 10.686,62.9824 C11.084,62.6004 11.717,62.6114 12.1,63.0084 C18.947,70.0984 28.145,74.0034 37.999,74.0034 C51.908,74.0034 64.711,65.8614 70.616,53.2614 C70.85,52.7614 71.445,52.5454 71.945,52.7804 C72.445,53.0154 72.661,53.6094 72.427,54.1104 C66.194,67.4094 52.681,76.0034 37.999,76.0034" id="Fill-9" fill="#000000"></path>
            </g>
            <g id="Group-27" transform="translate(12.000000, 11.613300)">
                <g id="Group-14">
                    <mask id="mask-2" fill="white">
                        <use xlink:href="#path-1"></use>
                    </mask>
                    <g id="Clip-13"></g>
                    <polygon id="Fill-12" fill="#FDE78D" mask="url(#mask-2)" points="27.08 38 37.976 76 33.815 76 22.919 38"></polygon>
                </g>
                <g id="Group-17">
                    <mask id="mask-4" fill="white">
                        <use xlink:href="#path-3"></use>
                    </mask>
                    <g id="Clip-16"></g>
                    <path d="M34.5683,75 L36.6493,75 L26.3263,39 L24.2463,39 L34.5683,75 Z M37.9763,77 L33.8153,77 C33.3693,77 32.9763,76.706 32.8533,76.277 L21.9573,38.278 C21.8713,37.976 21.9303,37.651 22.1203,37.4 C22.3083,37.149 22.6043,37 22.9193,37 L27.0803,37 C27.5263,37 27.9183,37.298 28.0413,37.727 L38.9373,75.727 C39.0243,76.029 38.9643,76.352 38.7753,76.603 C38.5863,76.854 38.2903,77 37.9763,77 Z" id="Fill-15" fill="#000000" mask="url(#mask-4)"></path>
                </g>
                <g id="Group-20">
                    <mask id="mask-6" fill="white">
                        <use xlink:href="#path-5"></use>
                    </mask>
                    <g id="Clip-19"></g>
                    <polygon id="Fill-18" fill="#FDE78D" mask="url(#mask-6)" points="22.9189 38 12.0229 76 16.1839 76 27.0799 38"></polygon>
                </g>
                <g id="Group-23">
                    <mask id="mask-8" fill="white">
                        <use xlink:href="#path-7"></use>
                    </mask>
                    <g id="Clip-22"></g>
                    <path d="M13.3496,75 L15.4296,75 L25.7526,39 L23.6726,39 L13.3496,75 Z M16.1836,77 L12.0226,77 C11.7076,77 11.4126,76.854 11.2236,76.604 C11.0346,76.353 10.9746,76.029 11.0606,75.727 L21.9566,37.726 C22.0806,37.297 22.4726,37 22.9186,37 L27.0796,37 C27.3936,37 27.6896,37.149 27.8786,37.4 C28.0676,37.651 28.1276,37.976 28.0406,38.278 L17.1446,76.277 C17.0216,76.706 16.6296,77 16.1836,77 Z" id="Fill-21" fill="#000000" mask="url(#mask-8)"></path>
                </g>
                <mask id="mask-10" fill="white">
                    <use xlink:href="#path-9"></use>
                </mask>
                <g id="Clip-25"></g>
                <polygon id="Fill-24" fill="#FDE78D" mask="url(#mask-10)" points="22.999 76 26.999 76 26.999 38 22.999 38"></polygon>
                <path d="M23.999,75 L25.999,75 L25.999,39 L23.999,39 L23.999,75 Z M27.999,76 C27.999,76.552 27.552,77 26.999,77 L22.999,77 C22.447,77 21.999,76.552 21.999,76 L21.999,38 C21.999,37.448 22.447,37 22.999,37 L26.999,37 C27.552,37 27.999,37.448 27.999,38 L27.999,76 Z" id="Fill-26" fill="#000000" mask="url(#mask-10)"></path>
            </g>
            <g id="Group-101" transform="translate(0.000000, 0.613300)">
                <path d="M34.3955,40.7983 L33.6345,42.3193 L31.6345,46.3193 C31.6245,46.3393 31.6155,46.3593 31.6055,46.3793 C30.1565,49.3573 31.3955,52.9473 34.3745,54.3973 C37.3335,55.8373 40.8965,54.6233 42.3645,51.6873 C42.3745,51.6683 42.3835,51.6483 42.3935,51.6283 L42.3645,51.6873 L45.1675,46.0793 L34.3955,40.7983 Z" id="Fill-28" fill="#F93B2A"></path>
                <polygon id="Fill-30" fill="#D63123" points="32.789 44.0107 43.562 49.2917 45.168 46.0787 34.395 40.7987"></polygon>
                <path d="M36.9687,55.9956 C35.9467,55.9956 34.9107,55.7706 33.9367,55.2966 C32.2557,54.4776 30.9937,53.0556 30.3837,51.2876 C29.7737,49.5206 29.8877,47.6226 30.7057,45.9406 L33.9447,39.4636 L40.7137,42.7826 C41.2097,43.0246 41.4147,43.6246 41.1717,44.1206 C40.9287,44.6156 40.3307,44.8236 39.8327,44.5776 L34.8457,42.1336 L32.5297,46.7666 C31.9197,48.0166 31.8387,49.3736 32.2747,50.6356 C32.7097,51.8966 33.6117,52.9136 34.8117,53.4976 C37.2627,54.6906 40.2497,53.6786 41.4697,51.2396 L43.8227,46.5326 L42.5227,45.8956 C42.0267,45.6526 41.8217,45.0536 42.0647,44.5576 C42.3077,44.0626 42.9057,43.8556 43.4027,44.0996 L46.5137,45.6246 L43.2577,52.1346 C42.0047,54.5856 39.5267,55.9956 36.9687,55.9956" id="Fill-32" fill="#000000"></path>
                <path d="M36.9922,51.0015 C36.7002,51.0015 36.4042,50.9385 36.1252,50.8025 C35.1322,50.3175 34.7192,49.1185 35.2012,48.1275 L35.2392,48.0555 C35.7422,47.1185 36.9092,46.7335 37.8732,47.2045 C38.8622,47.6865 39.2762,48.8775 38.8042,49.8655 L38.7572,49.9565 C38.3982,50.6185 37.7072,51.0015 36.9922,51.0015" id="Fill-34" fill="#000000"></path>
                <polygon id="Fill-36" fill="#F93B2A" points="94.999 48.2324 89.825 45.6964 82.784 60.0634 87.999 62.6184"></polygon>
                <polygon id="Fill-38" fill="#D63123" points="84.9843 55.5747 82.7843 60.0627 87.9993 62.6187 90.1863 58.1227"></polygon>
                <polygon id="Fill-40" fill="#FFFFFF" points="88.5058 48.3901 93.6868 50.9301 94.9988 48.2321 89.8248 45.6971"></polygon>
                <path d="M84.122,59.605 L87.539,61.28 L93.664,48.691 L90.283,47.035 L84.122,59.605 Z M87.999,63.619 C87.848,63.619 87.697,63.584 87.56,63.517 L82.345,60.961 C82.106,60.844 81.924,60.637 81.838,60.387 C81.752,60.136 81.769,59.861 81.887,59.623 L88.928,45.256 C89.171,44.762 89.77,44.555 90.266,44.798 L95.439,47.334 C95.935,47.577 96.14,48.173 95.898,48.669 L88.898,63.056 C88.782,63.295 88.575,63.478 88.324,63.564 C88.219,63.601 88.108,63.619 87.999,63.619 Z" id="Fill-42" fill="#000000"></path>
                <polygon id="Fill-44" fill="#FDE78D" points="83.2881 44.7187 78.0061 55.4937 83.6651 58.2677 88.9451 47.4917"></polygon>
                <polygon id="Fill-46" fill="#F27063" points="79.7646 51.9048 78.0056 55.4938 83.6646 58.2678 85.4256 54.6738"></polygon>
                <polygon id="Fill-48" fill="#FFFFFF" points="81.9668 47.4141 87.6268 50.1831 88.9458 47.4921 83.2878 44.7191"></polygon>
                <path d="M79.3437,55.0356 L83.2057,56.9306 L87.6077,47.9496 L83.7447,46.0566 L79.3437,55.0356 Z M83.6637,59.2676 C83.5127,59.2676 83.3627,59.2336 83.2237,59.1656 L77.5657,56.3906 C77.0697,56.1476 76.8647,55.5496 77.1077,55.0536 L82.3897,44.2776 C82.6327,43.7826 83.2307,43.5736 83.7277,43.8206 L89.3857,46.5946 C89.8817,46.8366 90.0867,47.4356 89.8437,47.9316 L84.5627,58.7086 C84.4457,58.9466 84.2397,59.1286 83.9887,59.2146 C83.8827,59.2506 83.7737,59.2676 83.6637,59.2676 Z" id="Fill-50" fill="#000000"></path>
                <polygon id="Fill-52" fill="#F93B2A" points="74.0449 63.5752 66.8609 60.0542 80.0659 33.1162 87.2499 36.6382"></polygon>
                <polygon id="Fill-54" fill="#D63123" points="69.5019 54.6655 66.8609 60.0535 74.0449 63.5755 76.6859 58.1865"></polygon>
                <polygon id="Fill-56" fill="#FFFFFF" points="78.7451 35.811 85.9301 39.331 87.2501 36.638 80.0661 33.116"></polygon>
                <path d="M68.1992,59.5952 L73.5872,62.2372 L85.9122,37.0952 L80.5232,34.4532 L68.1992,59.5952 Z M74.0452,64.5742 C73.8932,64.5742 73.7432,64.5402 73.6042,64.4722 L66.4212,60.9502 C65.9252,60.7082 65.7202,60.1092 65.9632,59.6132 L79.1682,32.6752 C79.2852,32.4372 79.4912,32.2552 79.7422,32.1692 C79.9952,32.0832 80.2682,32.1022 80.5062,32.2182 L87.6892,35.7402 C88.1852,35.9822 88.3902,36.5812 88.1472,37.0772 L74.9422,64.0152 C74.8262,64.2532 74.6192,64.4352 74.3682,64.5212 C74.2622,64.5572 74.1532,64.5742 74.0452,64.5742 Z" id="Fill-58" fill="#000000"></path>
                <polygon id="Fill-60" fill="#FDE78D" points="21.2011 7.6011 10.6371 29.1521 68.1811 57.3601 78.7451 35.8091"></polygon>
                <polygon id="Fill-62" fill="#F27063" points="70.3818 52.8706 12.8388 24.6626 10.6368 29.1516 68.1808 57.3596"></polygon>
                <polygon id="Fill-64" fill="#FFFFFF" points="19.8808 10.2954 77.4248 38.5034 78.7448 35.8094 21.2008 7.6014"></polygon>
                <path d="M68.1797,58.3599 C68.0327,58.3599 67.8827,58.3279 67.7417,58.2569 L42.5227,45.8949 C42.0267,45.6529 41.8217,45.0529 42.0647,44.5569 C42.3077,44.0629 42.9047,43.8539 43.4027,44.0999 L67.7237,56.0219 L77.4077,36.2669 L21.6587,8.9389 L18.1447,16.1099 C17.9017,16.6049 17.3037,16.8129 16.8067,16.5669 C16.3107,16.3249 16.1057,15.7249 16.3487,15.2289 L20.3037,7.1609 C20.4197,6.9219 20.6267,6.7409 20.8777,6.6549 C21.1287,6.5689 21.4047,6.5869 21.6417,6.7039 L79.1857,34.9119 C79.4237,35.0279 79.6057,35.2349 79.6917,35.4859 C79.7777,35.7369 79.7597,36.0109 79.6437,36.2499 L69.0787,57.7999 C68.9057,58.1539 68.5497,58.3599 68.1797,58.3599" id="Fill-66" fill="#000000"></path>
                <path d="M40.2734,44.6802 C40.1264,44.6802 39.9754,44.6482 39.8344,44.5772 L10.1974,30.0492 C9.9594,29.9332 9.7764,29.7262 9.6904,29.4752 C9.6054,29.2242 9.6224,28.9502 9.7394,28.7112 L14.6214,18.7522 C14.8654,18.2562 15.4614,18.0492 15.9604,18.2952 C16.4554,18.5372 16.6604,19.1372 16.4174,19.6332 L11.9754,28.6942 L40.7134,42.7832 C41.2104,43.0252 41.4154,43.6242 41.1724,44.1202 C40.9984,44.4742 40.6434,44.6802 40.2734,44.6802" id="Fill-68" fill="#000000"></path>
                <polygon id="Fill-70" fill="#F93B2A" points="9.3168 31.8452 2.1328 28.3242 15.3378 1.3862 22.5218 4.9082"></polygon>
                <polygon id="Fill-72" fill="#D63123" points="4.7744 22.936 2.1334 28.324 9.3164 31.845 11.9584 26.457"></polygon>
                <polygon id="Fill-74" fill="#FFFFFF" points="14.0175 4.0811 21.2025 7.6011 22.5215 4.9081 15.3385 1.3861"></polygon>
                <g id="Group-78" transform="translate(1.000000, 0.000000)">
                    <mask id="mask-12" fill="white">
                        <use xlink:href="#path-11"></use>
                    </mask>
                    <g id="Clip-77"></g>
                    <path d="M8.3159,32.8452 C8.1689,32.8452 8.0189,32.8132 7.8769,32.7422 L0.6929,29.2212 C0.1969,28.9792 -0.0081,28.3792 0.2349,27.8832 L13.4409,0.9462 C13.5569,0.7072 13.7639,0.5262 14.0149,0.4402 C14.2669,0.3552 14.5409,0.3712 14.7779,0.4892 L21.9619,4.0102 C22.1999,4.1262 22.3819,4.3332 22.4689,4.5842 C22.5539,4.8352 22.5359,5.1102 22.4199,5.3482 L17.1439,16.1102 C16.9009,16.6062 16.3039,16.8132 15.8059,16.5672 C15.3099,16.3242 15.1049,15.7252 15.3479,15.2292 L20.1839,5.3662 L14.7959,2.7242 L2.4709,27.8662 L7.8589,30.5072 L13.6219,18.7522 C13.8649,18.2562 14.4629,18.0492 14.9599,18.2952 C15.4559,18.5372 15.6609,19.1372 15.4179,19.6332 L9.2149,32.2852 C9.0409,32.6392 8.6859,32.8452 8.3159,32.8452" id="Fill-76" fill="#000000" mask="url(#mask-12)"></path>
                </g>
                <path d="M13.9101,4.3003 C9.1401,4.4543 4.6101,7.1663 2.3631,11.7503 C0.1161,16.3343 0.7461,21.5763 3.5461,25.4413 L13.9101,4.3003 Z" id="Fill-79" fill="#2ABBB3"></path>
                <path d="M6.5361,6.8091 C0.5951,11.0791 -0.8139,19.4231 3.5461,25.4411 L5.6851,21.0791 C3.2321,16.6541 3.4151,11.1311 6.5361,6.8091" id="Fill-81" fill="#7ECDEF"></path>
                <path d="M3.5361,9.8091 C6.0921,7.9721 9.2451,7.0961 12.4131,7.3541 L13.9061,4.3081 C9.1951,4.4601 5.6211,6.9221 3.5361,9.8091" id="Fill-83" fill="#FFFFFF"></path>
                <path d="M3.7124,27.3745 L2.7364,26.0275 C-0.3856,21.7195 -0.8726,16.0795 1.4644,11.3105 C1.9534,10.3135 2.5534,9.3785 3.2504,8.5285 C3.6014,8.1025 4.2304,8.0395 4.6574,8.3895 C5.0844,8.7385 5.1474,9.3695 4.7964,9.7965 C4.1984,10.5265 3.6814,11.3325 3.2604,12.1905 C1.5054,15.7705 1.6014,19.9225 3.4404,23.3855 L12.2204,5.4755 C11.2444,5.6455 10.2924,5.9315 9.3744,6.3335 C8.8694,6.5585 8.2794,6.3235 8.0574,5.8185 C7.8364,5.3125 8.0664,4.7235 8.5724,4.5015 C10.2574,3.7635 12.0434,3.3595 13.8784,3.3015 L15.5404,3.2475 L3.7124,27.3745 Z" id="Fill-85" fill="#000000"></path>
                <path d="M6.267,8.0044 C5.967,8.0044 5.671,7.8704 5.474,7.6134 C5.137,7.1764 5.219,6.5484 5.657,6.2114 L5.774,6.1234 C6.221,5.7984 6.846,5.8974 7.171,6.3444 C7.496,6.7904 7.397,7.4164 6.951,7.7404 L6.876,7.7974 C6.695,7.9374 6.48,8.0044 6.267,8.0044" id="Fill-87" fill="#000000"></path>
                <path d="M60.499,71.5034 C60.223,71.5034 59.999,71.2794 59.999,71.0034 L59.999,69.0034 C59.999,68.7274 60.223,68.5034 60.499,68.5034 C60.775,68.5034 60.999,68.7274 60.999,69.0034 L60.999,71.0034 C60.999,71.2794 60.775,71.5034 60.499,71.5034" id="Fill-89" fill="#FFFFFF"></path>
                <path d="M61.499,70.5034 L59.499,70.5034 C59.223,70.5034 58.999,70.2794 58.999,70.0034 C58.999,69.7274 59.223,69.5034 59.499,69.5034 L61.499,69.5034 C61.775,69.5034 61.999,69.7274 61.999,70.0034 C61.999,70.2794 61.775,70.5034 61.499,70.5034" id="Fill-91" fill="#FFFFFF"></path>
                <path d="M22.499,50.5034 C22.223,50.5034 21.999,50.2794 21.999,50.0034 L21.999,48.0034 C21.999,47.7274 22.223,47.5034 22.499,47.5034 C22.775,47.5034 22.999,47.7274 22.999,48.0034 L22.999,50.0034 C22.999,50.2794 22.775,50.5034 22.499,50.5034" id="Fill-93" fill="#FFFFFF"></path>
                <path d="M23.499,49.5034 L21.499,49.5034 C21.223,49.5034 20.999,49.2794 20.999,49.0034 C20.999,48.7274 21.223,48.5034 21.499,48.5034 L23.499,48.5034 C23.775,48.5034 23.999,48.7274 23.999,49.0034 C23.999,49.2794 23.775,49.5034 23.499,49.5034" id="Fill-95" fill="#FFFFFF"></path>
                <path d="M60.999,22.5034 C60.723,22.5034 60.499,22.2794 60.499,22.0034 L60.499,20.0034 C60.499,19.7274 60.723,19.5034 60.999,19.5034 C61.275,19.5034 61.499,19.7274 61.499,20.0034 L61.499,22.0034 C61.499,22.2794 61.275,22.5034 60.999,22.5034" id="Fill-97" fill="#FFFFFF"></path>
                <path d="M61.999,21.5034 L59.999,21.5034 C59.723,21.5034 59.499,21.2794 59.499,21.0034 C59.499,20.7274 59.723,20.5034 59.999,20.5034 L61.999,20.5034 C62.275,20.5034 62.499,20.7274 62.499,21.0034 C62.499,21.2794 62.275,21.5034 61.999,21.5034" id="Fill-99" fill="#FFFFFF"></path>
            </g>
        </g>
    </g>
</svg>